<svg xmlns="http://www.w3.org/2000/svg" viewBox="0 0 130.84 88.84"><defs><style>.cls-1{fill:#fdfeff;opacity:0.2;}.cls-2{fill:#e6e6e6;opacity:0.4;}.cls-3,.cls-4{fill:#ccc;}.cls-4{opacity:0.5;}</style></defs><g id="Layer_2" data-name="Layer 2"><g id="Layer_1-2" data-name="Layer 1"><polygon id="Path" class="cls-1" points="3.23 22.61 127.61 22.61 127.61 3.23 3.23 3.23 3.23 22.61"/><path class="cls-2" d="M0,0V25.85H130.84V0ZM127.61,22.61H3.23V3.23H127.61Z"/><circle id="Oval" class="cls-3" cx="12.92" cy="12.92" r="6.46"/><rect id="Rectangle" class="cls-3" x="32.31" y="9.69" width="75.92" height="1.62"/><rect id="Rectangle-2" data-name="Rectangle" class="cls-3" x="32.31" y="14.54" width="75.92" height="1.62"/><polygon id="Path-2" data-name="Path" class="cls-1" points="3.23 54.11 127.61 54.11 127.61 34.73 3.23 34.73 3.23 54.11"/><path class="cls-2" d="M0,31.5V57.34H130.84V31.5ZM127.61,54.11H3.23V34.73H127.61Z"/><circle id="Oval-2" data-name="Oval" class="cls-4" cx="12.92" cy="44.42" r="6.46"/><rect id="Rectangle-3" data-name="Rectangle" class="cls-4" x="32.31" y="41.19" width="75.92" height="1.62"/><rect id="Rectangle-4" data-name="Rectangle" class="cls-4" x="32.31" y="46.04" width="75.92" height="1.62"/><polygon id="Path-3" data-name="Path" class="cls-1" points="3.23 85.61 127.61 85.61 127.61 66.22 3.23 66.22 3.23 85.61"/><path class="cls-2" d="M0,63V88.84H130.84V63ZM127.61,85.61H3.23V66.23H127.61Z"/><circle id="Oval-3" data-name="Oval" class="cls-4" cx="12.92" cy="75.92" r="6.46"/><rect id="Rectangle-5" data-name="Rectangle" class="cls-4" x="32.31" y="72.69" width="75.92" height="1.62"/><rect id="Rectangle-6" data-name="Rectangle" class="cls-4" x="32.31" y="77.53" width="75.92" height="1.62"/></g></g></svg>