<?xml version="1.0" encoding="UTF-8"?>
<svg width="230px" height="157px" viewBox="0 0 230 157" version="1.1" xmlns="http://www.w3.org/2000/svg" xmlns:xlink="http://www.w3.org/1999/xlink">
    <title>Group 18</title>
    <defs>
        <linearGradient x1="50%" y1="100%" x2="50%" y2="0%" id="linearGradient-1">
            <stop stop-color="#808080" stop-opacity="0.25" offset="0%"></stop>
            <stop stop-color="#808080" stop-opacity="0.12" offset="53.514%"></stop>
            <stop stop-color="#808080" stop-opacity="0.1" offset="100%"></stop>
        </linearGradient>
        <linearGradient x1="50.031245%" y1="99.9999953%" x2="50.031245%" y2="0.00420524018%" id="linearGradient-2">
            <stop stop-color="#B3B3B3" stop-opacity="0.25" offset="0%"></stop>
            <stop stop-color="#B3B3B3" stop-opacity="0.1" offset="53.514%"></stop>
            <stop stop-color="#B3B3B3" stop-opacity="0.05" offset="100%"></stop>
        </linearGradient>
        <linearGradient x1="49.999933%" y1="100%" x2="49.999933%" y2="0%" id="linearGradient-3">
            <stop stop-color="#000000" stop-opacity="0.12" offset="0%"></stop>
            <stop stop-color="#000000" stop-opacity="0.09" offset="55.135%"></stop>
            <stop stop-color="#000000" stop-opacity="0.02" offset="100%"></stop>
        </linearGradient>
        <linearGradient x1="49.9999996%" y1="100.000019%" x2="49.9999996%" y2="0.0297382992%" id="linearGradient-4">
            <stop stop-color="#000000" stop-opacity="0.12" offset="0%"></stop>
            <stop stop-color="#000000" stop-opacity="0.09" offset="55.135%"></stop>
            <stop stop-color="#000000" stop-opacity="0.02" offset="100%"></stop>
        </linearGradient>
    </defs>
    <g id="Page-1" stroke="none" stroke-width="1" fill="none" fill-rule="evenodd">
        <g id="01-A---14" transform="translate(-605.000000, -434.000000)" fill-rule="nonzero">
            <g id="undraw_Search_1px8-(1)" transform="translate(605.000000, 434.000000)">
                <g id="Group-18">
                    <rect id="Rectangle" fill="url(#linearGradient-1)" x="0" y="0" width="230" height="42"></rect>
                    <rect id="Rectangle" fill="#FFFFFF" x="1" y="1" width="227" height="39"></rect>
                    <rect id="Rectangle" fill-opacity="0.1" fill="#0054FE" x="15" y="9" width="132" height="23"></rect>
                    <path d="M197.969882,10.7833222 C193.497251,6.07754253 186.17165,5.71514443 181.266148,9.95698711 C176.360645,14.1988298 175.577372,21.5730628 179.480139,26.7716099 C183.382905,31.9701569 190.617515,33.1892066 195.976395,29.5512699 L204.784621,38.8159702 C205.01156,39.0546709 205.386888,39.0621418 205.622941,38.832657 L207.818015,36.6986435 C208.054064,36.4691579 208.061451,36.0896205 207.834514,35.8509206 L199.026288,26.5862176 C202.512114,21.7570074 202.066713,15.0942023 197.969882,10.7833222 L197.969882,10.7833222 Z M195.226431,25.6759372 C192.685284,28.146395 188.922698,28.8256719 185.693161,27.3970221 C182.463623,25.9683723 180.403137,22.713144 180.472503,19.149245 C180.541869,15.5853461 182.727427,12.4146254 186.010055,11.1155852 C189.292682,9.81654497 193.025922,10.6450089 195.468971,13.2146656 C198.804893,16.7234813 198.696305,22.3025751 195.226431,25.6759372 L195.226431,25.6759372 Z" id="Shape" fill="url(#linearGradient-2)"></path>
                    <path d="M183.5,17 C182.833888,17 182.832779,19 183.5,19 C184.166112,19 184.167221,17 183.5,17 Z" id="Path" fill="url(#linearGradient-3)"></path>
                    <path d="M190.338111,12.0035678 C187.836552,11.9219431 185.473171,13.2454332 184.086639,15.5043841 C183.674429,16.2039132 184.844759,16.8220206 185.254758,16.1262355 C186.300941,14.3507912 188.289151,13.2236066 190.437725,13.2819405 C192.64539,13.366245 194.667984,14.6417024 195.827137,16.6805285 C196.239149,17.4167068 197.318271,16.7473047 196.908897,16.0158727 C195.592713,13.6642136 193.03608,12.0697878 190.338111,12.0035678 Z" id="Path" fill="url(#linearGradient-4)"></path>
                    <path d="M197.969882,9.78332391 C193.497253,5.07754292 186.171651,4.71514384 181.266148,8.95698663 C176.360645,13.1988294 175.577372,20.5730634 179.480139,25.7716108 C183.382906,30.9701582 190.617516,32.1892073 195.976395,28.5512694 L204.784621,37.8159727 C205.011561,38.0546711 205.386889,38.0621409 205.622941,37.8326568 L207.818014,35.6986459 C208.054065,35.4691594 208.061451,35.0896212 207.834513,34.8509203 L199.026288,25.5862171 C202.512115,20.757008 202.066714,14.0942028 197.969882,9.78332391 L197.969882,9.78332391 Z M195.226431,24.6759393 C191.756548,28.0492969 186.239347,27.9394892 182.903415,24.4306769 C179.567484,20.9218646 179.676073,15.3427634 183.145955,11.969405 C186.615838,8.59604668 192.13304,8.70585317 195.468971,12.2146647 C198.804895,15.7234808 198.696307,21.3025769 195.226431,24.6759393 L195.226431,24.6759393 Z" id="Shape" fill="#0054FE"></path>
                    <path d="M183.5,15 C182.833888,15 182.832779,17 183.5,17 C184.166112,17 184.167221,15 183.5,15 Z" id="Path" fill="#0054FE"></path>
                    <path d="M190.338111,10.0035678 C187.836552,9.92194314 185.473171,11.2454332 184.086639,13.5043841 C183.674429,14.2039132 184.844759,14.8220206 185.254758,14.1262355 C186.300941,12.3507912 188.289151,11.2236066 190.437725,11.2819433 C192.645389,11.3662468 194.667984,12.6417031 195.827137,14.6805285 C196.239149,15.4167068 197.318271,14.7473047 196.908897,14.0158727 C195.592713,11.6642051 193.03608,10.0697793 190.338111,10.0035678 Z" id="Path" fill="#0054FE"></path>
                    <rect id="Rectangle" fill="#FFFFFF" x="1" y="63" width="229" height="16"></rect>
                    <rect id="Rectangle" fill-opacity="0.361205201" fill="#B0BEC5" x="1" y="89" width="229" height="16"></rect>
                    <rect id="Rectangle" fill="#FFFFFF" x="1" y="115" width="229" height="16"></rect>
                    <rect id="Rectangle" fill-opacity="0.361205201" fill="#B0BEC5" x="1" y="141" width="229" height="16"></rect>
                </g>
            </g>
        </g>
    </g>
</svg>