<svg xmlns="http://www.w3.org/2000/svg" viewBox="0 0 161.83 116.15"><defs><style>.cls-1{fill:#fff;opacity:0.15;}.cls-2{fill:#fdfeff;opacity:0.2;}.cls-3{fill:#e6e6e6;opacity:0.4;}.cls-4{fill:#ccc;opacity:0.5;}</style></defs><g id="Layer_2" data-name="Layer 2"><g id="Layer_1-2" data-name="Layer 1"><path class="cls-1" d="M119.2,30.85s-16.57,9.78-36.4-15.21S28.2.43,17.06,11.84-6.84,39.55,4.3,78.39s77.41,37.49,77.41,37.49,69,6,78.24-37.76C170.88,26.29,130.6,26.9,130.6,26.9A77.08,77.08,0,0,0,119.2,30.85Z"/><polygon id="Path" class="cls-2" points="26.03 38.91 150.41 38.91 150.41 19.52 26.03 19.52 26.03 38.91"/><path class="cls-3" d="M22.8,16.29V42.14H153.64V16.29ZM150.41,38.91H26V19.53H150.41Z"/><circle id="Oval" class="cls-4" cx="35.72" cy="29.22" r="6.46"/><rect id="Rectangle" class="cls-4" x="55.11" y="25.99" width="75.92" height="1.62"/><rect id="Rectangle-2" data-name="Rectangle" class="cls-4" x="55.11" y="30.83" width="75.92" height="1.62"/><polygon id="Path-2" data-name="Path" class="cls-2" points="26.03 70.4 150.41 70.4 150.41 51.02 26.03 51.02 26.03 70.4"/><path class="cls-3" d="M22.8,47.79V73.64H153.64V47.79ZM150.41,70.41H26V51H150.41Z"/><circle id="Oval-2" data-name="Oval" class="cls-4" cx="35.72" cy="60.71" r="6.46"/><rect id="Rectangle-3" data-name="Rectangle" class="cls-4" x="55.11" y="57.48" width="75.92" height="1.62"/><rect id="Rectangle-4" data-name="Rectangle" class="cls-4" x="55.11" y="62.33" width="75.92" height="1.62"/><polygon id="Path-3" data-name="Path" class="cls-2" points="26.03 101.9 150.41 101.9 150.41 82.52 26.03 82.52 26.03 101.9"/><path class="cls-3" d="M22.8,79.29v25.84H153.64V79.29ZM150.41,101.9H26V82.52H150.41Z"/><circle id="Oval-3" data-name="Oval" class="cls-4" cx="35.72" cy="92.21" r="6.46"/><rect id="Rectangle-5" data-name="Rectangle" class="cls-4" x="55.11" y="88.98" width="75.92" height="1.62"/><rect id="Rectangle-6" data-name="Rectangle" class="cls-4" x="55.11" y="93.83" width="75.92" height="1.62"/></g></g></svg>