<?xml version="1.0" encoding="UTF-8"?>
<svg width="223px" height="243px" viewBox="0 0 223 243" version="1.1" xmlns="http://www.w3.org/2000/svg" xmlns:xlink="http://www.w3.org/1999/xlink">
    <title>page-not-found</title>
    <g id="Page-1" stroke="none" stroke-width="1" fill="none" fill-rule="evenodd">
        <g id="00-PO-Copy-4" transform="translate(-212.000000, -263.000000)" fill-rule="nonzero">
            <g id="page-not-found" transform="translate(212.000000, 263.000000)">
                <path d="M44.4266653,24.9962391 C92.63879,24.9962391 125.746726,-2.27373675e-13 148.978042,-2.27373675e-13 C172.209358,-2.27373675e-13 221,13.3666743 221,120.334951 C221,227.303227 155.362646,243 129.810289,243 C10.154724,243.006976 -40.9569589,24.9962391 44.4266653,24.9962391 Z" id="Path" fill="#EFEFEF"></path>
                <path d="M205.5,45 C199.711,45 195,40.289 195,34.5 C195,28.711 199.711,24 205.5,24 C211.289,24 216,28.711 216,34.5 C216,40.289 211.289,45 205.5,45 Z M205.5,31 C203.575,31 202,32.568 202,34.5 C202,36.432 203.575,38 205.5,38 C207.425,38 209,36.432 209,34.5 C209,32.568 207.425,31 205.5,31 Z" id="Shape" fill="#AFCDFF"></path>
                <path d="M176.044444,193 L46.9555556,193 C39.2451111,193 33,186.735 33,179 L33,74 L190,74 L190,179 C190,186.735 183.754889,193 176.044444,193 Z" id="Path" fill="#F3F3F1"></path>
                <path d="M190,74 L33,74 L33,63.7142857 C33,56.1371429 39.2451111,50 46.9555556,50 L176.044444,50 C183.754889,50 190,56.1371429 190,63.7142857 L190,74 Z" id="Path" fill="#AFCDFF"></path>
                <circle id="Oval" fill="#AFCDFF" cx="111.5" cy="135.5" r="36.5"></circle>
                <path d="M90.5294118,135.5 C90.5294118,118.035619 102.725176,103.470381 119,99.8829524 C116.494588,99.3337143 113.906353,99 111.235294,99 C91.2265098,99 75,115.338095 75,135.5 C75,155.654952 91.2265098,172 111.235294,172 C113.906353,172 116.494588,171.666286 119,171.110095 C102.725176,167.529619 90.5294118,152.964381 90.5294118,135.5 Z" id="Path" fill="#AFCDFF"></path>
                <path d="M50.2222222,179 L50.2222222,74 L33,74 L33,179 C33,186.735 39.1655556,193 46.7777778,193 L64,193 C56.3877778,193 50.2222222,186.735 50.2222222,179 Z" id="Path" fill="#D5DBE1"></path>
                <path d="M63,50 L47.1176471,50 C39.3176471,50 33,56.1371429 33,63.7142857 L33,74 L48.8823529,74 L48.8823529,63.7142857 C48.8823529,56.1371429 55.2,50 63,50 Z" id="Path" fill="#AFCDFF"></path>
                <path d="M112,177 C88.837,177 70,158.163 70,135 C70,111.837 88.837,93 112,93 C135.163,93 154,111.837 154,135 C154,158.163 135.163,177 112,177 Z M112,103.5 C94.633,103.5 80.5,117.633 80.5,135 C80.5,152.367 94.633,166.5 112,166.5 C129.367,166.5 143.5,152.367 143.5,135 C143.5,117.633 129.367,103.5 112,103.5 Z" id="Shape" fill="#000000"></path>
                <polygon id="Path" fill="#000000" transform="translate(111.591126, 135.455153) rotate(-45.000000) translate(-111.591126, -135.455153) " points="94.0308332 130.223686 129.151419 130.223686 129.151419 140.686621 94.0308332 140.686621"></polygon>
                <polygon id="Path" fill="#000000" transform="translate(111.591126, 135.450221) rotate(-45.000000) translate(-111.591126, -135.450221) " points="106.359658 117.889928 116.822594 117.889928 116.822594 153.010514 106.359658 153.010514"></polygon>
                <path d="M175.864583,198 L47.1354167,198 C36.579625,198 28,189.425045 28,178.875 L28,64.125 C28,53.5749545 36.579625,45 47.1354167,45 L175.864583,45 C186.420375,45 195,53.5749545 195,64.125 L195,178.875 C195,189.425045 186.420375,198 175.864583,198 Z M47.1354167,55.4318182 C42.341125,55.4318182 38.4375,59.3333182 38.4375,64.125 L38.4375,178.875 C38.4375,183.666682 42.341125,187.568182 47.1354167,187.568182 L175.864583,187.568182 C180.658875,187.568182 184.5625,183.666682 184.5625,178.875 L184.5625,64.125 C184.5625,59.3333182 180.658875,55.4318182 175.864583,55.4318182 L47.1354167,55.4318182 Z" id="Shape" fill="#000000"></path>
                <polygon id="Path" fill="#000000" points="33 69 190 69 190 79 33 79"></polygon>
                <polygon id="Path" fill="#000000" points="0 188 223 188 223 198 0 198"></polygon>
            </g>
        </g>
    </g>
</svg>