<?xml version="1.0" encoding="UTF-8"?>
<svg width="15px" height="16px" viewBox="0 0 15 16" version="1.1" xmlns="http://www.w3.org/2000/svg" xmlns:xlink="http://www.w3.org/1999/xlink">
    <title>Group 3</title>
    <defs>
        <polygon id="path-1" points="0 0 14.9797721 0 14.9797721 16 0 16"></polygon>
    </defs>
    <g id="Page-1" stroke="none" stroke-width="1" fill="none" fill-rule="evenodd">
        <g id="01-Today's-—-02-Copy-68" transform="translate(-115.000000, -765.000000)">
            <g id="Group-3" transform="translate(115.000000, 765.000000)">
                <mask id="mask-2" fill="white">
                    <use xlink:href="#path-1"></use>
                </mask>
                <g id="Clip-2"></g>
                <path d="M0,12.8773046 L3.74170038,15.0384485 L3.74170038,10.7130725 L0,12.8773046 Z M9.15228066,7.59087119 L7.61681233,6.70331367 L4.02396467,4.62864025 C3.84793552,4.5409345 3.6416417,4.5409345 3.46561255,4.62864025 L0.277323122,6.46984343 L0,6.63104907 L5.40872734,9.75386801 L5.40872734,16.0001235 L8.59269325,14.1601556 L8.8731046,14.0032735 C9.03739847,13.8958031 9.14116303,13.7166857 9.15228066,13.5202742 L9.15228066,7.59087119 Z M14.9797721,4.55019919 L14.9797721,4.55019919 L14.9797721,12.5480992 C14.9692721,12.7445107 14.8655076,12.9236281 14.700596,13.0310985 L14.4387141,13.1879806 L12.443717,14.3405083 L11.0966307,15.1249189 L10.8180723,15.2818011 L10.8180723,6.63166672 L3.3297304,2.30258485 L6.88613693,0.253234922 L7.21410704,0.0667057843 C7.38951854,-0.0222352614 7.59643001,-0.0222352614 7.77184151,0.0667057843 L12.7025107,2.91467218 L14.9779192,4.22902319 L14.9779192,4.55081684 L14.9797721,4.55019919 Z" id="Fill-1" fill="#5CE500" mask="url(#mask-2)"></path>
            </g>
        </g>
    </g>
</svg>