<?xml version="1.0" encoding="utf-8"?>
<!-- Generated by IcoMoon.io -->
<svg version="1.1" xmlns="http://www.w3.org/2000/svg" xmlns:xlink="http://www.w3.org/1999/xlink" width="2016" height="32" viewBox="0 0 2016 32">
<svg id="dot-DS_Home" width="32" height="32" viewBox="0 0 32 32" x="0" y="0">
<path fill="#607d8b" d="M27.896 17.221l-11.489-12.81c-0.122-0.12-0.317-0.12-0.439 0l-11.489 12.81c-0.201 0.197-0.062 0.538 0.22 0.538h3.228v9.259c0 0.174 0.14 0.314 0.314 0.314h5.202v-9.709h5.361v9.71h5.332c0.174 0 0.314-0.14 0.314-0.314v-9.259h3.228c0.281 0 0.421-0.341 0.22-0.538z"></path>
</svg>
<svg id="dot-DS_Home_active" width="32" height="32" viewBox="0 0 32 32" x="64" y="0">
<path fill="#fff" d="M27.896 17.221l-11.489-12.81c-0.122-0.12-0.317-0.12-0.439 0l-11.489 12.81c-0.201 0.197-0.062 0.538 0.22 0.538h3.228v9.259c0 0.174 0.14 0.314 0.314 0.314h5.202v-9.709h5.361v9.71h5.332c0.174 0 0.314-0.14 0.314-0.314v-9.259h3.228c0.281 0 0.421-0.341 0.22-0.538z"></path>
</svg>
<svg id="dot-DS_RepositoryBrowser_active" width="32" height="32" viewBox="0 0 32 32" x="128" y="0">
<path fill="#fff" d="M27.829 14.383c0.105 0.011 0.18 0.104 0.17 0.209l-1.368 13.027c-0.011 0.104-0.105 0.18-0.209 0.169l-18.080-1.898c-0.104-0.011-0.18-0.105-0.169-0.209l0.888-8.462h-1.452c-0.251 0-0.453-0.204-0.452-0.454 0.003-0.497 0.146-2.952-0.149-3.242-1.305-1.282-2.784-2.736-2.982-4.214-0.161-1.209 0.405-2.461 1.408-3.115 0.719-0.468 1.343-0.475 1.748-0.354-0.003-0.57-0.007-1.045-0.014-1.38-0.005-0.253 0.199-0.46 0.452-0.46h9.702c0.249 0 0.452 0.202 0.452 0.452v8.876l10.054 1.056zM7.18 11.303c0.005-1.434 0.009-2.307 0.008-3.638-0.219-0.123-0.573-0.232-0.828-0.051-0.448 0.319-0.729 0.905-0.654 1.471 0.106 0.795 0.534 1.285 1.473 2.218zM14.989 8.523v2.393h1.497v-0.572h-0.898v-0.391h0.726v-0.531h-0.726v-0.347h0.898v-0.552h-1.497zM12.479 8.523v0 2.393h0.458v-1.711l0.382 1.711h0.388l0.368-1.711v1.711h0.567v-2.393h-0.801l-0.275 1.271-0.288-1.271h-0.798zM11.292 9.228l0.161 0.694h-0.322l0.161-0.694zM11.026 8.523l-0.614 2.393h0.496l0.12-0.471h0.533l0.112 0.471h0.623l-0.624-2.393h-0.646zM9.024 10.916v-1.159c0-0.108-0.016-0.238-0.048-0.393 0.071 0.194 0.142 0.359 0.212 0.494l0.545 1.057h0.497v-2.393h-0.497v0.708c0 0.214 0.016 0.423 0.047 0.628-0.047-0.132-0.117-0.285-0.21-0.46l-0.463-0.876h-0.577v2.393h0.495zM25.429 26.33l1.126-10.727c0.001-0.009-0.005-0.017-0.014-0.018l-15.78-1.656c-0.009-0.001-0.017 0.005-0.018 0.014l-1.126 10.727c-0.001 0.009 0.005 0.017 0.014 0.018l15.78 1.656c0.009 0.001 0.017-0.005 0.018-0.014zM14.311 21.532l-0.83-0.087-0.756-1.564c-0.097-0.201-0.191-0.442-0.281-0.723 0.031 0.22 0.039 0.405 0.023 0.554l-0.169 1.609-0.827-0.087 0.349-3.322 0.964 0.101 0.646 1.298c0.129 0.258 0.223 0.483 0.283 0.675-0.022-0.29-0.018-0.583 0.014-0.879l0.103-0.983 0.83 0.087-0.349 3.322zM16.722 21.785l-0.119-0.675-0.89-0.094-0.268 0.634-0.828-0.087 1.374-3.215 1.078 0.113 0.693 3.432-1.041-0.109zM15.962 20.31l0.538 0.057-0.168-0.992-0.37 0.936zM22.030 18.983l-0.349 3.322-0.947-0.099 0.249-2.376-0.864 2.311-0.648-0.068-0.39-2.443-0.249 2.376-0.764-0.080 0.349-3.322 1.332 0.14 0.297 1.815 0.645-1.716 1.338 0.14zM24.843 21.835l-0.083 0.793-2.5-0.262 0.349-3.322 2.5 0.262-0.081 0.767-1.499-0.157-0.050 0.482 1.212 0.127-0.078 0.738-1.212-0.127-0.057 0.543 1.499 0.157z"></path>
</svg>
<svg id="dot-DS_RepositoryBrowser" width="32" height="32" viewBox="0 0 32 32" x="192" y="0">
<path fill="#607d8b" d="M27.829 14.383c0.105 0.011 0.18 0.104 0.17 0.209l-1.368 13.027c-0.011 0.104-0.105 0.18-0.209 0.169l-18.080-1.898c-0.104-0.011-0.18-0.105-0.169-0.209l0.888-8.462h-1.452c-0.251 0-0.453-0.204-0.452-0.454 0.003-0.497 0.146-2.952-0.149-3.242-1.305-1.282-2.784-2.736-2.982-4.214-0.161-1.209 0.405-2.461 1.408-3.115 0.719-0.468 1.343-0.475 1.748-0.354-0.003-0.57-0.007-1.045-0.014-1.38-0.005-0.253 0.199-0.46 0.452-0.46h9.702c0.249 0 0.452 0.202 0.452 0.452v8.876l10.054 1.056zM7.18 11.303c0.005-1.434 0.009-2.307 0.008-3.638-0.219-0.123-0.573-0.232-0.828-0.051-0.448 0.319-0.729 0.905-0.654 1.471 0.106 0.795 0.534 1.285 1.473 2.218zM14.989 8.523v2.393h1.497v-0.572h-0.898v-0.391h0.726v-0.531h-0.726v-0.347h0.898v-0.552h-1.497zM12.479 8.523v0 2.393h0.458v-1.711l0.382 1.711h0.388l0.368-1.711v1.711h0.567v-2.393h-0.801l-0.275 1.271-0.288-1.271h-0.798zM11.292 9.228l0.161 0.694h-0.322l0.161-0.694zM11.026 8.523l-0.614 2.393h0.496l0.12-0.471h0.533l0.112 0.471h0.623l-0.624-2.393h-0.646zM9.024 10.916v-1.159c0-0.108-0.016-0.238-0.048-0.393 0.071 0.194 0.142 0.359 0.212 0.494l0.545 1.057h0.497v-2.393h-0.497v0.708c0 0.214 0.016 0.423 0.047 0.628-0.047-0.132-0.117-0.285-0.21-0.46l-0.463-0.876h-0.577v2.393h0.495zM25.429 26.33l1.126-10.727c0.001-0.009-0.005-0.017-0.014-0.018l-15.78-1.656c-0.009-0.001-0.017 0.005-0.018 0.014l-1.126 10.727c-0.001 0.009 0.005 0.017 0.014 0.018l15.78 1.656c0.009 0.001 0.017-0.005 0.018-0.014zM14.311 21.532l-0.83-0.087-0.756-1.564c-0.097-0.201-0.191-0.442-0.281-0.723 0.031 0.22 0.039 0.405 0.023 0.554l-0.169 1.609-0.827-0.087 0.349-3.322 0.964 0.101 0.646 1.298c0.129 0.258 0.223 0.483 0.283 0.675-0.022-0.29-0.018-0.583 0.014-0.879l0.103-0.983 0.83 0.087-0.349 3.322zM16.722 21.785l-0.119-0.675-0.89-0.094-0.268 0.634-0.828-0.087 1.374-3.215 1.078 0.113 0.693 3.432-1.041-0.109zM15.962 20.31l0.538 0.057-0.168-0.992-0.37 0.936zM22.030 18.983l-0.349 3.322-0.947-0.099 0.249-2.376-0.864 2.311-0.648-0.068-0.39-2.443-0.249 2.376-0.764-0.080 0.349-3.322 1.332 0.14 0.297 1.815 0.645-1.716 1.338 0.14zM24.843 21.835l-0.083 0.793-2.5-0.262 0.349-3.322 2.5 0.262-0.081 0.767-1.499-0.157-0.050 0.482 1.212 0.127-0.078 0.738-1.212-0.127-0.057 0.543 1.499 0.157z"></path>
</svg>
<svg id="dot-DS_Server_active" width="32" height="32" viewBox="0 0 32 32" x="256" y="0">
<path fill="#fff" d="M4 21.252v6.751h24v-6.751h-24zM20.443 25.922h-14.363v-2.59h14.363v2.59zM24.254 25.895c-0.694 0-1.257-0.563-1.257-1.257v-0.030c0-0.694 0.563-1.257 1.257-1.257s1.257 0.563 1.257 1.257v0.030c0 0.694-0.563 1.257-1.257 1.257zM4 12.626v0h24v6.751h-24v-6.751zM20.443 17.296v-2.59h-14.363v2.59h14.363zM24.254 17.269c0.694 0 1.257-0.563 1.257-1.257v-0.030c0-0.694-0.563-1.257-1.257-1.257s-1.257 0.563-1.257 1.257v0.030c0 0.694 0.563 1.257 1.257 1.257zM4 4v0h24v6.751h-24v-6.751zM20.443 8.67v-2.59h-14.363v2.59h14.363zM24.254 8.643c0.694 0 1.257-0.563 1.257-1.257v-0.030c0-0.694-0.563-1.257-1.257-1.257s-1.257 0.563-1.257 1.257v0.030c0 0.694 0.563 1.257 1.257 1.257z"></path>
</svg>
<svg id="dot-DS_Server" width="32" height="32" viewBox="0 0 32 32" x="320" y="0">
<path fill="#607d8b" d="M4 21.252v6.751h24v-6.751h-24zM20.443 25.922h-14.363v-2.59h14.363v2.59zM24.254 25.895c-0.694 0-1.257-0.563-1.257-1.257v-0.030c0-0.694 0.563-1.257 1.257-1.257s1.257 0.563 1.257 1.257v0.030c0 0.694-0.563 1.257-1.257 1.257zM4 12.626v0h24v6.751h-24v-6.751zM20.443 17.296v-2.59h-14.363v2.59h14.363zM24.254 17.269c0.694 0 1.257-0.563 1.257-1.257v-0.030c0-0.694-0.563-1.257-1.257-1.257s-1.257 0.563-1.257 1.257v0.030c0 0.694 0.563 1.257 1.257 1.257zM4 4v0h24v6.751h-24v-6.751zM20.443 8.67v-2.59h-14.363v2.59h14.363zM24.254 8.643c0.694 0 1.257-0.563 1.257-1.257v-0.030c0-0.694-0.563-1.257-1.257-1.257s-1.257 0.563-1.257 1.257v0.030c0 0.694 0.563 1.257 1.257 1.257z"></path>
</svg>
<svg id="dot-DS_Settings_active" width="32" height="32" viewBox="0 0 32 32" x="384" y="0">
<path fill="#fff" d="M27.513 13.735l-2.846-0.449c-0.15-0.524-0.374-1.048-0.637-1.535 0.524-0.749 1.123-1.423 1.647-2.134 0.075-0.112 0.112-0.225 0.112-0.374 0-0.112-0.037-0.262-0.112-0.337-0.674-0.936-1.76-1.872-2.583-2.658-0.112-0.075-0.262-0.15-0.374-0.15-0.15 0-0.262 0.037-0.374 0.15l-2.247 1.685c-0.449-0.225-0.936-0.412-1.423-0.562l-0.449-2.883c0-0.3-0.225-0.487-0.524-0.487h-3.482c-0.262 0-0.487 0.187-0.562 0.449-0.262 0.936-0.337 1.947-0.449 2.883-0.487 0.15-0.973 0.374-1.423 0.599l-2.134-1.685c-0.112-0.075-0.262-0.15-0.412-0.15-0.524 0-2.621 2.284-2.995 2.808-0.075 0.112-0.15 0.225-0.15 0.374s0.075 0.262 0.15 0.374c0.562 0.711 1.123 1.385 1.685 2.134-0.262 0.487-0.449 0.936-0.599 1.423l-2.92 0.449c-0.225 0.037-0.412 0.337-0.412 0.562v3.482c0 0.262 0.187 0.524 0.449 0.562l2.846 0.412c0.15 0.524 0.374 1.048 0.636 1.535-0.524 0.749-1.123 1.423-1.647 2.134-0.075 0.112-0.112 0.225-0.112 0.374 0 0.112 0.037 0.262 0.112 0.374 0.674 0.899 1.76 1.872 2.583 2.621 0.112 0.112 0.262 0.187 0.374 0.187 0.15 0 0.3-0.037 0.374-0.15l2.209-1.685c0.449 0.225 0.936 0.412 1.423 0.562l0.449 2.883c0.037 0.262 0.3 0.487 0.562 0.487h3.482c0.3 0 0.487-0.187 0.562-0.449 0.262-0.936 0.337-1.947 0.449-2.883 0.487-0.15 0.973-0.374 1.423-0.599l2.172 1.685c0.112 0.075 0.262 0.15 0.412 0.15 0.524 0 2.621-2.284 2.995-2.808 0.112-0.112 0.15-0.225 0.15-0.374s-0.075-0.3-0.15-0.374c-0.562-0.711-1.123-1.385-1.685-2.172 0.262-0.449 0.449-0.936 0.599-1.423l2.883-0.449c0.262-0.037 0.449-0.337 0.449-0.562v-3.482c-0.037-0.225-0.225-0.487-0.487-0.524zM16.655 20.811c-3.22 0.412-5.916-2.284-5.504-5.504 0.262-2.172 2.059-3.931 4.231-4.231 3.22-0.412 5.916 2.321 5.504 5.504-0.3 2.209-2.059 3.969-4.231 4.231z"></path>
</svg>
<svg id="dot-DS_Settings" width="32" height="32" viewBox="0 0 32 32" x="448" y="0">
<path fill="#607d8b" d="M27.513 13.735l-2.846-0.449c-0.15-0.524-0.374-1.048-0.637-1.535 0.524-0.749 1.123-1.423 1.647-2.134 0.075-0.112 0.112-0.225 0.112-0.374 0-0.112-0.037-0.262-0.112-0.337-0.674-0.936-1.76-1.872-2.583-2.658-0.112-0.075-0.262-0.15-0.374-0.15-0.15 0-0.262 0.037-0.374 0.15l-2.247 1.685c-0.449-0.225-0.936-0.412-1.423-0.562l-0.449-2.883c0-0.3-0.225-0.487-0.524-0.487h-3.482c-0.262 0-0.487 0.187-0.562 0.449-0.262 0.936-0.337 1.947-0.449 2.883-0.487 0.15-0.973 0.374-1.423 0.599l-2.134-1.685c-0.112-0.075-0.262-0.15-0.412-0.15-0.524 0-2.621 2.284-2.995 2.808-0.075 0.112-0.15 0.225-0.15 0.374s0.075 0.262 0.15 0.374c0.562 0.711 1.123 1.385 1.685 2.134-0.262 0.487-0.449 0.936-0.599 1.423l-2.92 0.449c-0.225 0.037-0.412 0.337-0.412 0.562v3.482c0 0.262 0.187 0.524 0.449 0.562l2.846 0.412c0.15 0.524 0.374 1.048 0.636 1.535-0.524 0.749-1.123 1.423-1.647 2.134-0.075 0.112-0.112 0.225-0.112 0.374 0 0.112 0.037 0.262 0.112 0.374 0.674 0.899 1.76 1.872 2.583 2.621 0.112 0.112 0.262 0.187 0.374 0.187 0.15 0 0.3-0.037 0.374-0.15l2.209-1.685c0.449 0.225 0.936 0.412 1.423 0.562l0.449 2.883c0.037 0.262 0.3 0.487 0.562 0.487h3.482c0.3 0 0.487-0.187 0.562-0.449 0.262-0.936 0.337-1.947 0.449-2.883 0.487-0.15 0.973-0.374 1.423-0.599l2.172 1.685c0.112 0.075 0.262 0.15 0.412 0.15 0.524 0 2.621-2.284 2.995-2.808 0.112-0.112 0.15-0.225 0.15-0.374s-0.075-0.3-0.15-0.374c-0.562-0.711-1.123-1.385-1.685-2.172 0.262-0.449 0.449-0.936 0.599-1.423l2.883-0.449c0.262-0.037 0.449-0.337 0.449-0.562v-3.482c-0.037-0.225-0.225-0.487-0.487-0.524zM16.655 20.811c-3.22 0.412-5.916-2.284-5.504-5.504 0.262-2.172 2.059-3.931 4.231-4.231 3.22-0.412 5.916 2.321 5.504 5.504-0.3 2.209-2.059 3.969-4.231 4.231z"></path>
</svg>
<svg id="dot-DS_User_active" width="32" height="32" viewBox="0 0 32 32" x="512" y="0">
<path fill="#fff" d="M8.177 28c-2.325 0-2.175-0.863-2.175-3.225 0-3.3 1.95-8.663 6.187-8.663 0.225 0 1.875 0.75 3.563 0.75 1.725 0 3.45-0.75 3.675-0.75 4.275 0 6.188 5.363 6.188 8.663 0 2.363 0.113 3.225-2.175 3.225h-15.262zM15.827 15.175c-3.075 0-5.362-2.512-5.362-5.588s2.287-5.588 5.363-5.588c3.075 0 5.363 2.513 5.363 5.588s-2.288 5.588-5.363 5.588z"></path>
</svg>
<svg id="dot-DS_User" width="32" height="32" viewBox="0 0 32 32" x="576" y="0">
<path fill="#607d8b" d="M8.177 28c-2.325 0-2.175-0.863-2.175-3.225 0-3.3 1.95-8.663 6.187-8.663 0.225 0 1.875 0.75 3.563 0.75 1.725 0 3.45-0.75 3.675-0.75 4.275 0 6.188 5.363 6.188 8.663 0 2.363 0.113 3.225-2.175 3.225h-15.262zM15.827 15.175c-3.075 0-5.362-2.512-5.362-5.588s2.287-5.588 5.363-5.588c3.075 0 5.363 2.513 5.363 5.588s-2.288 5.588-5.363 5.588z"></path>
</svg>
<svg id="dot-DS_WorkflowManager_active" width="32" height="32" viewBox="0 0 32 32" x="640" y="0">
<path fill="#fff" d="M26.418 14.23h-2.111v-8.686c0-0.477-0.066-0.543-0.543-0.543h-15.319c-0.698-0.002-0.753 0.004-0.753 0.768v8.462h-2.119c-0.865 0-1.573 0.708-1.573 1.573v7.196c0 0.253 0.207 0.461 0.461 0.461h3.231v3.028c0 0.563 0.103 0.665 0.665 0.665h15.29c0.559 0 0.66-0.1 0.66-0.66v-3.033h3.231c0.253 0 0.461-0.207 0.461-0.461v-7.188c-0.001-0.87-0.712-1.582-1.582-1.582zM22.461 25.307h-12.923v-5.095h5.908c0 0.742 0.001 1.388 0.001 1.816v0.003l-0.959-0.312c-0.163-0.046-0.302 0.124-0.226 0.274l1.445 2.38c0.069 0.072 0.163 0.114 0.262 0.114s0.192-0.042 0.262-0.114l1.432-2.386c0.075-0.148-0.062-0.315-0.222-0.27l-0.962 0.317v-0.005c0-0.437-0.001-1.081-0.002-1.816h5.983v5.095h0.001zM16.472 16.451c-0.002-1.326-0.004-2.338-0.004-2.338l-1.027 0c0 0 0.001 1.013 0.002 2.338h-5.905v-9.605h12.918l0.005 9.605h-5.989zM25.882 19.048c-0.396 0-0.725-0.328-0.725-0.724s0.329-0.725 0.725-0.725 0.724 0.329 0.724 0.725c-0 0.396-0.329 0.724-0.724 0.724zM25.882 16.959c-0.396 0-0.725-0.328-0.725-0.724s0.329-0.725 0.725-0.725c0.396 0 0.724 0.329 0.724 0.725s-0.329 0.724-0.724 0.724zM16.472 8.746l0.003 0.937-1.043-0.001 0.005-0.936 1.035 0zM15.439 11.669l-0.002-1.309 1.036-0.004v1.309l-1.035 0.003zM15.441 13.73l-0.004-1.5 1.038 0.005-0.001 1.49-1.033 0.005z"></path>
</svg>
<svg id="dot-DS_WorkflowManager" width="32" height="32" viewBox="0 0 32 32" x="704" y="0">
<path fill="#607d8b" d="M26.418 14.23h-2.111v-8.686c0-0.477-0.066-0.543-0.543-0.543h-15.319c-0.698-0.002-0.753 0.004-0.753 0.768v8.462h-2.119c-0.865 0-1.573 0.708-1.573 1.573v7.196c0 0.253 0.207 0.461 0.461 0.461h3.231v3.028c0 0.563 0.103 0.665 0.665 0.665h15.29c0.559 0 0.66-0.1 0.66-0.66v-3.033h3.231c0.253 0 0.461-0.207 0.461-0.461v-7.188c-0.001-0.87-0.712-1.582-1.582-1.582zM22.461 25.307h-12.923v-5.095h5.908c0 0.742 0.001 1.388 0.001 1.816v0.003l-0.959-0.312c-0.163-0.046-0.302 0.124-0.226 0.274l1.445 2.38c0.069 0.072 0.163 0.114 0.262 0.114s0.192-0.042 0.262-0.114l1.432-2.386c0.075-0.148-0.062-0.315-0.222-0.27l-0.962 0.317v-0.005c0-0.437-0.001-1.081-0.002-1.816h5.983v5.095h0.001zM16.472 16.451c-0.002-1.326-0.004-2.338-0.004-2.338l-1.027 0c0 0 0.001 1.013 0.002 2.338h-5.905v-9.605h12.918l0.005 9.605h-5.989zM25.882 19.048c-0.396 0-0.725-0.328-0.725-0.724s0.329-0.725 0.725-0.725 0.724 0.329 0.724 0.725c-0 0.396-0.329 0.724-0.724 0.724zM25.882 16.959c-0.396 0-0.725-0.328-0.725-0.724s0.329-0.725 0.725-0.725c0.396 0 0.724 0.329 0.724 0.725s-0.329 0.724-0.724 0.724zM16.472 8.746l0.003 0.937-1.043-0.001 0.005-0.936 1.035 0zM15.439 11.669l-0.002-1.309 1.036-0.004v1.309l-1.035 0.003zM15.441 13.73l-0.004-1.5 1.038 0.005-0.001 1.49-1.033 0.005z"></path>
</svg>
</svg>
