<?xml version="1.0" encoding="UTF-8"?>
<svg width="301px" height="120px" viewBox="0 0 301 120" version="1.1" xmlns="http://www.w3.org/2000/svg" xmlns:xlink="http://www.w3.org/1999/xlink">
    <title>a01rtop@2x</title>
    <g id="a01rtop" stroke="none" stroke-width="1" fill="none" fill-rule="evenodd">
        <rect fill="#FFFFFF" x="0" y="0" width="301" height="120"></rect>
        <g id="a01rtop@2x">
            <rect id="Rectangle" fill="#FFFFFF" fill-rule="nonzero" x="0" y="0" width="301" height="120"></rect>
            <rect id="Rectangle" fill="#E8EBFB" fill-rule="nonzero" x="0" y="0" width="301" height="120"></rect>
            <g id="Group-2" transform="translate(153.75, 99.9291) scale(-1, 1) translate(-153.75, -99.9291)translate(60.5, 77.3582)">
                <polyline id="Path-2" stroke="#FFFFFF" fill="#FFFFFF" fill-rule="nonzero" points="0.514742567 45.1417578 0.514742567 7.35352255 6.45699678 1.14175784 6.45699678 45.1417578"></polyline>
                <polygon id="Rectangle" stroke="#0F4CAD" fill="#FFFFFF" fill-rule="nonzero" points="186.5 0.141757844 186.5 44.1417578 6.5 44.1417578 6.5 0.141757844"></polygon>
                <line x1="66.5" y1="0.141757844" x2="66.5" y2="42.1417578" id="Line" stroke="#0F4CAD" stroke-linecap="square"></line>
                <polyline id="Line-Copy" stroke="#0F4CAD" stroke-linecap="square" points="96.5 6.66133815e-16 96.5 11.2879891 96.5 42.7894851"></polyline>
                <line x1="156.5" y1="6.66133815e-16" x2="156.5" y2="42.7894851" id="Line-Copy-2" stroke="#0F4CAD" stroke-linecap="square"></line>
                <line x1="0.5" y1="6.14175784" x2="0.5" y2="44.1417578" id="Line-2" stroke="#0F4CAD" stroke-linecap="square"></line>
                <line x1="0.5" y1="6.14175784" x2="6.5" y2="0.141757844" id="Line-3" stroke="#0F4CAD" stroke-linecap="square"></line>
            </g>
            <g id="Arrow" transform="translate(99, 90)">
                <line x1="2.61627907" y1="2.5" x2="42.3837209" y2="2.5" id="Line-6" stroke="#0F4CAD" stroke-linecap="square"></line>
                <g id="Group">
                    <line x1="2.61627907" y1="0.5" x2="2.61627907" y2="4.5" id="Line-7" stroke="#0F4CAD" stroke-linecap="square"></line>
                    <line x1="1.56976744" y1="1.5" x2="1.56976744" y2="3.5" id="Line-8" stroke="#0F4CAD" stroke-linecap="square"></line>
                    <rect id="Rectangle" fill="#0F4CAD" x="0" y="2" width="1.04651163" height="1"></rect>
                </g>
                <g id="Group-Copy" transform="translate(43.4302, 2.5) scale(-1, 1) translate(-43.4302, -2.5)translate(41.8605, 0)">
                    <line x1="2.61627907" y1="0.5" x2="2.61627907" y2="4.5" id="Line-7" stroke="#0F4CAD" stroke-linecap="square"></line>
                    <line x1="1.56976744" y1="1.5" x2="1.56976744" y2="3.5" id="Line-8" stroke="#0F4CAD" stroke-linecap="square"></line>
                    <rect id="Rectangle" fill="#0F4CAD" x="0" y="2" width="1.04651163" height="1"></rect>
                </g>
            </g>
        </g>
    </g>
</svg>