<?xml version="1.0" encoding="UTF-8"?>
<svg width="301px" height="120px" viewBox="0 0 301 120" version="1.1" xmlns="http://www.w3.org/2000/svg" xmlns:xlink="http://www.w3.org/1999/xlink">
    <title>a10ltop@2x</title>
    <g id="a10ltop" stroke="none" stroke-width="1" fill="none" fill-rule="evenodd">
        <rect fill="#FFFFFF" x="0" y="0" width="301" height="120"></rect>
        <rect id="Rectangle" fill="#E8EBFB" fill-rule="nonzero" x="0" y="0" width="301" height="120"></rect>
        <g id="Group" transform="translate(147.5, 84.5) scale(1, -1) translate(-147.5, -84.5)translate(54, 47)">
            <polyline id="Path-14" fill="#FFFFFF" points="0.5 2 0.5 37.9535732 6 43.4535732 6 2"></polyline>
            <path d="M6.5,0.5 L186.5,0.5 L186.5,74.5 L6.5,74.5 L6.5,0.5 Z" id="Rectangle" stroke="#0F4CAD" fill="#FFFFFF"></path>
            <rect id="Rectangle" fill="#00FF00" x="7" y="45" width="59" height="29"></rect>
            <rect id="Rectangle-Copy" fill="#FFFF00" x="97" y="45" width="59" height="29"></rect>
            <line x1="66.5" y1="1.5" x2="66.5" y2="73.5" id="Line-6" stroke="#0F4CAD" stroke-linecap="square"></line>
            <line x1="0.5" y1="1.5" x2="0.5" y2="38.5" id="Line-6-Copy-3" stroke="#0F4CAD" stroke-linecap="square"></line>
            <line x1="0.5" y1="38.5" x2="6.5" y2="44.5" id="Line-2" stroke="#0F4CAD" stroke-linecap="square"></line>
            <line x1="6.5" y1="44.5" x2="185.5" y2="44.5" id="Line-3" stroke="#0F4CAD" stroke-linecap="square"></line>
            <line x1="96.5" y1="1.5" x2="96.5" y2="73.5" id="Line-6-Copy" stroke="#0F4CAD" stroke-linecap="square"></line>
            <line x1="156.5" y1="1.5" x2="156.5" y2="73.5" id="Line-6-Copy-2" stroke="#0F4CAD" stroke-linecap="square"></line>
            <g id="Arrow" transform="translate(104, 33)">
                <line x1="2.61627907" y1="2.5" x2="42.3837209" y2="2.5" id="Line-6" stroke="#0F4CAD" stroke-linecap="square"></line>
                <g id="Group">
                    <line x1="2.61627907" y1="0.5" x2="2.61627907" y2="4.5" id="Line-7" stroke="#0F4CAD" stroke-linecap="square"></line>
                    <line x1="1.56976744" y1="1.5" x2="1.56976744" y2="3.5" id="Line-8" stroke="#0F4CAD" stroke-linecap="square"></line>
                    <rect id="Rectangle" fill="#0F4CAD" x="0" y="2" width="1.04651163" height="1"></rect>
                </g>
                <g id="Group-Copy" transform="translate(43.4302, 2.5) scale(-1, 1) translate(-43.4302, -2.5)translate(41.8605, 0)">
                    <line x1="2.61627907" y1="0.5" x2="2.61627907" y2="4.5" id="Line-7" stroke="#0F4CAD" stroke-linecap="square"></line>
                    <line x1="1.56976744" y1="1.5" x2="1.56976744" y2="3.5" id="Line-8" stroke="#0F4CAD" stroke-linecap="square"></line>
                    <rect id="Rectangle" fill="#0F4CAD" x="0" y="2" width="1.04651163" height="1"></rect>
                </g>
            </g>
        </g>
    </g>
</svg>