<?xml version="1.0" encoding="UTF-8"?>
<svg width="301px" height="120px" viewBox="0 0 301 120" version="1.1" xmlns="http://www.w3.org/2000/svg" xmlns:xlink="http://www.w3.org/1999/xlink">
    <title>b4420top@2x</title>
    <g id="b4420top" stroke="none" stroke-width="1" fill="none" fill-rule="evenodd">
        <rect fill="#FFFFFF" x="0" y="0" width="301" height="120"></rect>
        <rect id="Rectangle" fill="#E8EBFB" x="0" y="0" width="301" height="199"></rect>
        <g id="Group-23" transform="translate(150.5, 75.983) scale(1, -1) translate(-150.5, -75.983)translate(100, 30)" stroke="#0F4CAD">
            <polygon id="Path-15" fill="#FFFFFF" points="0.555940761 0.396779751 0.555940761 71.5615944 20.3601812 71.5615944 20.3601812 91.9659082 80.4797632 91.9659082 80.4797632 71.5615944 100.598906 71.5615944 100.598906 0.396779751"></polygon>
            <line x1="20.5" y1="70.5" x2="20.5" y2="0.5" id="Line-8" stroke-linecap="square"></line>
            <line x1="80.5" y1="70.5" x2="80.5" y2="0.5" id="Line-8-Copy" stroke-linecap="square"></line>
            <line x1="0.5" y1="51.5" x2="100.5" y2="51.5" id="Line-22" stroke-linecap="square"></line>
            <line x1="0.5" y1="31.5" x2="20.5" y2="51.5" id="Line-23" stroke-linecap="square"></line>
            <line x1="80.5" y1="31.5" x2="100.5" y2="51.5" id="Line-23-Copy" stroke-linecap="square" transform="translate(90.5, 41.5) scale(-1, 1) translate(-90.5, -41.5)"></line>
            <line x1="19.5" y1="71.5" x2="83.5" y2="71.5" id="Line-24" stroke-linecap="square"></line>
        </g>
        <g id="Arrow" transform="translate(128, 87)">
            <line x1="2.61627907" y1="2.5" x2="42.3837209" y2="2.5" id="Line-6" stroke="#0F4CAD" stroke-linecap="square"></line>
            <g id="Group">
                <line x1="2.61627907" y1="0.5" x2="2.61627907" y2="4.5" id="Line-7" stroke="#0F4CAD" stroke-linecap="square"></line>
                <line x1="1.56976744" y1="1.5" x2="1.56976744" y2="3.5" id="Line-8" stroke="#0F4CAD" stroke-linecap="square"></line>
                <rect id="Rectangle" fill="#0F4CAD" x="0" y="2" width="1.04651163" height="1"></rect>
            </g>
            <g id="Group-Copy" transform="translate(43.4302, 2.5) scale(-1, 1) translate(-43.4302, -2.5)translate(41.8605, 0)">
                <line x1="2.61627907" y1="0.5" x2="2.61627907" y2="4.5" id="Line-7" stroke="#0F4CAD" stroke-linecap="square"></line>
                <line x1="1.56976744" y1="1.5" x2="1.56976744" y2="3.5" id="Line-8" stroke="#0F4CAD" stroke-linecap="square"></line>
                <rect id="Rectangle" fill="#0F4CAD" x="0" y="2" width="1.04651163" height="1"></rect>
            </g>
        </g>
    </g>
</svg>