<?xml version="1.0" encoding="UTF-8"?>
<svg width="301px" height="120px" viewBox="0 0 301 120" version="1.1" xmlns="http://www.w3.org/2000/svg" xmlns:xlink="http://www.w3.org/1999/xlink">
    <title>b4511bot@2x</title>
    <g id="b4511bot" stroke="none" stroke-width="1" fill="none" fill-rule="evenodd">
        <rect fill="#FFFFFF" x="0" y="0" width="301" height="120"></rect>
        <rect id="Rectangle" fill="#E8EBFB" x="0" y="0" width="301" height="199"></rect>
        <g id="Group" transform="translate(150.5125, 43.9087) scale(1, -1) translate(-150.5125, -43.9087)translate(94.469, -2)" stroke="#0F4CAD">
            <g id="Group-27" transform="translate(56.031, 45.9087) scale(1, -1) translate(-56.031, -45.9087)translate(5.531, 0)">
                <path d="M0.469879173,0.20584338 L0.469879173,51.8397282 C1.07501665,60.9696908 2.24839971,66.4123309 3.99002835,68.1676485 C5.731657,69.9229661 11.1849378,71.0679094 20.3498709,71.6024783 L20.3498709,91.817363 L80.6213254,91.817363 L80.6213254,71.6024783 C89.1812168,71.5432771 94.5536759,70.3983339 96.7387029,68.1676485 C98.9237298,65.9369631 100.265382,60.494323 100.76366,51.8397282 L100.76366,0.20584338 L0.469879173,0.20584338 Z" id="Path-18" fill="#FFFFFF"></path>
                <line x1="80.5" y1="51.5" x2="96.5" y2="67.5" id="Line-31" stroke-linecap="square"></line>
                <line x1="4.5" y1="51.5" x2="20.5" y2="67.5" id="Line-31-Copy" stroke-linecap="square" transform="translate(12.5, 59.5) scale(-1, 1) translate(-12.5, -59.5)"></line>
                <line x1="20.5" y1="71.5" x2="80.5" y2="71.5" id="Line-30" stroke-linecap="square"></line>
                <line x1="20.5" y1="71.5" x2="20.5" y2="0.5" id="Line-28" stroke-linecap="square"></line>
                <line x1="80.5" y1="71.5" x2="80.5" y2="0.5" id="Line-28-Copy" stroke-linecap="square"></line>
                <line x1="0.5" y1="51.5" x2="100.5" y2="51.5" id="Line-29" stroke-linecap="square"></line>
            </g>
            <path d="M0,39.9814216 L0,88.2593678 C4.0579676,90.4658749 6.0869514,91.5691284 6.0869514,91.5691284 C6.0869514,91.5691284 6.0869514,74.3732261 6.0869514,39.9814216 L0,39.9814216 Z" id="Path-16" fill="#00FFFF" transform="translate(3.0435, 65.7753) scale(1, -1) translate(-3.0435, -65.7753)"></path>
            <path d="M106,39.9814216 L106,88.2593678 C110.057968,90.4658749 112.086951,91.5691284 112.086951,91.5691284 C112.086951,91.5691284 112.086951,74.3732261 112.086951,39.9814216 L106,39.9814216 Z" id="Path-16" fill="#00FFFF" transform="translate(109.0435, 65.7753) scale(-1, -1) translate(-109.0435, -65.7753)"></path>
        </g>
    </g>
</svg>