<?xml version="1.0" encoding="UTF-8"?>
<svg width="301px" height="120px" viewBox="0 0 301 120" version="1.1" xmlns="http://www.w3.org/2000/svg" xmlns:xlink="http://www.w3.org/1999/xlink">
    <title>b4510top@2x</title>
    <g id="b4510top" stroke="none" stroke-width="1" fill="none" fill-rule="evenodd">
        <rect fill="#FFFFFF" x="0" y="0" width="301" height="120"></rect>
        <rect id="Rectangle" fill="#E8EBFB" x="0" y="0" width="301" height="199"></rect>
        <g id="Group-23" transform="translate(150.5125, 75.983) scale(1, -1) translate(-150.5125, -75.983)translate(94.469, 30)" stroke="#0F4CAD">
            <polygon id="Path-15" fill="#FFFFFF" points="6.0869514 0.396779751 6.0869514 71.5615944 25.8911918 71.5615944 25.8911918 91.9659082 86.0107739 91.9659082 86.0107739 71.5615944 106.129916 71.5615944 106.129916 0.396779751"></polygon>
            <path d="M0,0.396779751 L0,48.674726 C4.0579676,50.881233 6.0869514,51.9844866 6.0869514,51.9844866 C6.0869514,51.9844866 6.0869514,34.7885843 6.0869514,0.396779751 L0,0.396779751 Z" id="Path-16" fill="#00FFFF"></path>
            <path d="M106,0.396779751 L106,48.674726 C110.057968,50.881233 112.086951,51.9844866 112.086951,51.9844866 C112.086951,51.9844866 112.086951,34.7885843 112.086951,0.396779751 L106,0.396779751 Z" id="Path-16" fill="#00FFFF" transform="translate(109.0435, 26.1906) scale(-1, 1) translate(-109.0435, -26.1906)"></path>
            <line x1="26.0310106" y1="70.5" x2="26.0310106" y2="0.5" id="Line-8" stroke-linecap="square"></line>
            <line x1="86.0310106" y1="70.5" x2="86.0310106" y2="0.5" id="Line-8-Copy" stroke-linecap="square"></line>
            <line x1="6.03101064" y1="51.5" x2="106.031011" y2="51.5" id="Line-22" stroke-linecap="square"></line>
            <line x1="25.0310106" y1="71.5" x2="89.0310106" y2="71.5" id="Line-24" stroke-linecap="square"></line>
        </g>
        <g id="Arrow" transform="translate(128, 88)">
            <line x1="2.61627907" y1="2.5" x2="42.3837209" y2="2.5" id="Line-6" stroke="#0F4CAD" stroke-linecap="square"></line>
            <g id="Group">
                <line x1="2.61627907" y1="0.5" x2="2.61627907" y2="4.5" id="Line-7" stroke="#0F4CAD" stroke-linecap="square"></line>
                <line x1="1.56976744" y1="1.5" x2="1.56976744" y2="3.5" id="Line-8" stroke="#0F4CAD" stroke-linecap="square"></line>
                <rect id="Rectangle" fill="#0F4CAD" x="0" y="2" width="1.04651163" height="1"></rect>
            </g>
            <g id="Group-Copy" transform="translate(43.4302, 2.5) scale(-1, 1) translate(-43.4302, -2.5)translate(41.8605, 0)">
                <line x1="2.61627907" y1="0.5" x2="2.61627907" y2="4.5" id="Line-7" stroke="#0F4CAD" stroke-linecap="square"></line>
                <line x1="1.56976744" y1="1.5" x2="1.56976744" y2="3.5" id="Line-8" stroke="#0F4CAD" stroke-linecap="square"></line>
                <rect id="Rectangle" fill="#0F4CAD" x="0" y="2" width="1.04651163" height="1"></rect>
            </g>
        </g>
    </g>
</svg>