<?xml version="1.0" encoding="UTF-8"?>
<svg width="301px" height="120px" viewBox="0 0 301 120" version="1.1" xmlns="http://www.w3.org/2000/svg" xmlns:xlink="http://www.w3.org/1999/xlink">
    <title>b4610top @2x</title>
    <g id="b4610top-" stroke="none" stroke-width="1" fill="none" fill-rule="evenodd">
        <rect fill="#FFFFFF" x="0" y="0" width="301" height="120"></rect>
        <rect id="Rectangle" fill="#E8EBFB" x="0" y="0" width="301" height="199"></rect>
        <g id="Group-24" transform="translate(140.7901, 76.2164) scale(1, -1) translate(-140.7901, -76.2164)translate(80.5801, 30.7441)" stroke="#0F4CAD">
            <polygon id="Path-17" fill="#FFFFFF" points="0 50.8136223 0 -1.72756478e-16 120.10529 0 120.10529 70.7285966 100.032441 70.7285966 100.032441 90.9446035 39.8888173 90.9446035 39.8888173 70.7285966 19.8808573 70.7285966 19.8808573 50.8136223"></polygon>
            <line x1="39.9198736" y1="70.7558625" x2="100.919874" y2="70.7558625" id="Line-27" stroke-linecap="square"></line>
            <line x1="19.9198736" y1="0.755862492" x2="19.9198736" y2="50.7558625" id="Line-25" stroke-linecap="square"></line>
            <line x1="39.9198736" y1="0.755862492" x2="39.9198736" y2="70.7558625" id="Line-25-Copy" stroke-linecap="square"></line>
            <line x1="99.9198736" y1="0.755862492" x2="99.9198736" y2="70.7558625" id="Line-25-Copy-2" stroke-linecap="square"></line>
            <line x1="19.9198736" y1="50.7558625" x2="119.919874" y2="50.7558625" id="Line-26" stroke-linecap="square"></line>
        </g>
        <g id="Arrow" transform="translate(128, 87)">
            <line x1="2.61627907" y1="2.5" x2="42.3837209" y2="2.5" id="Line-6" stroke="#0F4CAD" stroke-linecap="square"></line>
            <g id="Group">
                <line x1="2.61627907" y1="0.5" x2="2.61627907" y2="4.5" id="Line-7" stroke="#0F4CAD" stroke-linecap="square"></line>
                <line x1="1.56976744" y1="1.5" x2="1.56976744" y2="3.5" id="Line-8" stroke="#0F4CAD" stroke-linecap="square"></line>
                <rect id="Rectangle" fill="#0F4CAD" x="0" y="2" width="1.04651163" height="1"></rect>
            </g>
            <g id="Group-Copy" transform="translate(43.4302, 2.5) scale(-1, 1) translate(-43.4302, -2.5)translate(41.8605, 0)">
                <line x1="2.61627907" y1="0.5" x2="2.61627907" y2="4.5" id="Line-7" stroke="#0F4CAD" stroke-linecap="square"></line>
                <line x1="1.56976744" y1="1.5" x2="1.56976744" y2="3.5" id="Line-8" stroke="#0F4CAD" stroke-linecap="square"></line>
                <rect id="Rectangle" fill="#0F4CAD" x="0" y="2" width="1.04651163" height="1"></rect>
            </g>
        </g>
    </g>
</svg>