<?xml version="1.0" encoding="UTF-8"?>
<svg width="301px" height="120px" viewBox="0 0 301 120" version="1.1" xmlns="http://www.w3.org/2000/svg" xmlns:xlink="http://www.w3.org/1999/xlink">
    <title>b6021bot@2x</title>
    <g id="b6021bot" stroke="none" stroke-width="1" fill="none" fill-rule="evenodd">
        <rect fill="#FFFFFF" x="0" y="0" width="301" height="120"></rect>
        <rect id="Rectangle" fill="#E8EBFB" x="0" y="0" width="301" height="199"></rect>
        <g id="Group-16" transform="translate(70, -2)" stroke="#0F4CAD">
            <rect id="Rectangle" fill="#FFFFFF" x="0.5" y="0.5" width="180" height="51"></rect>
            <line x1="20.5" y1="2.5" x2="20.5" y2="51.5" id="Line-12" stroke-linecap="square"></line>
            <line x1="80.5" y1="2.5" x2="80.5" y2="51.5" id="Line-12-Copy" stroke-linecap="square"></line>
            <line x1="100.5" y1="2.5" x2="100.5" y2="51.5" id="Line-12-Copy-2" stroke-linecap="square"></line>
            <line x1="160.5" y1="2.5" x2="160.5" y2="51.5" id="Line-12-Copy-3" stroke-linecap="square"></line>
            <g id="Group-18" transform="translate(80, 51)">
                <polygon id="Path-11" fill="#FFFFFF" stroke-linejoin="round" points="0.5 0.5 20.5 0.5 0.5 20.5200622"></polygon>
                <line x1="0.5" y1="0.5" x2="10.5" y2="10.5" id="Line-14" stroke-linecap="square"></line>
            </g>
            <g id="Group-18-Copy-2" transform="translate(10.25, 61.26) scale(-1, 1) translate(-10.25, -61.26)translate(0, 51)">
                <polygon id="Path-11" fill="#FFFFFF" stroke-linejoin="round" points="0.5 0.5 20.5 0.5 0.5 20.5200622"></polygon>
                <line x1="0.5" y1="0.5" x2="10.5" y2="10.5" id="Line-14" stroke-linecap="square"></line>
            </g>
            <g id="Group-18-Copy" transform="translate(160, 51)">
                <polygon id="Path-11" fill="#FFFFFF" stroke-linejoin="round" points="0.5 0.5 20.5 0.5 0.5 20.5200622"></polygon>
                <line x1="0.5" y1="0.5" x2="10.5" y2="10.5" id="Line-14" stroke-linecap="square"></line>
            </g>
            <rect id="Rectangle" fill="#FFFFFF" x="20.5" y="51.5" width="60" height="20"></rect>
            <rect id="Rectangle-Copy-9" fill="#FFFFFF" x="100.5" y="51.5" width="60" height="20"></rect>
        </g>
    </g>
</svg>