<?xml version="1.0" encoding="UTF-8"?>
<svg width="301px" height="120px" viewBox="0 0 301 120" version="1.1" xmlns="http://www.w3.org/2000/svg" xmlns:xlink="http://www.w3.org/1999/xlink">
    <title>b6221top@2x</title>
    <g id="b6221top" stroke="none" stroke-width="1" fill="none" fill-rule="evenodd">
        <rect fill="#FFFFFF" x="0" y="0" width="301" height="120"></rect>
        <rect id="Rectangle" fill="#E8EBFB" x="0" y="0" width="301" height="199"></rect>
        <g id="Group-22" transform="translate(50, 50)">
            <path d="M0.5,72 L0.5,40.4310138 L40.5,0.5 L100.5,0.5 L120.5,20.5 C120.5,7.16666667 120.5,0.5 120.5,0.5 C120.5,0.5 140.5,0.5 180.5,0.5 L220.5,40.4310138 L220.5,71.2457734 L0.5,72 Z" id="Path-13" stroke="#0F4CAD" fill="#FFFFFF"></path>
            <g id="Group-21" transform="translate(110.5, 36) rotate(180) translate(-110.5, -36)" stroke="#0F4CAD" stroke-linecap="square">
                <line x1="20.5" y1="51.5" x2="20.5" y2="1.5" id="Line-15"></line>
                <line x1="40.5" y1="70.5" x2="40.5" y2="1.5" id="Line-15-Copy"></line>
                <line x1="199.5" y1="51.5" x2="20.5" y2="51.5" id="Line-16"></line>
                <line x1="120.5" y1="71.5" x2="120.5" y2="51.5" id="Line-20"></line>
                <line x1="100.5" y1="70.5" x2="100.5" y2="1.5" id="Line-15-Copy-2"></line>
                <line x1="120.5" y1="51.5" x2="120.5" y2="1.5" id="Line-15-Copy-3"></line>
                <line x1="180.5" y1="71.5" x2="180.5" y2="1.5" id="Line-15-Copy-4"></line>
                <line x1="200.5" y1="50.5" x2="200.5" y2="0.5" id="Line-15-Copy-5"></line>
                <line x1="30.5" y1="61.5" x2="39.5" y2="52.5" id="Line-17"></line>
                <line x1="101.5" y1="61.5" x2="110.5" y2="52.5" id="Line-17-Copy" transform="translate(106, 57) rotate(90) translate(-106, -57)"></line>
                <line x1="181.5" y1="61.5" x2="190.5" y2="52.5" id="Line-17-Copy-2" transform="translate(186, 57) rotate(90) translate(-186, -57)"></line>
                <g id="Group-20" transform="translate(205, 26)">
                    <line x1="15.5" y1="1.5" x2="0.5" y2="1.5" id="Line-18"></line>
                    <line x1="0.5" y1="0.5" x2="0.5" y2="1.5" id="Line-19"></line>
                </g>
                <g id="Group-20-Copy" transform="translate(8, 27) scale(-1, 1) translate(-8, -27)translate(0, 26)">
                    <line x1="15.5" y1="1.5" x2="0.5" y2="1.5" id="Line-18"></line>
                    <line x1="0.5" y1="0.5" x2="0.5" y2="1.5" id="Line-19"></line>
                </g>
            </g>
            <line x1="100.5" y1="20.5" x2="110.5" y2="10.5" id="Line-21" stroke="#0F4CAD" stroke-linecap="square"></line>
            <g id="Arrow" transform="translate(48, 37)">
                <line x1="2.61627907" y1="2.5" x2="42.3837209" y2="2.5" id="Line-6" stroke="#0F4CAD" stroke-linecap="square"></line>
                <g id="Group">
                    <line x1="2.61627907" y1="0.5" x2="2.61627907" y2="4.5" id="Line-7" stroke="#0F4CAD" stroke-linecap="square"></line>
                    <line x1="1.56976744" y1="1.5" x2="1.56976744" y2="3.5" id="Line-8" stroke="#0F4CAD" stroke-linecap="square"></line>
                    <rect id="Rectangle" fill="#0F4CAD" x="0" y="2" width="1.04651163" height="1"></rect>
                </g>
                <g id="Group-Copy" transform="translate(43.4302, 2.5) scale(-1, 1) translate(-43.4302, -2.5)translate(41.8605, 0)">
                    <line x1="2.61627907" y1="0.5" x2="2.61627907" y2="4.5" id="Line-7" stroke="#0F4CAD" stroke-linecap="square"></line>
                    <line x1="1.56976744" y1="1.5" x2="1.56976744" y2="3.5" id="Line-8" stroke="#0F4CAD" stroke-linecap="square"></line>
                    <rect id="Rectangle" fill="#0F4CAD" x="0" y="2" width="1.04651163" height="1"></rect>
                </g>
            </g>
        </g>
    </g>
</svg>