<?xml version="1.0" encoding="UTF-8"?>
<svg width="300px" height="209px" viewBox="0 0 300 209" version="1.1" xmlns="http://www.w3.org/2000/svg" xmlns:xlink="http://www.w3.org/1999/xlink">
    <title>lay002b@2x</title>
    <g id="lay002b" stroke="none" stroke-width="1" fill="none" fill-rule="evenodd">
        <rect fill="#FFFFFF" x="0" y="0" width="300" height="209"></rect>
        <rect id="Rectangle" fill="#E8EBFB" x="0" y="0" width="301" height="209"></rect>
        <g id="Group-14" transform="translate(16.5536, 8.4627)" fill="#FFFFFF" stroke="#0F4CAD">
            <path d="M85.9892272,39.0511528 L85.9892272,0 C28.6630757,0 0,0 0,0 C0,0 0,13.0170509 0,39.0511528 L8.84807505,39.0511528 L8.84807505,58.0433379 L46.8841872,58.0433379 L46.8841872,39.0511528 L85.9892272,39.0511528 Z" id="Path-9"></path>
            <path d="M95,77.0078149 L95,39 C37.6666667,39 9,39 9,39 C9,39 9,51.6692716 9,77.0078149 L17.8491835,77.0078149 L17.8491835,96 L56.9784726,96 L56.9784726,77.0078149 L95,77.0078149 Z" id="Path-9-Copy-6" transform="translate(52, 67.5) rotate(180) translate(-52, -67.5)"></path>
            <path d="M181,77.0078149 L181,39 C123.666667,39 95,39 95,39 C95,39 95,51.6692716 95,77.0078149 L103.849184,77.0078149 L103.849184,96 L142.053639,96 L142.053639,77.0078149 L181,77.0078149 Z" id="Path-9-Copy-7" transform="translate(138, 67.5) rotate(180) translate(-138, -67.5)"></path>
            <path d="M267,77 L267,39 C209.666667,39 181,39 181,39 C181,39 181,51.6666667 181,77 L190.010773,77 L190.010773,96.0433379 L228.163549,96.0433379 L228.163549,77 L267,77 Z" id="Path-9-Copy-8" transform="translate(224, 67.5217) rotate(180) translate(-224, -67.5217)"></path>
            <path d="M267,173.028861 L267,134.127508 C209.666667,134.127508 181,134.127508 181,134.127508 C181,134.127508 181,147.094626 181,173.028861 L190.010773,173.028861 L190.010773,192.026698 L227.905829,192.026698 L227.905829,173.028861 L267,173.028861 Z" id="Path-9-Copy-9" transform="translate(224, 163.0771) rotate(180) translate(-224, -163.0771)"></path>
            <path d="M181,173.105079 L181,134.127508 C123.666667,134.178319 95,134.203725 95,134.203725 C95,134.203725 95,147.170843 95,173.105079 L104,173.105079 L104.010773,192.102915 L142.053639,192.102915 L142.053639,173.105079 L181,173.105079 Z" id="Path-9-Copy-10" transform="translate(138, 163.1152) rotate(180) translate(-138, -163.1152)"></path>
            <path d="M95,173.105079 L95,134.145536 C37.5653834,134.133517 8.84807505,134.127508 8.84807505,134.127508 C8.84807505,134.127508 8.84807505,147.120032 8.84807505,173.105079 L17.8588479,173.105079 L17.8588479,192.102915 L56.9638878,192.102915 L56.8265477,173.105079 L95,173.105079 Z" id="Path-9-Copy-11" transform="translate(51.924, 163.1152) rotate(180) translate(-51.924, -163.1152)"></path>
            <path d="M85.9892272,134.127508 L85.9892272,96 C28.6630757,96 0,96 0,96 C0,96 0,108.709169 0,134.127508 L8.84807505,134.127508 L8.84807505,153.125344 C15.4404313,153.125344 21.8641181,153.125344 28.1191354,153.125344 C34.3741527,153.125344 40.6291699,153.125344 46.8841872,153.125344 L46.8841872,134.127508 L85.9892272,134.127508 Z" id="Path-9-Copy-3"></path>
            <path d="M171.989227,39.0511528 L171.989227,0 C114.663076,0 86,0 86,0 C86,0 86,13.0170509 86,39.0511528 L94.848075,39.0511528 L94.848075,58.0433379 L133.946361,58.0433379 L133.946361,39 L171.989227,39.0511528 Z" id="Path-9-Copy"></path>
            <path d="M171.989227,134.127508 L171.989227,96 C114.663076,96 86,96 86,96 C86,96 85.9964091,108.709169 85.9892272,134.127508 L95,134.127508 L95,153.125344 L133.946361,153.125344 L133.946361,134.127508 L171.989227,134.127508 Z" id="Path-9-Copy-4"></path>
            <path d="M257.989227,39.0511528 L257.989227,0 C200.663076,0 172,0 172,0 C172,0 172,13.0170509 172,39.0511528 L180.848075,39.0511528 L180.848075,58.0433379 L219.836451,58.0433379 L219.836451,39 L257.989227,39.0511528 Z" id="Path-9-Copy-2"></path>
            <path d="M257.989227,134.127508 L257.989227,96 C200.663076,96 172,96 172,96 C172,96 172,108.709169 172,134.127508 L180.848075,134.127508 L180.848075,153.125344 L220.094171,153.125344 L220.094171,134.127508 L257.989227,134.127508 Z" id="Path-9-Copy-5"></path>
        </g>
        <g id="Arrow" transform="translate(123, 23)">
            <line x1="2.61627907" y1="2.5" x2="42.3837209" y2="2.5" id="Line-6" stroke="#0F4CAD" stroke-linecap="square"></line>
            <g id="Group">
                <line x1="2.61627907" y1="0.5" x2="2.61627907" y2="4.5" id="Line-7" stroke="#0F4CAD" stroke-linecap="square"></line>
                <line x1="1.56976744" y1="1.5" x2="1.56976744" y2="3.5" id="Line-8" stroke="#0F4CAD" stroke-linecap="square"></line>
                <rect id="Rectangle" fill="#0F4CAD" x="0" y="2" width="1.04651163" height="1"></rect>
            </g>
            <g id="Group-Copy" transform="translate(43.4302, 2.5) scale(-1, 1) translate(-43.4302, -2.5)translate(41.8605, 0)">
                <line x1="2.61627907" y1="0.5" x2="2.61627907" y2="4.5" id="Line-7" stroke="#0F4CAD" stroke-linecap="square"></line>
                <line x1="1.56976744" y1="1.5" x2="1.56976744" y2="3.5" id="Line-8" stroke="#0F4CAD" stroke-linecap="square"></line>
                <rect id="Rectangle" fill="#0F4CAD" x="0" y="2" width="1.04651163" height="1"></rect>
            </g>
        </g>
    </g>
</svg>