<?xml version="1.0" encoding="UTF-8"?>
<svg width="300px" height="209px" viewBox="0 0 300 209" version="1.1" xmlns="http://www.w3.org/2000/svg" xmlns:xlink="http://www.w3.org/1999/xlink">
    <title>lay001d@2x</title>
    <g id="lay001d" stroke="none" stroke-width="1" fill="none" fill-rule="evenodd">
        <rect fill="#FFFFFF" x="0" y="0" width="300" height="209"></rect>
        <rect id="Rectangle" fill="#E8EBFB" x="0" y="0" width="301" height="209"></rect>
        <g id="Group-12" transform="translate(18.5649, 24.4716)">
            <path d="M19.0216469,0 C19.0216469,6.72857418 19.0216469,10.0928613 19.0216469,10.0928613 C19.0216469,10.0928613 12.681098,10.0928613 0,10.0928613 L0,47.9763867 L19.0216469,47.9763867 L19.0216469,58.028837 L46.9944164,58.028837 L46.9944164,47.9763867 L85.9762004,47.9763867 L85.9762004,10.0928613 L46.9944164,10.0928613 L46.9944164,0 L19.0216469,0 Z" id="Path-7" stroke="#0F4CAD" fill="#FFFFFF"></path>
            <path d="M19.0216469,96 C19.0216469,101.957044 19.0216469,104.935566 19.0216469,104.935566 C19.0216469,104.935566 12.681098,104.935566 0,104.935566 L0,143.976387 L19.0216469,143.976387 L19.0216469,153.016664 L46.9944164,153.016664 L46.9944164,143.976387 L85.9762004,143.976387 L85.9762004,104.935566 L46.9944164,104.935566 L46.9944164,96 L19.0216469,96 Z" id="Path-7-Copy-3" stroke="#0F4CAD" fill="#FFFFFF"></path>
            <path d="M27.9520604,48 C27.9520604,53.919436 27.9520604,56.8791539 27.9520604,56.8791539 C27.9520604,56.8791539 21.6002681,56.8791539 8.89668335,56.8791539 L8.89668335,94.7862927 L27.9520604,94.7862927 L27.9520604,104.81513 L56.8004969,104.81513 L56.8004969,94.7626794 L94.8855976,94.7862927 L94.8855976,56.8791539 L56.8004969,56.8791539 L56.8004969,48 L27.9520604,48 Z" id="Path-7-Copy-6" stroke="#0F4CAD" fill="#FFFFFF" transform="translate(51.8911, 76.4076) rotate(180) translate(-51.8911, -76.4076)"></path>
            <path d="M105.021647,0 C105.021647,6.72857418 105.021647,10.0928613 105.021647,10.0928613 C105.021647,10.0928613 98.681098,10.0928613 86,10.0928613 L86,47.9763867 L105.021647,47.9763867 L105.021647,58.028837 L133.982655,58.028837 L133.982655,48 L171.9762,47.9763867 L171.9762,10.0928613 L133.982655,10.0928613 L133.982655,0 L105.021647,0 Z" id="Path-7-Copy" stroke="#0F4CAD" fill="#FFFFFF"></path>
            <path d="M105.021647,96 C105.021647,101.957044 105.021647,104.935566 105.021647,104.935566 C105.021647,104.935566 98.6731648,104.935566 85.9762004,104.935566 L86,143.976387 L105.021647,143.976387 L105.021647,153.016664 L133.912804,153.016664 L133.912804,143.976387 L171.9762,143.976387 L172,105.060301 L133.913824,105.070488 L133.913824,96 L105.021647,96 Z" id="Path-7-Copy-4" stroke="#0F4CAD" fill="#FFFFFF"></path>
            <path d="M113.954516,48 C113.954516,54.0896747 113.954516,57.134512 113.954516,57.134512 C113.954516,57.134512 107.59821,57.134512 94.8855976,57.134512 L94.8855976,95.0180375 L113.954516,95.0416507 L113.954516,105.070488 L142.023037,105.070488 L142.023037,95.0180375 L147.839149,95.0215564 L181.051264,95.0416507 L181.051264,57.0704877 L145.83715,57.0704877 L142.023037,57.0704877 L142.023037,48 L113.954516,48 Z" id="Path-7-Copy-7" stroke="#0F4CAD" fill="#FFFFFF" transform="translate(137.9684, 76.5352) rotate(180) translate(-137.9684, -76.5352)"></path>
            <path d="M191.021647,0 C191.021647,6.72857418 191.021647,10.0928613 191.021647,10.0928613 C191.021647,10.0928613 184.681098,10.0928613 172,10.0928613 L172,47.9763867 L191.021647,47.9763867 L191.021647,58.028837 L219.864854,58.028837 L219.864854,47.9763867 L257.9762,47.9763867 L257.9762,10.0928613 L219.864854,10.0928613 L219.864854,0 L191.021647,0 Z" id="Path-7-Copy-2" stroke="#0F4CAD" fill="#FFFFFF"></path>
            <path d="M191.021647,96 C191.021647,102.040201 191.021647,105.060301 191.021647,105.060301 C191.021647,105.060301 184.681098,105.060301 172,105.060301 L172,143.976387 L191.021647,143.976387 L191.021647,153.166699 L219.931417,153.166699 L219.931417,143.976387 L220.642447,143.976387 L257.9762,143.976387 L257.9762,105.060301 L219.966878,105.060301 L219.966878,96 L191.021647,96 Z" id="Path-7-Copy-5" stroke="#0F4CAD" fill="#FFFFFF"></path>
            <path d="M200.006156,48 C200.006156,54.0828838 200.006156,57.1243258 200.006156,57.1243258 C200.006156,57.1243258 193.687859,57.1029843 181.051264,57.0603015 L181.051264,95.0078512 L200.006156,95.0314645 L200.006156,105.060301 L228.02114,105.060301 L228.02114,95.0078512 L266.936754,95.0314645 L266.936754,57.1243258 L232.502607,57.0676744 L228.02114,57.0603015 L228.02114,48 L200.006156,48 Z" id="Path-7-Copy-8" stroke="#0F4CAD" fill="#FFFFFF" transform="translate(223.994, 76.5302) rotate(180) translate(-223.994, -76.5302)"></path>
            <g id="Arrow" transform="translate(107.4351, 25.5284)">
                <line x1="2.61627907" y1="2.5" x2="42.3837209" y2="2.5" id="Line-6" stroke="#0F4CAD" stroke-linecap="square"></line>
                <g id="Group">
                    <line x1="2.61627907" y1="0.5" x2="2.61627907" y2="4.5" id="Line-7" stroke="#0F4CAD" stroke-linecap="square"></line>
                    <line x1="1.56976744" y1="1.5" x2="1.56976744" y2="3.5" id="Line-8" stroke="#0F4CAD" stroke-linecap="square"></line>
                    <rect id="Rectangle" fill="#0F4CAD" x="0" y="2" width="1.04651163" height="1"></rect>
                </g>
                <g id="Group-Copy" transform="translate(43.4302, 2.5) scale(-1, 1) translate(-43.4302, -2.5)translate(41.8605, 0)">
                    <line x1="2.61627907" y1="0.5" x2="2.61627907" y2="4.5" id="Line-7" stroke="#0F4CAD" stroke-linecap="square"></line>
                    <line x1="1.56976744" y1="1.5" x2="1.56976744" y2="3.5" id="Line-8" stroke="#0F4CAD" stroke-linecap="square"></line>
                    <rect id="Rectangle" fill="#0F4CAD" x="0" y="2" width="1.04651163" height="1"></rect>
                </g>
            </g>
        </g>
    </g>
</svg>