<?xml version="1.0" encoding="UTF-8"?>
<svg width="300px" height="209px" viewBox="0 0 300 209" version="1.1" xmlns="http://www.w3.org/2000/svg" xmlns:xlink="http://www.w3.org/1999/xlink">
    <title>lay001c@2x</title>
    <g id="lay001c" stroke="none" stroke-width="1" fill="none" fill-rule="evenodd">
        <rect fill="#FFFFFF" x="0" y="0" width="300" height="209"></rect>
        <rect id="Rectangle" fill="#E8EBFB" x="0" y="0" width="301" height="209"></rect>
        <g id="Group-11" transform="translate(20.511, 19.3673)">
            <path d="M47.9533601,0 L47.9533601,10.1165776 L0,10.1165776 L0,48.1753254 L47.9533601,48.1753254 L47.9533601,58.2598841 C67.2747185,58.2598841 76.9353977,58.2598841 76.9353977,58.2598841 C76.9353977,58.2598841 76.9353977,54.8983645 76.9353977,48.1753254 C83.624858,48.1753254 86.9695882,48.1753254 86.9695882,48.1753254 C86.9695882,48.1753254 86.9695882,35.4890761 86.9695882,10.1165776 L76.9353977,10.1165776 L76.9353977,0 L47.9533601,0 Z" id="Path-6" stroke="#0F4CAD" fill="#FFFFFF"></path>
            <path d="M47.9533601,96.2598841 L47.9533601,105.134532 L9.09494702e-13,105.134532 L9.09494702e-13,144.22031 L47.9533601,144.22031 L47.9533601,153.120792 C67.2747185,153.120792 76.9353977,153.120792 76.9353977,153.120792 C76.9353977,153.120792 76.9353977,150.153965 76.9353977,144.22031 C83.624858,144.22031 86.9695882,144.22031 86.9695882,144.22031 C86.9695882,144.22031 86.9797255,131.191718 87,105.134532 L76.9353977,105.079057 L76.9353977,96.2598841 L47.9533601,96.2598841 Z" id="Path-6-Copy-3" stroke="#0F4CAD" fill="#FFFFFF"></path>
            <path d="M47.9533601,48.2598841 L47.9533601,57.1505068 L9.09494702e-13,57.1505068 L9.09494702e-13,95.0394832 L47.9533601,95.0394832 L47.9533601,105.079057 C67.2747185,105.079057 76.9353977,105.079057 76.9353977,105.079057 C76.9353977,105.079057 76.9353977,101.732532 76.9353977,95.0394832 C83.624858,95.0394832 86.9695882,95.0394832 86.9695882,95.0394832 C86.9695882,95.0394832 86.9695882,82.4098244 86.9695882,57.1505068 L76.9353977,57.1505068 L76.9353977,48.2598841 L47.9533601,48.2598841 Z" id="Path-6-Copy-6" stroke="#0F4CAD" fill="#FFFFFF" transform="translate(43.4848, 76.6695) rotate(180) translate(-43.4848, -76.6695)"></path>
            <path d="M134.95336,0 L134.95336,10.1165776 L87,10.1165776 L87,48.1753254 L134.95336,48.1753254 L134.95336,58.2598841 C153.581254,58.2598841 162.895201,58.2598841 162.895201,58.2598841 C162.895201,58.2598841 162.895201,54.8983645 162.895201,48.1753254 C170.278126,48.1753254 173.969588,48.1753254 173.969588,48.1753254 C173.969588,48.1753254 173.969588,35.4890761 173.969588,10.1165776 L162.895201,10.1165776 L162.895201,0 L134.95336,0 Z" id="Path-6-Copy" stroke="#0F4CAD" fill="#FFFFFF"></path>
            <path d="M134.95336,96.2598841 L134.95336,105.079057 L87,105.079057 L87,144.22031 L134.95336,144.22031 L134.95336,153.282935 C153.586552,153.282935 162.903147,153.282935 162.903147,153.282935 C162.903147,153.282935 162.903147,150.26206 162.903147,144.22031 C169.634382,144.22031 173,144.22031 173,144.22031 C173,144.22031 173,131.173226 173,105.079057 L163.178752,105.079057 L163.178752,96.2598841 L134.95336,96.2598841 Z" id="Path-6-Copy-4" stroke="#0F4CAD" fill="#FFFFFF"></path>
            <path d="M135.271184,48.2598841 L135.271184,57.1505068 L87,57.079057 L87,95.079057 L135.271184,95.079057 L135.271184,105.079057 C154.435899,105.079057 164.018257,105.079057 164.018257,105.079057 C164.018257,105.079057 164.018257,101.745724 164.018257,95.079057 C170.006086,95.0526744 173,95.0394832 173,95.0394832 C173,95.0394832 173,82.4098244 173,57.1505068 L164.018257,57.1505068 L164.018257,48.2598841 L135.271184,48.2598841 Z" id="Path-6-Copy-7" stroke="#0F4CAD" fill="#FFFFFF" transform="translate(130, 76.6695) rotate(180) translate(-130, -76.6695)"></path>
            <path d="M220.95336,0 L220.95336,10.1165776 L173,10.1165776 L173,48.1753254 L220.95336,48.1753254 L220.95336,58.2598841 C240.274718,58.2598841 249.935398,58.2598841 249.935398,58.2598841 C249.935398,58.2598841 249.935398,54.8983645 249.935398,48.1753254 C256.008443,48.1753254 259.044966,48.1753254 259.044966,48.1753254 C259.044966,48.1753254 259.044966,35.4890761 259.044966,10.1165776 L249.935398,10.1165776 L249.935398,0 L220.95336,0 Z" id="Path-6-Copy-2" stroke="#0F4CAD" fill="#FFFFFF"></path>
            <path d="M220.95336,96.2598841 L220.95336,105.079057 L173,105.079057 L173,143.89114 L220.95336,144.22031 L220.95336,153.165104 C240.274718,153.165104 249.935398,153.165104 249.935398,153.165104 C249.935398,153.165104 249.935398,150.183506 249.935398,144.22031 C256.008443,144.000864 259.044966,143.89114 259.044966,143.89114 C259.044966,143.89114 259.044966,130.953779 259.044966,105.079057 L249.935398,105.079057 L249.935398,96.2598841 L220.95336,96.2598841 Z" id="Path-6-Copy-5" stroke="#0F4CAD" fill="#FFFFFF"></path>
            <path d="M220.983498,48.2598841 L220.983498,57.1505068 L173,57.1505068 L173,95.079057 L220.983498,95.079057 L220.983498,105.079057 C239.66835,105.079057 249.010775,105.079057 249.010775,105.079057 C249.010775,105.079057 249.010775,101.732532 249.010775,95.0394832 C255.700235,95.0658657 259.044966,95.079057 259.044966,95.079057 C259.044966,95.079057 259.044966,82.4362069 259.044966,57.1505068 L249.010775,57.1505068 L249.010775,48.2598841 L220.983498,48.2598841 Z" id="Path-6-Copy-8" stroke="#0F4CAD" fill="#FFFFFF" transform="translate(216.0225, 76.6695) rotate(180) translate(-216.0225, -76.6695)"></path>
            <g id="Arrow" transform="translate(108.489, 24.6327)">
                <line x1="2.61627907" y1="2.5" x2="42.3837209" y2="2.5" id="Line-6" stroke="#0F4CAD" stroke-linecap="square"></line>
                <g id="Group">
                    <line x1="2.61627907" y1="0.5" x2="2.61627907" y2="4.5" id="Line-7" stroke="#0F4CAD" stroke-linecap="square"></line>
                    <line x1="1.56976744" y1="1.5" x2="1.56976744" y2="3.5" id="Line-8" stroke="#0F4CAD" stroke-linecap="square"></line>
                    <rect id="Rectangle" fill="#0F4CAD" x="0" y="2" width="1.04651163" height="1"></rect>
                </g>
                <g id="Group-Copy" transform="translate(43.4302, 2.5) scale(-1, 1) translate(-43.4302, -2.5)translate(41.8605, 0)">
                    <line x1="2.61627907" y1="0.5" x2="2.61627907" y2="4.5" id="Line-7" stroke="#0F4CAD" stroke-linecap="square"></line>
                    <line x1="1.56976744" y1="1.5" x2="1.56976744" y2="3.5" id="Line-8" stroke="#0F4CAD" stroke-linecap="square"></line>
                    <rect id="Rectangle" fill="#0F4CAD" x="0" y="2" width="1.04651163" height="1"></rect>
                </g>
            </g>
        </g>
    </g>
</svg>