<?xml version="1.0" encoding="UTF-8"?>
<svg width="300px" height="209px" viewBox="0 0 300 209" version="1.1" xmlns="http://www.w3.org/2000/svg" xmlns:xlink="http://www.w3.org/1999/xlink">
    <title>lay001b@2x</title>
    <g id="lay001b" stroke="none" stroke-width="1" fill="none" fill-rule="evenodd">
        <rect fill="#FFFFFF" x="0" y="0" width="300" height="209"></rect>
        <rect id="Rectangle" fill="#E8EBFB" x="0" y="0" width="301" height="209"></rect>
        <g id="Group-10" transform="translate(17.4243, 17.422)">
            <polygon id="Path-5" stroke="#0F4CAD" fill="#FFFFFF" points="-5.01962425e-13 10.0522082 29.0914905 10.0522082 29.0914905 6.43231803e-17 58.0118047 0 58.0118047 10.0522082 87.1017868 10.0522082 87.1017868 58.1400442 58.0118047 58.1400442 58.0118047 48.1839036 29.0914905 48.1839036 29.0914905 58.1400442 0 58.1400442"></polygon>
            <polygon id="Path-5-Copy" stroke="#0F4CAD" fill="#FFFFFF" points="-5.01962425e-13 58.0522082 29.0914905 58.0522082 29.0914905 48 58.0118047 48 58.0118047 58.0522082 87.1017868 58.0522082 87.1017868 106.140044 58.0118047 106.140044 58.0118047 96.1839036 29.0914905 96.1839036 29.0914905 106.140044 0 106.140044"></polygon>
            <polygon id="Path-5-Copy-2" stroke="#0F4CAD" fill="#FFFFFF" points="-5.01962425e-13 106.052208 29.0914905 106.052208 29.0914905 96 58.0118047 96 58.0118047 106.052208 87.1017868 106.052208 87.1017868 154.140044 58.0118047 154.140044 58.0118047 144.183904 29.0914905 144.183904 29.0914905 154.140044 0 154.140044"></polygon>
            <polygon id="Path-5-Copy-3" stroke="#0F4CAD" fill="#FFFFFF" points="87.1017868 106.052208 115.091491 106.052208 115.091491 96 144.011805 96 144.011805 106.052208 173.101787 106.052208 173.101787 154.140044 144.011805 154.140044 144.011805 144.183904 115.091491 144.183904 115.091491 154.140044 87.1017868 154.140044 87.1017868 131.883915"></polygon>
            <polygon id="Path-5-Copy-4" stroke="#0F4CAD" fill="#FFFFFF" points="87.1017868 58.0522082 115.091491 58.0522082 115.091491 48 144.011805 48 144.011805 58.0522082 173.101787 58.0522082 173.101787 106.140044 144.011805 106.140044 144.011805 96.1839036 115.091491 96.1839036 115.091491 106.140044 87.1017868 106.140044 87.1017868 83.8839148"></polygon>
            <polygon id="Path-5-Copy-5" stroke="#0F4CAD" fill="#FFFFFF" points="87.1017868 10.0522082 115.091491 10.0522082 115.091491 6.43231803e-17 144.011805 0 144.011805 10.0522082 173.101787 10.0522082 173.101787 58.1400442 144.011805 58.1400442 144.011805 48.1839036 115.091491 48.1839036 115.091491 58.1400442 87.1017868 58.1400442 87.1017868 35.8839148"></polygon>
            <polygon id="Path-5-Copy-6" stroke="#0F4CAD" fill="#FFFFFF" points="173.101787 10.0522082 202.015178 10.0522082 202.015178 -4.15817257e-14 230.011805 0 230.011805 10.0522082 259.101787 10.0522082 259.101787 58.1400442 230.011805 58.1400442 230.011805 48.1839036 202.015178 48 202.015178 58.1400442 173.101787 58.1400442 173.101787 35.8839148"></polygon>
            <polygon id="Path-5-Copy-7" stroke="#0F4CAD" fill="#FFFFFF" points="173.101787 58.0522082 202.015178 58.0522082 202.015178 48 230.011805 48 230.011805 58.0522082 259.101787 58.0522082 259.101787 106.140044 230.011805 106.140044 230.011805 96.1839036 202.015178 96.1839036 202.015178 106.140044 173.101787 106.140044 173.101787 83.8839148"></polygon>
            <polygon id="Path-5-Copy-8" stroke="#0F4CAD" fill="#FFFFFF" points="173.101787 106.052208 202.015178 106.140044 202.015178 96 230.011805 96 230.011805 106.052208 259.101787 106.052208 259.101787 154.140044 230.011805 154.140044 230.011805 144.183904 202.015178 144.183904 202.015178 154.140044 173.101787 154.140044 173.101787 131.883915"></polygon>
            <g id="Arrow" transform="translate(108.5757, 26.578)">
                <line x1="2.61627907" y1="2.5" x2="42.3837209" y2="2.5" id="Line-6" stroke="#0F4CAD" stroke-linecap="square"></line>
                <g id="Group">
                    <line x1="2.61627907" y1="0.5" x2="2.61627907" y2="4.5" id="Line-7" stroke="#0F4CAD" stroke-linecap="square"></line>
                    <line x1="1.56976744" y1="1.5" x2="1.56976744" y2="3.5" id="Line-8" stroke="#0F4CAD" stroke-linecap="square"></line>
                    <rect id="Rectangle" fill="#0F4CAD" x="0" y="2" width="1.04651163" height="1"></rect>
                </g>
                <g id="Group-Copy" transform="translate(43.4302, 2.5) scale(-1, 1) translate(-43.4302, -2.5)translate(41.8605, 0)">
                    <line x1="2.61627907" y1="0.5" x2="2.61627907" y2="4.5" id="Line-7" stroke="#0F4CAD" stroke-linecap="square"></line>
                    <line x1="1.56976744" y1="1.5" x2="1.56976744" y2="3.5" id="Line-8" stroke="#0F4CAD" stroke-linecap="square"></line>
                    <rect id="Rectangle" fill="#0F4CAD" x="0" y="2" width="1.04651163" height="1"></rect>
                </g>
            </g>
        </g>
    </g>
</svg>