<?xml version="1.0" encoding="UTF-8"?>
<svg width="48px" height="48px" viewBox="0 0 48 48" version="1.1" xmlns="http://www.w3.org/2000/svg" xmlns:xlink="http://www.w3.org/1999/xlink">
    <title>icon/header/pop out</title>
    <defs>
        <path d="M9.33333335,6.48325 L9.33333335,10.3333334 C9.33333335,10.885625 8.88562502,11.3333334 8.33333335,11.3333334 L0.999999962,11.3333334 C0.447708299,11.3333334 -3.75000004e-08,10.885625 -3.75000004e-08,10.3333334 L-3.75000004e-08,2.99999997 C-3.75000004e-08,2.44770831 0.447708299,1.99999997 0.999999962,1.99999997 L6.16666667,1.99999997 C6.29926954,1.99999997 6.42644153,2.0526755 6.52020834,2.14643748 L6.85354167,2.47977081 C7.16854167,2.79477081 6.94545834,3.33333332 6.49999996,3.33333332 L1.3333333,3.33333332 L1.3333333,9.99999997 L7.99999996,9.99999997 L7.99999996,6.81658334 C7.99999996,6.68397917 8.05268751,6.55679167 8.14643751,6.46302084 L8.47977085,6.1296875 C8.79475002,5.81470833 9.33333335,6.03779167 9.33333335,6.48325 Z M12.0000018,1.44443747 C12.0000018,1.0148958 11.6517709,0.666666633 11.2222292,0.666666633 L7.91666668,0.666666633 C7.59450001,0.666666633 7.33333334,0.927833302 7.33333334,1.24999997 L7.33333334,1.62260414 C7.33333334,1.95106247 7.60439584,2.21477081 7.93275001,2.20570831 L9.33281252,2.16599998 L4.14770832,7.31437501 C3.95127082,7.50943751 3.95068749,7.82697918 4.14643749,8.02272918 L4.64391666,8.52020835 C4.83966666,8.71595835 5.15722916,8.71539585 5.35227083,8.51895835 L10.5006459,3.33385415 L10.4609375,4.73391666 C10.4518959,5.06224999 10.7156042,5.33333333 11.0440625,5.33333333 L11.4166667,5.33333333 C11.7388334,5.33333333 12.0000018,5.07216666 12.0000018,4.74999999 L12.0000018,1.44443747 Z" id="path-1"></path>
    </defs>
    <g id="icon/header/pop-out" stroke="none" stroke-width="1" fill="none" fill-rule="evenodd">
        <rect id="Rectangle-3" x="0" y="0" width="48" height="48"></rect>
        <g id="external-link" transform="translate(18.000000, 18.000000)">
            <mask id="mask-2" fill="white">
                <use xlink:href="#path-1"></use>
            </mask>
            <g fill-rule="nonzero"></g>
            <g id="colors/tint-bg-grey04" mask="url(#mask-2)" fill="#90A4AE" fill-rule="evenodd">
                <rect id="Rectangle-14" x="0" y="0" width="12" height="12"></rect>
            </g>
        </g>
        <path d="M24,36 C17.3768533,36 12,30.6231467 12,24 C12,17.3768533 17.3768533,12 24,12 C30.6235733,12 36,17.3768533 36,24 C36,30.6231467 30.62528,36 24,36 L24,36 Z" id="Fill-1" stroke="#90A4AE"></path>
    </g>
</svg>