<?xml version="1.0" encoding="UTF-8"?>
<svg width="512px" height="22px" viewBox="0 0 512 22" version="1.1" xmlns="http://www.w3.org/2000/svg" xmlns:xlink="http://www.w3.org/1999/xlink">
    <title>language_sprite</title>
    <g id="Page-1" stroke="none" stroke-width="1" fill="none" fill-rule="evenodd">
        <g id="language_sprite" transform="translate(0.000000, 0.517000)" fill-rule="nonzero">
            <g id="icon-italy" transform="translate(0.000000, 0.000000)">
                <path d="M10.667,20.966 L0.552,20.966 C0.247,20.966 -4.4408921e-16,20.719 -4.4408921e-16,20.414 L-4.4408921e-16,0.552 C-4.4408921e-16,0.247 0.247,5.32907052e-15 0.552,5.32907052e-15 L10.667,5.32907052e-15 L10.667,20.966 L10.667,20.966 Z" id="Path" fill="#73AF00"></path>
                <polygon id="Path" fill="#F5F5F5" points="10.667 2.66453526e-15 21.334 2.66453526e-15 21.334 20.966 10.667 20.966"></polygon>
                <path d="M31.448,20.966 L21.333,20.966 L21.333,0.001 L31.448,0.001 C31.753,0.001 32,0.248 32,0.553 L32,20.415 C32,20.72 31.753,20.967 31.448,20.967 L31.448,20.966 Z" id="Path" fill="#FF4B55"></path>
            </g>
            <g id="icon-china" transform="translate(48.000000, 0.000000)">
                <path d="M31.448,20.966 L0.552,20.966 C0.247,20.966 0,20.719 0,20.414 L0,0.552 C0,0.247 0.247,1.77635684e-15 0.552,1.77635684e-15 L31.448,1.77635684e-15 C31.753,1.77635684e-15 32,0.247 32,0.552 L32,20.414 C32,20.719 31.753,20.966 31.448,20.966 Z" id="Path" fill="#FF4B55"></path>
                <path d="M5.313,3.279 L5.839,4.856 L7.501,4.869 C7.716,4.871 7.805,5.145 7.632,5.273 L6.295,6.261 L6.796,7.846 C6.861,8.051 6.627,8.221 6.452,8.096 L5.099,7.129 L3.746,8.096 C3.571,8.221 3.337,8.051 3.402,7.846 L3.903,6.261 L2.566,5.273 C2.393,5.145 2.482,4.87 2.697,4.869 L4.359,4.856 L4.885,3.279 C4.953,3.075 5.242,3.075 5.31,3.279 L5.313,3.279 Z" id="Path" fill="#FFE15A"></path>
                <path d="M11.35,3.667 L11.727,4.181 L12.336,3.991 C12.415,3.966 12.48,4.056 12.431,4.123 L12.058,4.641 L12.427,5.161 C12.475,5.228 12.409,5.318 12.331,5.293 L11.724,5.099 L11.343,5.611 C11.294,5.677 11.188,5.643 11.188,5.56 L11.185,4.922 L10.581,4.718 C10.503,4.692 10.503,4.581 10.582,4.555 L11.188,4.355 L11.195,3.717 C11.196,3.635 11.301,3.601 11.35,3.667 L11.35,3.667 Z" id="Path" fill="#FFE15A"></path>
                <path d="M9.054,2.134 L9.688,2.203 L9.959,1.625 C9.994,1.55 10.104,1.563 10.121,1.644 L10.251,2.268 L10.884,2.347 C10.966,2.357 10.988,2.466 10.916,2.507 L10.363,2.824 L10.484,3.45 C10.5,3.531 10.403,3.585 10.342,3.53 L9.87,3.102 L9.312,3.41 C9.24,3.45 9.158,3.375 9.192,3.299 L9.453,2.717 L8.987,2.281 C8.927,2.225 8.973,2.124 9.055,2.133 L9.054,2.134 Z" id="Path" fill="#FFE15A"></path>
                <path d="M10.056,8.315 L9.679,8.829 L9.07,8.639 C8.991,8.614 8.926,8.704 8.975,8.771 L9.348,9.289 L8.979,9.809 C8.931,9.876 8.997,9.966 9.075,9.941 L9.682,9.747 L10.063,10.259 C10.112,10.325 10.218,10.291 10.218,10.208 L10.221,9.57 L10.825,9.366 C10.903,9.34 10.903,9.229 10.824,9.203 L10.218,9.003 L10.211,8.365 C10.21,8.283 10.105,8.249 10.056,8.315 L10.056,8.315 Z" id="Path" fill="#FFE15A"></path>
                <path d="M12.352,6.874 L11.718,6.943 L11.447,6.365 C11.412,6.29 11.302,6.303 11.285,6.384 L11.155,7.008 L10.522,7.087 C10.44,7.097 10.418,7.206 10.49,7.247 L11.043,7.564 L10.922,8.19 C10.906,8.271 11.003,8.325 11.064,8.27 L11.536,7.842 L12.094,8.15 C12.166,8.19 12.248,8.115 12.214,8.039 L11.953,7.457 L12.419,7.021 C12.479,6.965 12.433,6.864 12.351,6.873 L12.352,6.874 Z" id="Path" fill="#FFE15A"></path>
            </g>
            <g id="icon-spain" transform="translate(96.000000, 0.000000)">
                <path d="M0.552,20.966 L31.448,20.966 C31.753,20.966 32,20.719 32,20.414 L32,0.552 C32,0.247 31.753,1.77635684e-15 31.448,1.77635684e-15 L0.552,1.77635684e-15 C0.247,1.77635684e-15 0,0.247 0,0.552 L0,20.414 C0,20.719 0.247,20.966 0.552,20.966 Z" id="Path" fill="#C8414B"></path>
                <polygon id="Path" fill="#FFD250" points="0 4.414 32 4.414 32 16.552 0 16.552"></polygon>
                <path d="M13.517,10.483 L13.985,8.378 C14.028,8.184 13.881,8 13.682,8 L13.353,8 C13.154,8 13.007,8.184 13.05,8.378 L13.518,10.483 L13.517,10.483 Z" id="Path" fill="#C8414B"></path>
                <polygon id="Path" fill="#F5F5F5" points="12.966 9.379 14.069 9.379 14.069 14.068 12.966 14.068"></polygon>
                <polygon id="Path" fill="#FAB446" points="12.689 8.828 14.344 8.828 14.344 9.38 12.689 9.38"></polygon>
                <polygon id="Path" fill="#C8414B" points="11.586 10.483 14.345 10.483 14.345 11.035 11.586 11.035"></polygon>
                <polygon id="Path" fill="#C8414B" points="14.345 12.69 12.69 12.138 12.69 11.586 14.345 12.138"></polygon>
                <path d="M5.241,10.483 L5.709,8.378 C5.752,8.184 5.605,8 5.406,8 L5.076,8 C4.877,8 4.73,8.184 4.773,8.378 L5.241,10.483 Z" id="Path" fill="#C8414B"></path>
                <path d="M7.172,8.828 C6.867,8.828 6.62,9.075 6.62,9.38 L6.62,12.966 C6.62,13.636 7.246,14.897 9.379,14.897 C11.512,14.897 12.138,13.636 12.138,12.966 L12.138,9.38 C12.138,9.075 11.891,8.828 11.586,8.828 L7.172,8.828 Z" id="Path" fill="#F5F5F5"></path>
                <path d="M9.379,11.586 L6.62,11.586 L6.62,9.379 C6.62,9.074 6.867,8.827 7.172,8.827 L9.379,8.827 L9.379,11.586 L9.379,11.586 Z" id="Path" fill="#C8414B"></path>
                <path d="M9.379,11.586 L12.138,11.586 L12.138,12.965 C12.138,13.727 11.521,14.344 10.759,14.344 L10.759,14.344 C9.997,14.344 9.38,13.727 9.38,12.965 L9.38,11.586 L9.379,11.586 Z" id="Path" fill="#C8414B"></path>
                <path d="M6.621,11.586 L9.38,11.586 L9.38,12.965 C9.38,13.727 8.763,14.344 8.001,14.344 L8.001,14.344 C7.239,14.344 6.622,13.727 6.622,12.965 L6.622,11.586 L6.621,11.586 Z" id="Path" fill="#FAB446"></path>
                <path d="M8.828,14.063 L8.828,11.586 L8.276,11.586 L8.276,14.317 C8.481,14.275 8.667,14.184 8.828,14.063 L8.828,14.063 Z" id="Path" fill="#C8414B"></path>
                <path d="M7.724,14.317 L7.724,11.586 L7.172,11.586 L7.172,14.063 C7.333,14.185 7.519,14.276 7.724,14.317 L7.724,14.317 Z" id="Path" fill="#C8414B"></path>
                <polygon id="Path" fill="#FFB441" points="7.173 10.483 8.828 10.483 8.828 11.035 7.173 11.035 7.173 10.483"></polygon>
                <polygon id="Path" fill="#FAB446" points="7.173 9.379 8.828 9.379 8.828 9.931 7.173 9.931 7.173 9.379"></polygon>
                <polygon id="Path" fill="#FAB446" points="7.448 9.707 8.551 9.707 8.551 10.706 7.448 10.706 7.448 9.707"></polygon>
                <polygon id="Path" fill="#F5F5F5" points="4.689 9.379 5.792 9.379 5.792 14.068 4.689 14.068"></polygon>
                <polygon id="Path" fill="#FAB446" points="4.414 13.794 6.069 13.794 6.069 14.346 4.414 14.346"></polygon>
                <polygon id="Path" fill="#FAB446" points="4.414 8.828 6.069 8.828 6.069 9.38 4.414 9.38"></polygon>
                <polygon id="Path" fill="#5064AA" points="4.138 14.345 6.345 14.345 6.345 14.897 4.138 14.897"></polygon>
                <polygon id="Path" fill="#FAB446" points="12.966 13.794 14.621 13.794 14.621 14.346 12.966 14.346"></polygon>
                <polygon id="Path" fill="#5064AA" points="12.414 14.345 14.621 14.345 14.621 14.897 12.414 14.897 12.414 14.345"></polygon>
                <polygon id="Path" fill="#FAB446" points="7.724 8.276 11.034 8.276 11.034 8.828 7.724 8.828"></polygon>
                <polygon id="Path" fill="#FFB441" points="9.104 6.621 9.656 6.621 9.656 8.276 9.104 8.276"></polygon>
                <path d="M8.828,7.449 C8.372,7.449 8,7.078 8,6.621 C8,6.164 8.371,5.793 8.828,5.793 C9.284,5.793 9.656,6.164 9.656,6.621 C9.656,7.078 9.285,7.449 8.828,7.449 Z M8.828,6.345 C8.676,6.345 8.552,6.469 8.552,6.621 C8.552,6.773 8.676,6.897 8.828,6.897 C8.98,6.897 9.104,6.773 9.104,6.621 C9.104,6.469 8.98,6.345 8.828,6.345 Z" id="Shape" fill="#F5F5F5"></path>
                <path d="M9.931,7.449 C9.475,7.449 9.103,7.078 9.103,6.621 C9.103,6.164 9.474,5.793 9.931,5.793 C10.387,5.793 10.759,6.164 10.759,6.621 C10.759,7.078 10.388,7.449 9.931,7.449 Z M9.931,6.345 C9.779,6.345 9.655,6.469 9.655,6.621 C9.655,6.773 9.779,6.897 9.931,6.897 C10.083,6.897 10.207,6.773 10.207,6.621 C10.207,6.469 10.083,6.345 9.931,6.345 Z" id="Shape" fill="#F5F5F5"></path>
                <path d="M11.034,8 C10.578,8 10.206,7.629 10.206,7.172 C10.206,6.715 10.577,6.344 11.034,6.344 C11.49,6.344 11.862,6.715 11.862,7.172 C11.862,7.629 11.491,8 11.034,8 Z M11.034,6.897 C10.882,6.897 10.758,7.021 10.758,7.173 C10.758,7.325 10.882,7.449 11.034,7.449 C11.186,7.449 11.31,7.325 11.31,7.173 C11.31,7.021 11.186,6.897 11.034,6.897 Z" id="Shape" fill="#F5F5F5"></path>
                <path d="M7.724,8 C7.268,8 6.896,7.629 6.896,7.172 C6.896,6.715 7.267,6.344 7.724,6.344 C8.18,6.344 8.552,6.715 8.552,7.172 C8.552,7.629 8.181,8 7.724,8 L7.724,8 Z M7.724,6.897 C7.572,6.897 7.448,7.021 7.448,7.173 C7.448,7.325 7.572,7.449 7.724,7.449 C7.876,7.449 8,7.325 8,7.173 C8,7.021 7.876,6.897 7.724,6.897 Z" id="Shape" fill="#F5F5F5"></path>
                <path d="M11.034,12.69 L11.034,12.966 C11.034,13.118 10.91,13.242 10.758,13.242 C10.606,13.242 10.482,13.118 10.482,12.966 L10.482,12.69 L11.034,12.69 Z M11.586,12.138 L9.931,12.138 L9.931,12.966 C9.931,13.422 10.302,13.794 10.759,13.794 C11.216,13.794 11.587,13.423 11.587,12.966 L11.587,12.138 L11.587,12.138 L11.586,12.138 Z" id="Shape" fill="#FAB446"></path>
                <path d="M10.759,11.035 L10.759,11.035 C10.454,11.035 10.207,10.788 10.207,10.483 L10.207,9.931 C10.207,9.626 10.454,9.379 10.759,9.379 L10.759,9.379 C11.064,9.379 11.311,9.626 11.311,9.931 L11.311,10.483 C11.311,10.788 11.064,11.035 10.759,11.035 Z" id="Path" fill="#FFA0D2"></path>
                <path d="M10.207,11.586 C10.207,12.043 9.837,12.414 9.379,12.414 C8.921,12.414 8.551,12.044 8.551,11.586 C8.551,11.129 8.921,10.758 9.379,10.758 C9.837,10.758 10.207,11.128 10.207,11.586 Z" id="Path" fill="#5064AA"></path>
                <polygon id="Path" fill="#FAB446" points="9.104 5.517 9.656 5.517 9.656 7.172 9.104 7.172"></polygon>
                <path d="M7.724,8.276 L7.172,7.724 L7.495,7.401 C7.995,6.901 8.672,6.621 9.379,6.621 L9.379,6.621 C10.086,6.621 10.763,6.902 11.263,7.401 L11.586,7.724 L11.034,8.276 L7.724,8.276 L7.724,8.276 Z" id="Path" fill="#C8414B"></path>
                <path d="M9.655,7.724 C9.655,7.876 9.532,8 9.379,8 C9.226,8 9.103,7.877 9.103,7.724 C9.103,7.572 9.226,7.448 9.379,7.448 C9.532,7.448 9.655,7.571 9.655,7.724 Z" id="Path" fill="#FFD250"></path>
                <path d="M8.551,7.724 C8.551,7.876 8.428,8 8.275,8 C8.122,8 7.999,7.877 7.999,7.724 C7.999,7.572 8.123,7.448 8.275,7.448 C8.427,7.448 8.551,7.571 8.551,7.724 Z" id="Path" fill="#FFD250"></path>
                <path d="M10.758,7.724 C10.758,7.876 10.635,8 10.482,8 C10.329,8 10.206,7.877 10.206,7.724 C10.206,7.572 10.329,7.448 10.482,7.448 C10.635,7.448 10.758,7.571 10.758,7.724 Z" id="Path" fill="#FFD250"></path>
                <polygon id="Path" fill="#C8414B" points="4.414 10.483 7.173 10.483 7.173 11.035 4.414 11.035"></polygon>
                <polygon id="Path" fill="#C8414B" points="4.414 12.69 6.069 12.138 6.069 11.586 4.414 12.138"></polygon>
            </g>
            <g id="icon-germany" transform="translate(144.000000, 0.000000)">
                <path d="M32,6.989 L0,6.989 L0,0.552 C0,0.247 0.247,0 0.552,0 L31.448,0 C31.753,0 32,0.247 32,0.552 L32,6.989 Z" id="Path" fill="#464655"></path>
                <path d="M31.448,20.966 L0.552,20.966 C0.247,20.966 0,20.719 0,20.414 L0,13.977 L32,13.977 L32,20.414 C32,20.719 31.753,20.966 31.448,20.966 Z" id="Path" fill="#FFE15A"></path>
                <polygon id="Path" fill="#FF4B55" points="0 6.989 32 6.989 32 13.977 0 13.977"></polygon>
            </g>
            <g id="icon-france" transform="translate(192.000000, 0.000000)">
                <path d="M10.667,20.966 L0.552,20.966 C0.247,20.966 0,20.719 0,20.414 L0,0.552 C0,0.247 0.247,5.32907052e-15 0.552,5.32907052e-15 L10.667,5.32907052e-15 L10.667,20.966 L10.667,20.966 Z" id="Path" fill="#41479B"></path>
                <polygon id="Path" fill="#F5F5F5" points="10.667 2.66453526e-15 21.334 2.66453526e-15 21.334 20.966 10.667 20.966"></polygon>
                <path d="M31.448,20.966 L21.333,20.966 L21.333,0.001 L31.448,0.001 C31.753,0.001 32,0.248 32,0.553 L32,20.415 C32,20.72 31.753,20.967 31.448,20.967 L31.448,20.966 Z" id="Path" fill="#FF4B55"></path>
            </g>
            <g id="icon-poland" transform="translate(240.000000, 0.000000)">
                <path d="M0,10.483 L32,10.483 L32,20.414 C32,20.719 31.753,20.966 31.448,20.966 L0.552,20.966 C0.247,20.966 0,20.719 0,20.414 L0,10.483 Z" id="Path" fill="#FF4B55"></path>
                <path d="M32,10.483 L0,10.483 L0,0.552 C0,0.247 0.247,-1.77635684e-15 0.552,-1.77635684e-15 L31.448,-1.77635684e-15 C31.753,-1.77635684e-15 32,0.247 32,0.552 L32,10.483 Z" id="Path" fill="#F5F5F5"></path>
            </g>
            <g id="icon-russian" transform="translate(432.000000, 0.000000)">
                <path d="M0,10.483 L32,10.483 L32,20.414 C32,20.719 31.753,20.966 31.448,20.966 L0.552,20.966 C0.247,20.966 0,20.719 0,20.414 L0,10.483 Z" id="Path" fill="#CF2A1E"></path>
                <path d="M32,10.483 L0,10.483 L0,0.552 C0,0.247 0.247,0 0.552,0 L31.448,0 C31.753,0 32,0.247 32,0.552 L32,10.483 Z" id="Path" fill="#0137A1"></path>
            </g>
            <g id="icon-russian-copy" transform="translate(480.000000, 0.000000)">
                <path d="M0,10.483 L32,10.483 L32,20.414 C32,20.719 31.753,20.966 31.448,20.966 L0.552,20.966 C0.247,20.966 0,20.719 0,20.414 L0,10.483 Z" id="Path" fill="#F6CF02"></path>
                <path d="M32,10.483 L0,10.483 L0,0.552 C0,0.247 0.247,8.8817842e-16 0.552,8.8817842e-16 L31.448,8.8817842e-16 C31.753,8.8817842e-16 32,0.247 32,0.552 L32,10.483 Z" id="Path" fill="#0258B5"></path>
            </g>
            <g id="icon-united-states" transform="translate(288.000000, 0.000000)">
                <path d="M31.448,20.966 L0.552,20.966 C0.247,20.966 0,20.719 0,20.414 L0,0.552 C0,0.247 0.247,3.55271368e-15 0.552,3.55271368e-15 L31.448,3.55271368e-15 C31.753,3.55271368e-15 32,0.247 32,0.552 L32,20.414 C32,20.719 31.753,20.966 31.448,20.966 Z" id="Path" fill="#F5F5F5"></path>
                <path d="M32,1.613 L0,1.613 L0,0.552 C0,0.247 0.247,0 0.552,0 L31.448,0 C31.753,0 32,0.247 32,0.552 L32,1.613 L32,1.613 Z" id="Path" fill="#FF4B55"></path>
                <polygon id="Path" fill="#FF4B55" points="0 6.451 32 6.451 32 8.064 0 8.064"></polygon>
                <polygon id="Path" fill="#FF4B55" points="0 3.226 32 3.226 32 4.839 0 4.839"></polygon>
                <path d="M32,11.289 L0.552,11.289 C0.247,11.289 0,11.042 0,10.737 L0,9.676 L32,9.676 L32,11.289 Z" id="Path" fill="#FF4B55"></path>
                <polygon id="Path" fill="#FF4B55" points="0 16.128 32 16.128 32 17.741 0 17.741"></polygon>
                <path d="M31.448,20.966 L0.552,20.966 C0.247,20.966 0,20.719 0,20.414 L0,19.353 L32,19.353 L32,20.414 C32,20.719 31.753,20.966 31.448,20.966 Z" id="Path" fill="#FF4B55"></path>
                <polygon id="Path" fill="#FF4B55" points="0 12.902 32 12.902 32 14.515 0 14.515"></polygon>
                <path d="M14.345,8.8817842e-16 L0.552,8.8817842e-16 C0.247,8.8817842e-16 0,0.247 0,0.552 L0,10.738 C0,11.043 0.247,11.29 0.552,11.29 L14.345,11.29 C14.65,11.29 14.897,11.043 14.897,10.738 L14.897,0.552 C14.897,0.247 14.65,8.8817842e-16 14.345,8.8817842e-16 L14.345,8.8817842e-16 Z" id="Path" fill="#41479B"></path>
                <path d="M1.549,1.267 L1.671,1.633 L2.057,1.636 C2.107,1.636 2.128,1.7 2.087,1.73 L1.776,1.959 L1.893,2.327 C1.908,2.375 1.854,2.414 1.813,2.385 L1.499,2.161 L1.185,2.385 C1.144,2.414 1.09,2.375 1.105,2.327 L1.222,1.959 L0.911,1.73 C0.871,1.7 0.892,1.637 0.941,1.636 L1.327,1.633 L1.449,1.267 C1.465,1.219 1.532,1.219 1.548,1.267 L1.549,1.267 Z" id="Path" fill="#F5F5F5"></path>
                <path d="M1.549,3.182 L1.671,3.548 L2.057,3.551 C2.107,3.551 2.128,3.615 2.087,3.645 L1.776,3.874 L1.893,4.242 C1.908,4.29 1.854,4.329 1.813,4.3 L1.499,4.076 L1.185,4.301 C1.144,4.33 1.09,4.291 1.105,4.243 L1.222,3.875 L0.911,3.646 C0.871,3.616 0.892,3.553 0.941,3.552 L1.327,3.549 L1.449,3.183 C1.465,3.136 1.532,3.136 1.548,3.183 L1.549,3.182 Z" id="Path" fill="#F5F5F5"></path>
                <path d="M1.549,5.098 L1.671,5.464 L2.057,5.467 C2.107,5.467 2.128,5.531 2.087,5.561 L1.776,5.79 L1.893,6.158 C1.908,6.206 1.854,6.245 1.813,6.216 L1.499,5.992 L1.185,6.217 C1.144,6.246 1.09,6.207 1.105,6.159 L1.222,5.791 L0.911,5.562 C0.871,5.532 0.892,5.469 0.941,5.468 L1.327,5.465 L1.449,5.099 C1.465,5.052 1.532,5.052 1.548,5.099 L1.549,5.098 Z" id="Path" fill="#F5F5F5"></path>
                <path d="M1.549,7.014 L1.671,7.38 L2.057,7.383 C2.107,7.383 2.128,7.447 2.087,7.477 L1.776,7.706 L1.893,8.074 C1.908,8.122 1.854,8.161 1.813,8.132 L1.499,7.908 L1.185,8.133 C1.144,8.162 1.09,8.123 1.105,8.075 L1.222,7.707 L0.911,7.478 C0.871,7.448 0.892,7.385 0.941,7.384 L1.327,7.381 L1.449,7.015 C1.465,6.968 1.532,6.968 1.548,7.015 L1.549,7.014 Z" id="Path" fill="#F5F5F5"></path>
                <path d="M1.549,8.93 L1.671,9.296 L2.057,9.299 C2.107,9.299 2.128,9.363 2.087,9.393 L1.776,9.622 L1.893,9.99 C1.908,10.038 1.854,10.077 1.813,10.048 L1.499,9.824 L1.185,10.049 C1.144,10.078 1.09,10.039 1.105,9.991 L1.222,9.623 L0.911,9.394 C0.871,9.364 0.892,9.301 0.941,9.3 L1.327,9.297 L1.449,8.931 C1.465,8.883 1.532,8.883 1.548,8.931 L1.549,8.93 Z" id="Path" fill="#F5F5F5"></path>
                <path d="M3.036,2.206 L3.158,2.572 L3.544,2.575 C3.594,2.575 3.615,2.639 3.574,2.669 L3.263,2.898 L3.379,3.266 C3.394,3.314 3.34,3.353 3.299,3.324 L2.985,3.099 L2.671,3.324 C2.63,3.353 2.576,3.314 2.591,3.266 L2.707,2.898 L2.396,2.669 C2.356,2.639 2.377,2.576 2.426,2.575 L2.812,2.572 L2.934,2.206 C2.95,2.159 3.017,2.159 3.033,2.206 L3.036,2.206 Z" id="Path" fill="#F5F5F5"></path>
                <path d="M3.036,4.122 L3.158,4.488 L3.544,4.491 C3.594,4.491 3.615,4.555 3.574,4.585 L3.263,4.814 L3.379,5.182 C3.394,5.23 3.34,5.269 3.299,5.24 L2.985,5.015 L2.671,5.24 C2.63,5.269 2.576,5.23 2.591,5.182 L2.707,4.814 L2.396,4.585 C2.356,4.555 2.377,4.492 2.426,4.491 L2.812,4.488 L2.934,4.122 C2.95,4.075 3.017,4.075 3.033,4.122 L3.036,4.122 Z" id="Path" fill="#F5F5F5"></path>
                <path d="M3.036,6.038 L3.158,6.404 L3.544,6.407 C3.594,6.407 3.615,6.471 3.574,6.501 L3.263,6.73 L3.379,7.098 C3.394,7.146 3.34,7.185 3.299,7.156 L2.985,6.931 L2.671,7.156 C2.63,7.185 2.576,7.146 2.591,7.098 L2.707,6.73 L2.396,6.501 C2.356,6.471 2.377,6.408 2.426,6.407 L2.812,6.404 L2.934,6.038 C2.95,5.991 3.017,5.991 3.033,6.038 L3.036,6.038 Z" id="Path" fill="#F5F5F5"></path>
                <path d="M3.036,7.954 L3.158,8.32 L3.544,8.323 C3.594,8.323 3.615,8.387 3.574,8.417 L3.263,8.646 L3.379,9.014 C3.394,9.062 3.34,9.101 3.299,9.072 L2.985,8.847 L2.671,9.072 C2.63,9.101 2.576,9.062 2.591,9.014 L2.707,8.646 L2.396,8.417 C2.356,8.387 2.377,8.324 2.426,8.323 L2.812,8.32 L2.934,7.954 C2.95,7.907 3.017,7.907 3.033,7.954 L3.036,7.954 Z" id="Path" fill="#F5F5F5"></path>
                <path d="M4.523,1.267 L4.645,1.633 L5.031,1.636 C5.081,1.636 5.102,1.7 5.061,1.73 L4.75,1.959 L4.867,2.327 C4.882,2.375 4.828,2.414 4.787,2.385 L4.473,2.161 L4.159,2.385 C4.118,2.414 4.064,2.375 4.079,2.327 L4.196,1.959 L3.885,1.73 C3.845,1.7 3.866,1.637 3.915,1.636 L4.301,1.633 L4.423,1.267 C4.439,1.22 4.506,1.22 4.522,1.267 L4.523,1.267 Z" id="Path" fill="#F5F5F5"></path>
                <path d="M4.523,3.182 L4.645,3.548 L5.031,3.551 C5.081,3.551 5.102,3.615 5.061,3.645 L4.75,3.874 L4.867,4.242 C4.882,4.29 4.828,4.329 4.787,4.3 L4.473,4.075 L4.159,4.3 C4.118,4.329 4.064,4.29 4.079,4.242 L4.196,3.874 L3.885,3.645 C3.845,3.615 3.866,3.552 3.915,3.551 L4.301,3.548 L4.423,3.182 C4.439,3.135 4.506,3.135 4.522,3.182 L4.523,3.182 Z" id="Path" fill="#F5F5F5"></path>
                <path d="M4.523,5.098 L4.645,5.464 L5.031,5.467 C5.081,5.467 5.102,5.531 5.061,5.561 L4.75,5.79 L4.867,6.158 C4.882,6.206 4.828,6.245 4.787,6.216 L4.473,5.991 L4.159,6.216 C4.118,6.245 4.064,6.206 4.079,6.158 L4.196,5.79 L3.885,5.561 C3.845,5.531 3.866,5.468 3.915,5.467 L4.301,5.464 L4.423,5.098 C4.439,5.051 4.506,5.051 4.522,5.098 L4.523,5.098 Z" id="Path" fill="#F5F5F5"></path>
                <path d="M4.523,7.014 L4.645,7.38 L5.031,7.383 C5.081,7.383 5.102,7.447 5.061,7.477 L4.75,7.706 L4.867,8.074 C4.882,8.122 4.828,8.161 4.787,8.132 L4.473,7.907 L4.159,8.132 C4.118,8.161 4.064,8.122 4.079,8.074 L4.196,7.706 L3.885,7.477 C3.845,7.447 3.866,7.384 3.915,7.383 L4.301,7.38 L4.423,7.014 C4.439,6.967 4.506,6.967 4.522,7.014 L4.523,7.014 Z" id="Path" fill="#F5F5F5"></path>
                <path d="M4.523,8.93 L4.645,9.296 L5.031,9.299 C5.081,9.299 5.102,9.363 5.061,9.393 L4.75,9.622 L4.867,9.99 C4.882,10.038 4.828,10.077 4.787,10.048 L4.473,9.823 L4.159,10.048 C4.118,10.077 4.064,10.038 4.079,9.99 L4.196,9.622 L3.885,9.393 C3.845,9.363 3.866,9.3 3.915,9.299 L4.301,9.296 L4.423,8.93 C4.439,8.883 4.506,8.883 4.522,8.93 L4.523,8.93 Z" id="Path" fill="#F5F5F5"></path>
                <path d="M6.011,2.206 L6.133,2.572 L6.519,2.575 C6.569,2.575 6.59,2.639 6.549,2.669 L6.238,2.898 L6.355,3.266 C6.37,3.314 6.316,3.353 6.275,3.324 L5.961,3.099 L5.647,3.324 C5.606,3.353 5.552,3.314 5.567,3.266 L5.684,2.898 L5.373,2.669 C5.333,2.639 5.354,2.576 5.403,2.575 L5.789,2.572 L5.911,2.206 C5.927,2.159 5.994,2.159 6.01,2.206 L6.011,2.206 Z" id="Path" fill="#F5F5F5"></path>
                <path d="M6.011,4.122 L6.133,4.488 L6.519,4.491 C6.569,4.491 6.59,4.555 6.549,4.585 L6.238,4.814 L6.355,5.182 C6.37,5.23 6.316,5.269 6.275,5.24 L5.961,5.015 L5.647,5.24 C5.606,5.269 5.552,5.23 5.567,5.182 L5.684,4.814 L5.373,4.585 C5.333,4.555 5.354,4.492 5.403,4.491 L5.789,4.488 L5.911,4.122 C5.927,4.075 5.994,4.075 6.01,4.122 L6.011,4.122 Z" id="Path" fill="#F5F5F5"></path>
                <path d="M6.011,6.038 L6.133,6.404 L6.519,6.407 C6.569,6.407 6.59,6.471 6.549,6.501 L6.238,6.73 L6.355,7.098 C6.37,7.146 6.316,7.185 6.275,7.156 L5.961,6.931 L5.647,7.156 C5.606,7.185 5.552,7.146 5.567,7.098 L5.684,6.73 L5.373,6.501 C5.333,6.471 5.354,6.408 5.403,6.407 L5.789,6.404 L5.911,6.038 C5.927,5.991 5.994,5.991 6.01,6.038 L6.011,6.038 Z" id="Path" fill="#F5F5F5"></path>
                <path d="M6.011,7.954 L6.133,8.32 L6.519,8.323 C6.569,8.323 6.59,8.387 6.549,8.417 L6.238,8.646 L6.355,9.014 C6.37,9.062 6.316,9.101 6.275,9.072 L5.961,8.847 L5.647,9.072 C5.606,9.101 5.552,9.062 5.567,9.014 L5.684,8.646 L5.373,8.417 C5.333,8.387 5.354,8.324 5.403,8.323 L5.789,8.32 L5.911,7.954 C5.927,7.907 5.994,7.907 6.01,7.954 L6.011,7.954 Z" id="Path" fill="#F5F5F5"></path>
                <path d="M7.498,1.267 L7.62,1.633 L8.006,1.636 C8.056,1.636 8.077,1.7 8.036,1.73 L7.725,1.959 L7.842,2.327 C7.857,2.375 7.803,2.414 7.762,2.385 L7.448,2.161 L7.134,2.385 C7.093,2.414 7.039,2.375 7.054,2.327 L7.171,1.959 L6.86,1.73 C6.82,1.7 6.841,1.637 6.89,1.636 L7.276,1.633 L7.398,1.267 C7.414,1.22 7.481,1.22 7.497,1.267 L7.498,1.267 Z" id="Path" fill="#F5F5F5"></path>
                <path d="M7.498,3.182 L7.62,3.548 L8.006,3.551 C8.056,3.551 8.077,3.615 8.036,3.645 L7.725,3.874 L7.842,4.242 C7.857,4.29 7.803,4.329 7.762,4.3 L7.448,4.075 L7.134,4.3 C7.093,4.329 7.039,4.29 7.054,4.242 L7.171,3.874 L6.86,3.645 C6.82,3.615 6.841,3.552 6.89,3.551 L7.276,3.548 L7.398,3.182 C7.414,3.135 7.481,3.135 7.497,3.182 L7.498,3.182 Z" id="Path" fill="#F5F5F5"></path>
                <path d="M7.498,5.098 L7.62,5.464 L8.006,5.467 C8.056,5.467 8.077,5.531 8.036,5.561 L7.725,5.79 L7.842,6.158 C7.857,6.206 7.803,6.245 7.762,6.216 L7.448,5.991 L7.134,6.216 C7.093,6.245 7.039,6.206 7.054,6.158 L7.171,5.79 L6.86,5.561 C6.82,5.531 6.841,5.468 6.89,5.467 L7.276,5.464 L7.398,5.098 C7.414,5.051 7.481,5.051 7.497,5.098 L7.498,5.098 Z" id="Path" fill="#F5F5F5"></path>
                <path d="M7.498,7.014 L7.62,7.38 L8.006,7.383 C8.056,7.383 8.077,7.447 8.036,7.477 L7.725,7.706 L7.842,8.074 C7.857,8.122 7.803,8.161 7.762,8.132 L7.448,7.907 L7.134,8.132 C7.093,8.161 7.039,8.122 7.054,8.074 L7.171,7.706 L6.86,7.477 C6.82,7.447 6.841,7.384 6.89,7.383 L7.276,7.38 L7.398,7.014 C7.414,6.967 7.481,6.967 7.497,7.014 L7.498,7.014 Z" id="Path" fill="#F5F5F5"></path>
                <path d="M7.498,8.93 L7.62,9.296 L8.006,9.299 C8.056,9.299 8.077,9.363 8.036,9.393 L7.725,9.622 L7.842,9.99 C7.857,10.038 7.803,10.077 7.762,10.048 L7.448,9.823 L7.134,10.048 C7.093,10.077 7.039,10.038 7.054,9.99 L7.171,9.622 L6.86,9.393 C6.82,9.363 6.841,9.3 6.89,9.299 L7.276,9.296 L7.398,8.93 C7.414,8.883 7.481,8.883 7.497,8.93 L7.498,8.93 Z" id="Path" fill="#F5F5F5"></path>
                <path d="M8.985,2.206 L9.107,2.572 L9.493,2.575 C9.543,2.575 9.564,2.639 9.523,2.669 L9.212,2.898 L9.329,3.266 C9.344,3.314 9.29,3.353 9.249,3.324 L8.935,3.099 L8.621,3.324 C8.58,3.353 8.526,3.314 8.541,3.266 L8.658,2.898 L8.347,2.669 C8.307,2.639 8.327,2.576 8.377,2.575 L8.763,2.572 L8.885,2.206 C8.901,2.159 8.968,2.159 8.984,2.206 L8.985,2.206 Z" id="Path" fill="#F5F5F5"></path>
                <path d="M8.985,4.122 L9.107,4.488 L9.493,4.491 C9.543,4.491 9.564,4.555 9.523,4.585 L9.212,4.814 L9.329,5.182 C9.344,5.23 9.29,5.269 9.249,5.24 L8.935,5.015 L8.621,5.24 C8.58,5.269 8.526,5.23 8.541,5.182 L8.658,4.814 L8.347,4.585 C8.307,4.555 8.327,4.492 8.377,4.491 L8.763,4.488 L8.885,4.122 C8.901,4.075 8.968,4.075 8.984,4.122 L8.985,4.122 Z" id="Path" fill="#F5F5F5"></path>
                <path d="M8.985,6.038 L9.107,6.404 L9.493,6.407 C9.543,6.407 9.564,6.471 9.523,6.501 L9.212,6.73 L9.329,7.098 C9.344,7.146 9.29,7.185 9.249,7.156 L8.935,6.931 L8.621,7.156 C8.58,7.185 8.526,7.146 8.541,7.098 L8.658,6.73 L8.347,6.501 C8.307,6.471 8.327,6.408 8.377,6.407 L8.763,6.404 L8.885,6.038 C8.901,5.991 8.968,5.991 8.984,6.038 L8.985,6.038 Z" id="Path" fill="#F5F5F5"></path>
                <path d="M8.985,7.954 L9.107,8.32 L9.493,8.323 C9.543,8.323 9.564,8.387 9.523,8.417 L9.212,8.646 L9.329,9.014 C9.344,9.062 9.29,9.101 9.249,9.072 L8.935,8.847 L8.621,9.072 C8.58,9.101 8.526,9.062 8.541,9.014 L8.658,8.646 L8.347,8.417 C8.307,8.387 8.327,8.324 8.377,8.323 L8.763,8.32 L8.885,7.954 C8.901,7.907 8.968,7.907 8.984,7.954 L8.985,7.954 Z" id="Path" fill="#F5F5F5"></path>
                <path d="M10.472,1.267 L10.594,1.633 L10.98,1.636 C11.03,1.636 11.051,1.7 11.01,1.73 L10.699,1.959 L10.816,2.327 C10.831,2.375 10.777,2.414 10.736,2.385 L10.422,2.161 L10.108,2.385 C10.067,2.414 10.013,2.375 10.028,2.327 L10.145,1.959 L9.834,1.73 C9.794,1.7 9.814,1.637 9.864,1.636 L10.25,1.633 L10.372,1.267 C10.388,1.22 10.455,1.22 10.471,1.267 L10.472,1.267 Z" id="Path" fill="#F5F5F5"></path>
                <path d="M10.472,3.182 L10.594,3.548 L10.98,3.551 C11.03,3.551 11.051,3.615 11.01,3.645 L10.699,3.874 L10.816,4.242 C10.831,4.29 10.777,4.329 10.736,4.3 L10.422,4.075 L10.108,4.3 C10.067,4.329 10.013,4.29 10.028,4.242 L10.145,3.874 L9.834,3.645 C9.794,3.615 9.814,3.552 9.864,3.551 L10.25,3.548 L10.372,3.182 C10.388,3.135 10.455,3.135 10.471,3.182 L10.472,3.182 Z" id="Path" fill="#F5F5F5"></path>
                <path d="M10.472,5.098 L10.594,5.464 L10.98,5.467 C11.03,5.467 11.051,5.531 11.01,5.561 L10.699,5.79 L10.816,6.158 C10.831,6.206 10.777,6.245 10.736,6.216 L10.422,5.991 L10.108,6.216 C10.067,6.245 10.013,6.206 10.028,6.158 L10.145,5.79 L9.834,5.561 C9.794,5.531 9.814,5.468 9.864,5.467 L10.25,5.464 L10.372,5.098 C10.388,5.051 10.455,5.051 10.471,5.098 L10.472,5.098 Z" id="Path" fill="#F5F5F5"></path>
                <path d="M10.472,7.014 L10.594,7.38 L10.98,7.383 C11.03,7.383 11.051,7.447 11.01,7.477 L10.699,7.706 L10.816,8.074 C10.831,8.122 10.777,8.161 10.736,8.132 L10.422,7.907 L10.108,8.132 C10.067,8.161 10.013,8.122 10.028,8.074 L10.145,7.706 L9.834,7.477 C9.794,7.447 9.814,7.384 9.864,7.383 L10.25,7.38 L10.372,7.014 C10.388,6.967 10.455,6.967 10.471,7.014 L10.472,7.014 Z" id="Path" fill="#F5F5F5"></path>
                <path d="M10.472,8.93 L10.594,9.296 L10.98,9.299 C11.03,9.299 11.051,9.363 11.01,9.393 L10.699,9.622 L10.816,9.99 C10.831,10.038 10.777,10.077 10.736,10.048 L10.422,9.823 L10.108,10.048 C10.067,10.077 10.013,10.038 10.028,9.99 L10.145,9.622 L9.834,9.393 C9.794,9.363 9.814,9.3 9.864,9.299 L10.25,9.296 L10.372,8.93 C10.388,8.883 10.455,8.883 10.471,8.93 L10.472,8.93 Z" id="Path" fill="#F5F5F5"></path>
                <path d="M11.959,2.206 L12.081,2.572 L12.467,2.575 C12.517,2.575 12.538,2.639 12.497,2.669 L12.186,2.898 L12.303,3.266 C12.318,3.314 12.264,3.353 12.223,3.324 L11.909,3.099 L11.595,3.324 C11.554,3.353 11.5,3.314 11.515,3.266 L11.632,2.898 L11.321,2.669 C11.281,2.639 11.301,2.576 11.351,2.575 L11.737,2.572 L11.859,2.206 C11.875,2.159 11.942,2.159 11.958,2.206 L11.959,2.206 Z" id="Path" fill="#F5F5F5"></path>
                <path d="M11.959,4.122 L12.081,4.488 L12.467,4.491 C12.517,4.491 12.538,4.555 12.497,4.585 L12.186,4.814 L12.303,5.182 C12.318,5.23 12.264,5.269 12.223,5.24 L11.909,5.015 L11.595,5.24 C11.554,5.269 11.5,5.23 11.515,5.182 L11.632,4.814 L11.321,4.585 C11.281,4.555 11.301,4.492 11.351,4.491 L11.737,4.488 L11.859,4.122 C11.875,4.075 11.942,4.075 11.958,4.122 L11.959,4.122 Z" id="Path" fill="#F5F5F5"></path>
                <path d="M11.959,6.038 L12.081,6.404 L12.467,6.407 C12.517,6.407 12.538,6.471 12.497,6.501 L12.186,6.73 L12.303,7.098 C12.318,7.146 12.264,7.185 12.223,7.156 L11.909,6.931 L11.595,7.156 C11.554,7.185 11.5,7.146 11.515,7.098 L11.632,6.73 L11.321,6.501 C11.281,6.471 11.301,6.408 11.351,6.407 L11.737,6.404 L11.859,6.038 C11.875,5.991 11.942,5.991 11.958,6.038 L11.959,6.038 Z" id="Path" fill="#F5F5F5"></path>
                <path d="M11.959,7.954 L12.081,8.32 L12.467,8.323 C12.517,8.323 12.538,8.387 12.497,8.417 L12.186,8.646 L12.303,9.014 C12.318,9.062 12.264,9.101 12.223,9.072 L11.909,8.847 L11.595,9.072 C11.554,9.101 11.5,9.062 11.515,9.014 L11.632,8.646 L11.321,8.417 C11.281,8.387 11.301,8.324 11.351,8.323 L11.737,8.32 L11.859,7.954 C11.875,7.907 11.942,7.907 11.958,7.954 L11.959,7.954 Z" id="Path" fill="#F5F5F5"></path>
                <path d="M13.446,1.267 L13.568,1.633 L13.954,1.636 C14.004,1.636 14.025,1.7 13.984,1.73 L13.673,1.959 L13.79,2.327 C13.805,2.375 13.751,2.414 13.71,2.385 L13.396,2.161 L13.082,2.385 C13.041,2.414 12.987,2.375 13.002,2.327 L13.119,1.959 L12.808,1.73 C12.768,1.7 12.788,1.637 12.838,1.636 L13.224,1.633 L13.346,1.267 C13.362,1.22 13.429,1.22 13.445,1.267 L13.446,1.267 Z" id="Path" fill="#F5F5F5"></path>
                <path d="M13.446,3.182 L13.568,3.548 L13.954,3.551 C14.004,3.551 14.025,3.615 13.984,3.645 L13.673,3.874 L13.79,4.242 C13.805,4.29 13.751,4.329 13.71,4.3 L13.396,4.075 L13.082,4.3 C13.041,4.329 12.987,4.29 13.002,4.242 L13.119,3.874 L12.808,3.645 C12.768,3.615 12.788,3.552 12.838,3.551 L13.224,3.548 L13.346,3.182 C13.362,3.135 13.429,3.135 13.445,3.182 L13.446,3.182 Z" id="Path" fill="#F5F5F5"></path>
                <path d="M13.446,5.098 L13.568,5.464 L13.954,5.467 C14.004,5.467 14.025,5.531 13.984,5.561 L13.673,5.79 L13.79,6.158 C13.805,6.206 13.751,6.245 13.71,6.216 L13.396,5.991 L13.082,6.216 C13.041,6.245 12.987,6.206 13.002,6.158 L13.119,5.79 L12.808,5.561 C12.768,5.531 12.788,5.468 12.838,5.467 L13.224,5.464 L13.346,5.098 C13.362,5.051 13.429,5.051 13.445,5.098 L13.446,5.098 Z" id="Path" fill="#F5F5F5"></path>
                <path d="M13.446,7.014 L13.568,7.38 L13.954,7.383 C14.004,7.383 14.025,7.447 13.984,7.477 L13.673,7.706 L13.79,8.074 C13.805,8.122 13.751,8.161 13.71,8.132 L13.396,7.907 L13.082,8.132 C13.041,8.161 12.987,8.122 13.002,8.074 L13.119,7.706 L12.808,7.477 C12.768,7.447 12.788,7.384 12.838,7.383 L13.224,7.38 L13.346,7.014 C13.362,6.967 13.429,6.967 13.445,7.014 L13.446,7.014 Z" id="Path" fill="#F5F5F5"></path>
                <path d="M13.446,8.93 L13.568,9.296 L13.954,9.299 C14.004,9.299 14.025,9.363 13.984,9.393 L13.673,9.622 L13.79,9.99 C13.805,10.038 13.751,10.077 13.71,10.048 L13.396,9.823 L13.082,10.048 C13.041,10.077 12.987,10.038 13.002,9.99 L13.119,9.622 L12.808,9.393 C12.768,9.363 12.788,9.3 12.838,9.299 L13.224,9.296 L13.346,8.93 C13.362,8.883 13.429,8.883 13.445,8.93 L13.446,8.93 Z" id="Path" fill="#F5F5F5"></path>
            </g>
            <g id="icon-netherlands" transform="translate(336.000000, 0.000000)">
                <path d="M32,6.989 L0,6.989 L0,0.552 C0,0.247 0.247,0 0.552,0 L31.448,0 C31.753,0 32,0.247 32,0.552 L32,6.989 Z" id="Path" fill="#FF4B55"></path>
                <path d="M31.448,20.966 L0.552,20.966 C0.247,20.966 0,20.719 0,20.414 L0,13.977 L32,13.977 L32,20.414 C32,20.719 31.753,20.966 31.448,20.966 Z" id="Path" fill="#41479B"></path>
                <polygon id="Path" fill="#F5F5F5" points="0 6.989 32 6.989 32 13.977 0 13.977"></polygon>
            </g>
            <g id="icon-united-kingdom" transform="translate(384.000000, 0.000000)">
                <path d="M31.448,20.966 L0.552,20.966 C0.247,20.966 0,20.719 0,20.414 L0,0.552 C0,0.247 0.247,5.32907052e-15 0.552,5.32907052e-15 L31.448,5.32907052e-15 C31.753,5.32907052e-15 32,0.247 32,0.552 L32,20.414 C32,20.719 31.753,20.966 31.448,20.966 Z" id="Path" fill="#41479B"></path>
                <path d="M32,0.552 C32,0.247 31.753,8.8817842e-16 31.448,8.8817842e-16 L28.98,8.8817842e-16 L18.759,6.697 L18.759,8.8817842e-16 L13.242,8.8817842e-16 L13.242,6.697 L3.021,8.8817842e-16 L0.553,8.8817842e-16 C0.248,8.8817842e-16 0.001,0.247 0.001,0.552 L0.001,1.979 L8.77,7.724 L0.001,7.724 L0.001,13.241 L8.77,13.241 L0.001,18.986 L0.001,20.413 C0.001,20.718 0.248,20.965 0.553,20.965 L3.021,20.965 L13.242,14.268 L13.242,20.965 L18.759,20.965 L18.759,14.268 L28.98,20.965 L31.448,20.965 C31.753,20.965 32,20.718 32,20.413 L32,18.986 L23.231,13.241 L32,13.241 L32,7.724 L23.231,7.724 L32,1.979 L32,0.552 Z" id="Path" fill="#F5F5F5"></path>
                <polygon id="Path" fill="#FF4B55" points="32 8.828 17.655 8.828 17.655 3.55271368e-15 14.345 3.55271368e-15 14.345 8.828 0 8.828 0 12.138 14.345 12.138 14.345 20.966 17.655 20.966 17.655 12.138 32 12.138"></polygon>
                <path d="M11.184,13.242 L0.015,20.492 C0.054,20.758 0.274,20.966 0.551,20.966 L1.311,20.966 L13.21,13.242 L11.183,13.242 L11.184,13.242 Z" id="Path" fill="#FF4B55"></path>
                <path d="M21.649,13.242 L19.622,13.242 L31.504,20.955 C31.781,20.926 31.999,20.699 31.999,20.415 L31.999,19.961 L21.648,13.242 L21.649,13.242 Z" id="Path" fill="#FF4B55"></path>
                <path d="M0,1.161 L10.111,7.724 L12.138,7.724 L0.322,0.054 C0.133,0.142 0.001,0.33 0.001,0.552 L0.001,1.161 L0,1.161 Z" id="Path" fill="#FF4B55"></path>
                <path d="M20.785,7.724 L31.98,0.457 C31.933,0.199 31.718,1.77635684e-15 31.447,1.77635684e-15 L30.657,1.77635684e-15 L18.758,7.724 L20.785,7.724 L20.785,7.724 Z" id="Path" fill="#FF4B55"></path>
            </g>
        </g>
    </g>
</svg>