<?xml version="1.0" encoding="utf-8"?>
<!-- Generator: Adobe Illustrator 24.1.0, SVG Export Plug-In . SVG Version: 6.00 Build 0)  -->
<svg version="1.1" id="Layer_1" xmlns="http://www.w3.org/2000/svg" xmlns:xlink="http://www.w3.org/1999/xlink" x="0px" y="0px"
	 viewBox="0 0 32 32" style="enable-background:new 0 0 32 32;" xml:space="preserve">
<style type="text/css">
	.st0{fill:#FFFFFF;}
</style>
<path class="st0" d="M7.4,13.6c0,5.5,0,12,0,12c0,0,16.8,0,16.8,0c0,0,0-19.2,0-19.2c0,0-16.8,0-16.8,0s0,2,0,4.8h16.8v2.4
	C24.2,13.6,7.4,13.6,7.4,13.6z M7.4,4h16.8c1.3,0,2.4,1.1,2.4,2.4v19.2c0,1.3-1.1,2.4-2.4,2.4H7.4C6.1,28,5,26.9,5,25.6V6.4
	C5,5.1,6.1,4,7.4,4z M9.8,17.2c0-0.7,0.5-1.2,1.2-1.2c0.7,0,1.2,0.5,1.2,1.2c0,0.7-0.5,1.2-1.2,1.2C10.3,18.4,9.8,17.9,9.8,17.2z
	 M14.6,17.2c0-0.7,0.5-1.2,1.2-1.2c0.7,0,1.2,0.5,1.2,1.2c0,0.7-0.5,1.2-1.2,1.2C15.1,18.4,14.6,17.9,14.6,17.2z M19.4,17.2
	c0-0.7,0.5-1.2,1.2-1.2c0.7,0,1.2,0.5,1.2,1.2c0,0.7-0.5,1.2-1.2,1.2C19.9,18.4,19.4,17.9,19.4,17.2z M9.8,22c0-0.7,0.5-1.2,1.2-1.2
	c0.7,0,1.2,0.5,1.2,1.2c0,0.7-0.5,1.2-1.2,1.2C10.3,23.2,9.8,22.7,9.8,22z M14.6,22c0-0.7,0.5-1.2,1.2-1.2c0.7,0,1.2,0.5,1.2,1.2
	c0,0.7-0.5,1.2-1.2,1.2C15.1,23.2,14.6,22.7,14.6,22z M19.4,22c0-0.7,0.5-1.2,1.2-1.2c0.7,0,1.2,0.5,1.2,1.2c0,0.7-0.5,1.2-1.2,1.2
	C19.9,23.2,19.4,22.7,19.4,22z M7.4,13.6c0-0.8,0-1.6,0-2.4h0L7.4,13.6L7.4,13.6z"/>
</svg>
