<!-- Generated by IcoMoon.io -->
<svg version="1.1" xmlns="http://www.w3.org/2000/svg" width="32" height="32" viewBox="0 0 32 32">
<title>pending-list-ficon</title>
<path fill="#607d8b" d="M25.9 7.812l0.001 18.824c0 0.65-0.557 1.177-1.244 1.177h-17.413c-0.687 0-1.244-0.527-1.244-1.177v-18.824c0-0.649 0.556-1.176 1.243-1.176h3.731c0-0.65 0.557-1.177 1.244-1.177h1.89c0-0.706 1.095-1.177 1.841-1.177s1.842 0.471 1.842 1.177h1.89c0.687 0 1.244 0.527 1.244 1.177h3.731c0.746 0 1.243 0.47 1.243 1.176zM8.487 25.459h14.925v-16.47l-2.487 0.001c-0.001 0.65-0.558 1.176-1.244 1.176h-7.463c-0.687 0-1.244-0.527-1.244-1.177h-2.487v16.47zM19.681 13.695c0.687 0 1.244 0.527 1.244 1.176s-0.557 1.176-1.244 1.176h-7.463c-0.687 0-1.244-0.527-1.244-1.176s0.557-1.176 1.244-1.176h7.463zM19.681 18.4c0.687 0 1.244 0.527 1.244 1.176s-0.557 1.176-1.244 1.176h-7.463c-0.687 0-1.244-0.527-1.244-1.176s0.557-1.176 1.244-1.176h7.463z"></path>
</svg>
