<?xml version="1.0" encoding="UTF-8"?>
<svg width="148px" height="148px" viewBox="0 0 148 148" version="1.1" xmlns="http://www.w3.org/2000/svg" xmlns:xlink="http://www.w3.org/1999/xlink">
    <title>Group</title>
    <g id="Page-1" stroke="none" stroke-width="1" fill="none" fill-rule="evenodd">
        <g id="Monarch-Modernization--00-Copy-3" transform="translate(-61.000000, -180.000000)">
            <g id="Group" transform="translate(66.104089, 185.104089)">
                <g id="icon-o6" stroke-width="8">
                    <path d="M67.4533639,72.7959113 C67.4280801,72.3936992 67.4168428,71.9886547 67.4168428,71.5864427 C67.4168428,60.7295503 76.2774304,51.7959113 87.0455447,51.7959113 C88.5176271,51.7959113 89.9840909,51.960195 91.4168428,52.2915951" id="Stroke-1" stroke="#FFCC00" transform="translate(79.416843, 62.295911) rotate(98.000000) translate(-79.416843, -62.295911) "></path>
                    <path d="M53.0240884,92.3491962 C47.4585515,85.027124 45.0626767,75.7417202 46.3838469,66.6151153 C49.0720413,48.047195 66.4507312,34.9968141 84.8783328,37.7050569 C93.1406617,38.9205901 100.675057,43.1619639 106.028519,49.6178603" id="Stroke-3" stroke="#FF9933" transform="translate(76.028519, 64.849196) rotate(98.000000) translate(-76.028519, -64.849196) "></path>
                    <path d="M64.4624602,129.895911 C26.4399719,127.084688 -0.44198742,88.4518437 10.2667603,51.7742589 C20.7925014,15.7264797 62.9755313,-2.7182345 96.4743243,14.2836525 C115.449825,23.9168146 128.434718,43.3491784 129.895911,64.6222921" id="Stroke-5" stroke="#666699" transform="translate(68.895911, 68.895911) rotate(98.000000) translate(-68.895911, -68.895911) "></path>
                    <path d="M51.8528868,112.258442 C30.5066552,101.377515 20.3850551,75.1287119 29.3464718,52.7855883 C38.4193346,30.1618513 64.349148,17.9322626 87.4985219,25.4973699 C101.126391,29.9499596 112.145275,40.6504918 117.080341,54.1256603" id="Stroke-7" stroke="#66CCCC" transform="translate(71.580341, 67.758442) rotate(98.000000) translate(-71.580341, -67.758442) "></path>
                </g>
                <path d="M67.7099425,81.8195252 L28.0298311,66.9966403 C27.4520007,66.7795772 26.800996,66.9197111 26.3629728,67.3554447 C25.9249496,67.7911783 25.7801095,68.4427291 25.9921184,69.0237015 L40.8563639,108.868123 C41.0928861,109.500708 41.7036405,109.913219 42.3772581,109.895353 C43.0508758,109.877487 43.6390206,109.433179 43.84185,108.788941 L48.0910339,94.9320772 L62.497189,109.026487 C63.1133009,109.640502 64.1083446,109.640502 64.7244564,109.026487 L68.4365687,105.304929 C69.0490256,104.68725 69.0490256,103.689674 68.4365687,103.071995 L54.0778023,89.0409306 L67.7099425,84.8126077 C68.3461786,84.5918422 68.7729172,83.9910453 68.7729172,83.3160664 C68.7729172,82.6410876 68.3461786,82.0402907 67.7099425,81.8195252 Z" id="Path" fill="#666699" fill-rule="nonzero" transform="translate(47.395911, 88.395911) scale(-1, 1) rotate(-6.000000) translate(-47.395911, -88.395911) "></path>
            </g>
        </g>
    </g>
</svg>