<svg xmlns="http://www.w3.org/2000/svg" viewBox="0 0 161.56 116.15"><defs><style>.cls-1{fill:#fff;opacity:0.15;}.cls-2{fill:#fdfeff;opacity:0.2;}</style></defs><g id="Layer_2" data-name="Layer 2"><g id="Layer_1-2" data-name="Layer 1"><path class="cls-1" d="M118.93,30.85s-16.57,9.78-36.4-15.21S27.93.43,16.79,11.84-6.48,45.58,4,78.39c12.33,38.49,77.42,37.49,77.42,37.49s69,6,78.24-37.76c10.93-51.83-29.35-51.22-29.35-51.22A77.08,77.08,0,0,0,118.93,30.85Z"/><rect class="cls-2" x="61.58" y="41.06" width="12.37" height="18.71" rx="2.67"/><rect class="cls-2" x="99.29" y="29.81" width="12.37" height="29.96" rx="2.67"/><rect class="cls-2" x="80.44" y="17.19" width="12.37" height="42.58" rx="2.67"/><rect class="cls-2" x="117.65" y="10.53" width="12.37" height="49.24" rx="2.67"/><path class="cls-2" d="M133.45,72.53H48.89V12.9a2.67,2.67,0,0,0-2.67-2.67h-7a2.68,2.68,0,0,0-2.67,2.67V74.27a2.6,2.6,0,0,0-.17.93v7a3,3,0,0,0,2.84,2.83h7a2.6,2.6,0,0,0,.89-.16h86.34a2.68,2.68,0,0,0,2.67-2.67v-7A2.67,2.67,0,0,0,133.45,72.53Z"/></g></g></svg>