<?xml version="1.0" encoding="UTF-8"?>
<svg width="267px" height="120px" viewBox="0 0 267 120" version="1.1" xmlns="http://www.w3.org/2000/svg" xmlns:xlink="http://www.w3.org/1999/xlink">
    <title>Group 3SVG-Elastic</title>
    <defs>
        <path d="M17.5672037,32.8597682 C12.949964,29.0312294 12.3113782,22.1842532 16.1399499,17.5674734 C19.968942,12.9502733 26.8155565,12.3112726 31.4323759,16.1402318 C36.050036,19.9687706 36.6886218,26.8157468 32.8600501,31.4325266 C29.031058,36.0493063 22.1844435,36.688307 17.5672037,32.8597682 Z M43.3893579,33.3655036 C44.2246903,31.5889136 44.790547,29.7257222 45.0949157,27.8343643 L49,26.6618822 L48.1768592,17.8415711 L44.1225334,17.4119272 C43.4730173,15.6092727 42.5721027,13.8835505 41.422312,12.2919344 L43.3532036,8.70470242 L36.533915,3.04954657 L33.3657898,5.61101435 C31.5887642,4.77526875 29.7259772,4.20941685 27.8346031,3.90505075 L26.6621109,0 L17.8413038,0.823133746 L17.4120766,4.87784517 C15.6094066,5.52693532 13.8832493,6.42784217 12.2920399,7.57762297 L8.7047771,5.64716834 L3.04957274,12.465978 L5.61064209,15.634076 C4.77530972,17.4110864 4.20945297,19.2738574 3.90508425,21.1656357 L0,22.3381178 L0.823140808,31.1584289 L4.87746663,31.5880728 C5.52698274,33.3903069 6.42789732,35.1164495 7.57768798,36.7076452 L5.64679639,40.2952976 L12.466085,45.950033 L15.6342102,43.3889856 C17.4112358,44.2243109 19.2740228,44.7901628 21.1653969,45.0949493 L22.3383095,49 L26.7482927,48.5884331 L31.1586962,48.1768663 L31.5879234,44.1221548 C33.3905934,43.4730647 35.1163303,42.5721578 36.7079601,41.4219566 L40.2952229,43.3528317 L45.9504273,36.5336016 L43.3893579,33.3655036 L43.3893579,33.3655036 Z" id="path-1"></path>
        <linearGradient x1="0.802189505%" y1="55.0528926%" x2="99.1960946%" y2="44.9446194%" id="linearGradient-3">
            <stop stop-color="#95CAFF" offset="0%"></stop>
            <stop stop-color="#5499FF" offset="100%"></stop>
        </linearGradient>
        <path d="M2.07589287,-1.80411242e-16 C0.92912947,-1.80411242e-16 2.08166817e-16,0.939453131 2.08166817e-16,2.09895835 C2.08166817e-16,3.25846356 0.92912947,4.19791669 2.07589287,4.19791669 C3.22265627,4.19791669 4.15178574,3.25846356 4.15178574,2.09895835 C4.15178574,0.939453131 3.22265627,-1.80411242e-16 2.07589287,-1.80411242e-16 Z M2.07589287,0.812500005 C2.48270091,0.812500005 2.81250002,1.14596355 2.81250002,1.55729168 C2.81250002,1.9686198 2.48270091,2.30208335 2.07589287,2.30208335 C1.66908483,2.30208335 1.33928572,1.9686198 1.33928572,1.55729168 C1.33928572,1.14596355 1.66908483,0.812500005 2.07589287,0.812500005 Z M2.07589287,3.72395836 C1.58454242,3.72395836 1.14425224,3.49882815 0.84960938,3.14674481 C1.00697545,2.84713543 1.31501117,2.64062502 1.67410715,2.64062502 C1.69419644,2.64062502 1.71428573,2.64401043 1.73353796,2.64993491 C1.84235492,2.68548179 1.95619421,2.70833335 2.07589287,2.70833335 C2.19559153,2.70833335 2.31026787,2.68548179 2.41824778,2.64993491 C2.43750002,2.64401043 2.4575893,2.64062502 2.47767859,2.64062502 C2.83677457,2.64062502 3.14481029,2.84713543 3.30217636,3.14674481 C3.0075335,3.49882815 2.56724332,3.72395836 2.07589287,3.72395836 Z" id="path-4"></path>
        <path d="M1.93750001,0.968750006 C1.93750001,1.50377735 1.50377735,1.93750001 0.968750006,1.93750001 C0.433722659,1.93750001 0,1.50377735 0,0.968750006 C0,0.433722659 0.433722659,0 0.968750006,0 C1.50377735,0 1.93750001,0.433722659 1.93750001,0.968750006 Z M0.856695318,1.48169532 L1.57544532,0.762945317 C1.59985157,0.738539067 1.59985157,0.698964848 1.57544532,0.674558598 L1.4870586,0.586171879 C1.46265235,0.561761722 1.42307813,0.561761722 1.39866798,0.586171879 L0.812500005,1.17233594 L0.538832035,0.898667974 C0.514425784,0.874261724 0.474851565,0.874261724 0.450441409,0.898667974 L0.36205469,0.987054694 C0.33764844,1.01146094 0.33764844,1.05103516 0.36205469,1.07544141 L0.768304692,1.48169142 C0.792714849,1.50610157 0.832285161,1.50610157 0.856695318,1.48169532 L0.856695318,1.48169532 Z" id="path-6"></path>
        <path d="M9.68750006,4.84375003 C9.68750006,7.51888677 7.51888677,9.68750006 4.84375003,9.68750006 C2.16861329,9.68750006 0,7.51888677 0,4.84375003 C0,2.16861329 2.16861329,0 4.84375003,0 C7.51888677,0 9.68750006,2.16861329 9.68750006,4.84375003 Z M4.28347659,7.40847661 L7.87722661,3.81472659 C7.99925786,3.69269534 7.99925786,3.49482424 7.87722661,3.37279299 L7.43529302,2.93085939 C7.31326176,2.80880861 7.11539067,2.80880861 6.99333989,2.93085939 L4.06250003,5.86167972 L2.69416017,4.49333987 C2.57212892,4.37130862 2.37425783,4.37130862 2.25220705,4.49333987 L1.81027345,4.93527347 C1.6882422,5.05730472 1.6882422,5.25517581 1.81027345,5.37720706 L3.84152346,7.40845708 C3.96357424,7.53050786 4.16142581,7.53050786 4.28347659,7.40847661 L4.28347659,7.40847661 Z" id="path-8"></path>
    </defs>
    <g id="Graphic---Elastic" stroke="none" stroke-width="1" fill="none" fill-rule="evenodd">
        <g id="Graphic" transform="translate(-139.000000, 11.000000)">
            <g id="Group-3" transform="translate(139.000000, -10.205240)">
                <path d="M244.745786,57.6763277 C252.473001,86.6245427 243.369022,97.8670566 217.43385,91.4038693 C186.785781,76.6223006 173.737615,61.9123706 178.289351,47.2740794 C185.116955,25.3166425 177.202471,14.5361542 183.429623,10.984167 C189.656775,7.43217974 233.154963,14.2540051 244.745786,57.6763277 Z" id="Path-4" fill="#F4F4F4" transform="translate(212.406464, 51.673333) rotate(-58.000000) translate(-212.406464, -51.673333) "></path>
                <circle id="Oval" fill="#F4F4F4" cx="67" cy="62.2052402" r="52"></circle>
                <path d="M226.530801,47.2052402 L230.186148,47.2391796 L233.841495,47.273378 L234.474944,50.5781911 C236.001956,50.9877951 237.483629,51.609585 238.871775,52.4453742 L241.689001,50.6097987 L246.810477,55.8276519 L244.922827,58.6099024 C245.732449,60.0135929 246.326517,61.5066658 246.707623,63.0411913 L250,63.7357824 L249.931862,71.0467356 L246.627049,71.679925 C246.217445,73.2069372 245.595655,74.6888697 244.759866,76.0770155 L246.595442,78.8942417 L241.377329,84.0157174 L238.595079,82.127808 C237.191647,82.9376892 235.698574,83.5317576 234.164049,83.9123448 L233.469458,87.2052402 L229.814111,87.1710418 L226.158505,87.1371024 L225.525315,83.8322894 C223.998044,83.4226853 222.51663,82.8006364 221.128225,81.9651063 L218.310999,83.8006817 L213.189782,78.5825695 L215.077432,75.800319 C214.26781,74.3966284 213.673483,72.9035556 213.292636,71.36903 L210,70.674439 L210.068138,63.3637448 L213.37321,62.7302964 C213.782555,61.2030251 214.404345,59.7216108 215.240393,58.333465 L213.404818,55.5162388 L218.622412,50.3947631 L221.404921,52.2824134 C222.808612,51.4727912 224.301426,50.8787228 225.835951,50.4976175 L226.530801,47.2052402 Z M236.422947,60.9009558 C232.941228,57.3536299 227.243113,57.3003004 223.695578,60.7823301 C220.148303,64.2640996 220.095235,69.9625577 223.576954,73.5096234 C227.058933,77.0569493 232.757049,77.1100187 236.304323,73.6282491 C239.851598,70.1467397 239.904927,64.4482817 236.422947,60.9009558 Z" id="Combined-Shape" stroke="#979797" stroke-width="0.5" opacity="0.49987357" stroke-linejoin="round"></path>
                <g id="Group-Copy" transform="translate(155.000000, 32.205240)">
                    <path d="M65.5119484,52.4096105 L65.5111183,52.4100256 C65.3758179,52.4594255 65.2313868,52.4893145 65.0811453,52.497617 C65.0475277,52.4992775 65.0139101,52.4996927 64.9802925,52.4996927 C64.8383516,52.497617 64.701391,52.4752003 64.5714861,52.4361785 C64.3917772,52.3826273 64.2261795,52.2975267 64.0817484,52.1854429 C64.0290393,52.1451757 63.9796505,52.0999271 63.9327519,52.0530179 C63.661321,51.7773747 63.4948932,51.3979503 63.5007037,50.9807494 C63.5019488,50.8719866 63.5156448,50.7665448 63.5393017,50.664424 C63.5505075,50.6150241 63.5629585,50.5664544 63.5791447,50.5191301 C63.7820953,49.9196893 64.3523492,49.4916952 65.0188905,49.5004128 C65.4978373,49.5062246 65.9219999,49.7370342 66.1913557,50.0898906 C66.3884958,50.3480985 66.5034597,50.6702357 66.4993093,51.0193561 C66.4910087,51.6607245 66.0813722,52.2028781 65.5119484,52.4096105 Z M66.5976719,49.7963971 C66.2378392,49.3194182 65.6692455,49.0076591 65.025531,49.0001869 C64.1365326,48.9881483 63.375364,49.5589455 63.1051783,50.3584767 C63.0396032,50.551925 63.0030804,50.7586574 63.0001752,50.9741074 C62.9968549,51.2252582 63.0408483,51.4656157 63.1221946,51.6881228 C63.2520996,52.0443003 63.4807822,52.3531534 63.7750398,52.5814723 C64.0680523,52.8085458 64.4253948,52.9563304 64.8163549,52.9916161 C64.8682339,52.9957673 64.9209429,52.9995034 64.974067,52.9999186 C65.0072696,53.0003337 65.0404721,52.9990883 65.0732597,52.9978429 C65.0844655,52.9974278 65.0965014,52.9978429 65.1081223,52.9974278 C65.3085828,52.9866346 65.5015726,52.9459523 65.6829416,52.8803625 C66.4420349,52.6047193 66.988217,51.8815712 66.9998379,51.0255829 C67.0056483,50.5647939 66.8549917,50.1384603 66.5976719,49.7963971 L66.5976719,49.7963971 Z" id="Fill-28" fill="#4DA8F2"></path>
                    <polyline id="Fill-100" fill="#5599FF" points="32 37 32 35 32 37"></polyline>
                    <polygon id="Fill-101" fill="#FFC955" points="0 78 106 78 106 76 0 76"></polygon>
                    <path d="M48.0912649,17 C48.0912649,17 38.6766566,25.8304868 43.2562662,32.7059604 C47.8362711,39.5818238 49.979405,33.5593547 49.979405,33.5593547 C49.979405,33.5593547 53.0768879,34.4809425 48.479488,26.0035037 C46.3126337,22.0077484 48.0912649,17 48.0912649,17" id="Fill-131" fill="#BBD070"></path>
                    <path d="M29.6044064,7 C29.6044064,7 22.3541073,15.4412856 32.0476109,27.1310722 C41.7411146,38.8208589 40.2385239,45 40.2385239,45 C40.2385239,45 53.7323466,24.6762368 29.6044064,7" id="Fill-132" fill="#00C1B0"></path>
                    <path d="M43.0476693,40.9556151 C47.4661823,41.8493414 43.8909268,28.994604 37.2651093,25.0755672 C30.6392918,21.1561398 24.7115041,20.7741187 21,17 C21,17 21.2892842,36.5529974 43.0476693,40.9556151" id="Fill-133" fill="#0DA698"></path>
                    <path d="M62.8004685,19.0783368 C62.8004685,19.0783368 67.3810041,5.6005799 58.6401985,1.42240705 C49.898993,-2.756167 42.4777656,3.28400893 41.0758138,6.55224362 C39.673862,9.8204783 40.0449433,15.7631609 41.2405611,19.9072311 C42.4361789,24.0509001 42.2622345,30.3594837 39.6646649,32.4694329 C37.0670953,34.5789809 33.8465249,38.0831255 34.0056741,45.2157889 C34.1048423,49.6407042 51.3605258,33.8965273 51.3605258,33.8965273 L62.8004685,19.0783368" id="Fill-356" fill="#252E3B"></path>
                    <path d="M50.2741852,34.3649134 C50.2741852,34.3649134 43.0695232,35.9652272 40.2096328,37.640292 C37.3505445,39.314955 31,47.0195298 31,50.332284 C31,53.6450381 58.7716524,56.7395677 58.7716524,56.7395677 L64.0355027,76 C64.0355027,76 78.0727042,72.5670816 79.7436468,69.7197126 C81.4149905,66.8723435 74.4124295,46.4665333 73.213858,42.336743 C71.9912268,38.123762 66.9599531,35.1863703 61.1110523,34.3649134 C55.2621515,33.5438583 50.2741852,34.3649134 50.2741852,34.3649134" id="Fill-357" fill="#F37067"></path>
                    <path d="M61,34.48305 C61,34.48305 60.8349749,42.7493075 53.7429888,42.9946037 C46.6510028,43.2395215 48.1276297,35.0660072 48.1276297,35.0660072 C48.1276297,35.0660072 53.3146605,33.1233212 61,34.48305" id="Fill-358" fill="#F09A59"></path>
                    <path d="M63.5997652,9 C63.5997652,9 65.9513211,22.9524555 59.2544153,33.0312593 C52.3187455,43.4695806 63.5997652,9 63.5997652,9" id="Fill-359" fill="#252E3B"></path>
                    <path d="M59.957907,35.8966798 C60.790567,38.5631677 48.9937917,38.6366439 48.9999976,36.4442621 C49.0078695,33.9534603 50.2069661,31.8727296 49.0774303,27.6033114 C47.9474805,23.3338931 59.6241805,28.942302 59.6241805,28.942302 C59.6241805,28.942302 59.125247,33.2297814 59.957907,35.8966798 Z" id="Fill-360" fill="#F09A59"></path>
                    <path d="M50,29 C50,29 53.5108054,32.6088992 58,29.3766009 C58,29.3766009 57.6292502,31.683185 54.4002146,31.980846 C51.1715693,32.2788921 50,29 50,29" id="Fill-361" fill="#A77860"></path>
                    <path d="M55.0927108,4.17817319 C55.0927108,4.17817319 64.1700625,6.81282126 62.8731839,19.1680206 C61.5763053,31.5228283 55.6481166,30.8864872 55.0927108,30.9777287 C54.5365064,31.068187 47.4967075,31.5228283 45.2738863,16.5333725 C43.0506658,1.54391673 55.0927108,4.17817319 55.0927108,4.17817319" id="Fill-362" fill="#F09A59"></path>
                    <path d="M52.4819818,9.61264931 C52.4819818,9.61264931 57.4582637,17.5044789 62.6955649,19.3353705 C62.6955649,19.3353705 65.555497,6.09303225 53.7439772,3.31838207 C41.9328602,0.544133487 43.7829543,16.6936497 44.6642968,21 C44.6642968,21 47.1246441,14.664368 52.4819818,9.61264931" id="Fill-363" fill="#252E3B"></path>
                    <path d="M46,8 C46,8 48.601646,2.93511195 52.994399,2.70867408 C57.3875522,2.48263842 60,6.31358091 60,6.31358091 C60,6.31358091 58.284906,2 53,2 C47.715094,2 46,8 46,8" id="Fill-364" fill="#88C0FF"></path>
                    <polyline id="Fill-365" fill="#07A7E5" points="62.9635939 47 66 76 26.0364061 76 23 47 62.9635939 47"></polyline>
                    <path d="M25.4342925,74.6471067 L65.6062086,74.6471067 L62.5653082,46.3536927 L22.3929926,46.3536927 L25.4342925,74.6471067 Z M66,75 L25.1171825,75 L22,46 L62.8828175,46 L66,75 L66,75 Z" id="Fill-366" fill="#5FA0FF"></path>
                    <path d="M46.9177749,60.9489415 C47.2676315,62.857423 46.4688371,64.6516266 45.1335448,64.9559393 C43.7982525,65.259824 42.4322374,63.95954 42.0823808,62.0510585 C41.7321402,60.142149 42.5309345,58.3483734 43.8662268,58.0440607 C45.2019032,57.740176 46.5675343,59.04046 46.9177749,60.9489415" id="Fill-367" fill="#2F5B9A"></path>
                    <polygon id="Fill-368" fill="#07A7E5" points="63 76 71 76 71 73 63 73"></polygon>
                </g>
                <g id="Group-Copy" transform="translate(0.000000, 14.205240)">
                    <g id="Group-7" transform="translate(0.000000, 18.000000)">
                        <mask id="mask-2" fill="white">
                            <use xlink:href="#path-1"></use>
                        </mask>
                        <g id="Clip-6"></g>
                        <path d="M17.5672037,32.8597682 C12.949964,29.0312294 12.3113782,22.1842532 16.1399499,17.5674734 C19.968942,12.9502733 26.8155565,12.3112726 31.4323759,16.1402318 C36.050036,19.9687706 36.6886218,26.8157468 32.8600501,31.4325266 C29.031058,36.0493063 22.1844435,36.688307 17.5672037,32.8597682 Z M43.3893579,33.3655036 C44.2246903,31.5889136 44.790547,29.7257222 45.0949157,27.8343643 L49,26.6618822 L48.1768592,17.8415711 L44.1225334,17.4119272 C43.4730173,15.6092727 42.5721027,13.8835505 41.422312,12.2919344 L43.3532036,8.70470242 L36.533915,3.04954657 L33.3657898,5.61101435 C31.5887642,4.77526875 29.7259772,4.20941685 27.8346031,3.90505075 L26.6621109,0 L17.8413038,0.823133746 L17.4120766,4.87784517 C15.6094066,5.52693532 13.8832493,6.42784217 12.2920399,7.57762297 L8.7047771,5.64716834 L3.04957274,12.465978 L5.61064209,15.634076 C4.77530972,17.4110864 4.20945297,19.2738574 3.90508425,21.1656357 L0,22.3381178 L0.823140808,31.1584289 L4.87746663,31.5880728 C5.52698274,33.3903069 6.42789732,35.1164495 7.57768798,36.7076452 L5.64679639,40.2952976 L12.466085,45.950033 L15.6342102,43.3889856 C17.4112358,44.2243109 19.2740228,44.7901628 21.1653969,45.0949493 L22.3383095,49 L26.7482927,48.5884331 L31.1586962,48.1768663 L31.5879234,44.1221548 C33.3905934,43.4730647 35.1163303,42.5721578 36.7079601,41.4219566 L40.2952229,43.3528317 L45.9504273,36.5336016 L43.3893579,33.3655036 L43.3893579,33.3655036 Z" id="Fill-5" fill="url(#linearGradient-3)" mask="url(#mask-2)"></path>
                    </g>
                    <path d="M155.16055,104.5 L154.890301,104.5 L154.890301,85.0253865 C154.890301,80.6918776 151.411299,77.1668938 147.134695,77.1668938 L127.361247,77.1668938 C122.935761,77.1668938 119.335392,73.5186178 119.335392,69.0345559 L119.335392,32.6323379 C119.335392,28.2991388 115.85639,24.7741551 111.580397,24.7741551 L61.1605505,24.7741551 L61.1605505,24.5 L111.580397,24.5 C116.005577,24.5 119.605947,28.1482761 119.605947,32.6323379 L119.605947,69.0345559 C119.605947,73.3674452 123.084643,76.8930485 127.361247,76.8930485 L147.134695,76.8930485 C151.560487,76.8930485 155.16055,80.5410148 155.16055,85.0253865 L155.16055,104.5" id="Fill-8" stroke="#979797" stroke-width="0.3" stroke-linecap="round" stroke-linejoin="round" stroke-dasharray="1,6"></path>
                    <path d="M62.1683874,15 C62.1683874,15 66.1950786,31.973796 56.5273085,36.6139607 C46.8595384,41.2536984 48.7115259,32.7578327 48.7115259,32.7578327 C48.7115259,32.7578327 44.7461508,31.5915995 55.53778,25.1147563 C60.6241905,22.0623085 62.1683874,15 62.1683874,15" id="Fill-9" fill="#00C1B0"></path>
                    <path d="M71.8670921,36.7760951 C52.7257661,43.0461016 50.0004546,51 50.0004546,51 C50.0004546,51 49.4277931,18.8494701 88.9342609,16 C88.9342609,16 91.007574,30.50567 71.8670921,36.7760951 Z" id="Fill-10" fill="#0DA698"></path>
                    <path d="M49.3483316,45.9390629 C43.6553752,43.6982318 57.187417,31.6820857 67.5870418,32.0064452 C77.9866665,32.3312413 85.0341817,36.3003894 92,34.6231493 C92,34.6231493 77.382618,56.9742724 49.3483316,45.9390629" id="Fill-11" fill="#00C1B0"></path>
                    <path d="M23.5229927,73.9753184 C23.5825974,69.8423147 29.0473448,62.1545981 29.0473448,62.1545981 C29.0473448,62.1545981 29.3000354,62.04638 29.3038131,62.0573709 C29.3071711,62.0611754 29.5854665,62.0180573 29.5854665,62.0218618 C29.591343,62.0218618 30.4346242,61.2119165 30.440081,61.2119165 C30.6407223,61.9470391 32.4511114,72.3296415 32.8947889,78.3737948 C27.7624849,77.3584041 23.4931903,75.9464953 23.5229927,73.9753184 Z M69.320422,55.3102223 C69.6453098,50.8931459 69.871556,46.7618331 70,42.9095203 C68.9413862,42.3447568 67.6695385,41.6848797 66.6516407,41.1983207 C63.5005646,39.6874937 59.1108013,37.6529078 56.2938476,36.3513308 C54.6450629,35.5883082 53.0294386,35.030731 53.0294386,35.030731 C53.0294386,35.030731 41.7712782,33.9443222 40.8574787,34.0022358 C40.5691093,34.0191449 39.1621016,34.5128902 37.3160336,35.2218037 C33.3237752,36.7474261 25.6267882,39.8540482 24.401533,40.7405071 C22.6041562,42.0361659 16.1731403,73.7829775 16.0023014,75.9388862 C15.83566,78.0330767 24.7486676,80.8987442 33.0026651,83.0939665 C32.9967886,86.3121886 32.9321468,90.8209967 32.8595298,94.9370913 C32.8486163,95.6405094 32.8356039,96.3304001 32.8221719,97 L68.9392874,97 C68.891016,96.2932001 68.8486211,95.5952776 68.8133619,94.9370913 C68.8095842,94.8491641 68.8041274,94.7633505 68.8003496,94.6771141 C68.6626711,91.8892283 68.1245494,86.8959748 68.2618082,82.033344 C68.2618082,82.033344 68.1744998,76.9073542 68.6794611,74.701141 C68.7352881,64.9577021 69.320422,55.3102223 69.320422,55.3102223 L69.320422,55.3102223 Z" id="Fill-12" fill="#DBD8E3"></path>
                    <path d="M69.697596,93.9464255 C69.4513217,92.2320274 69.2185358,90.5188918 69.0083759,88.8419462 C69.0083759,88.8326883 69.004895,88.8272177 69.004895,88.817539 C68.9370173,88.2591182 68.8678342,87.7082721 68.8025672,87.1591093 C68.7986511,87.1325979 68.7969107,87.1031409 68.7929947,87.0715798 C68.5193082,84.7617293 68.2926139,82.5457205 68.1290112,80.516974 C68.005874,78.9620646 68.1172631,77.4433453 68.3383009,75.9578703 C68.9892309,65.58269 69.3129555,54.6440393 69.3129555,54.6440393 C69.65539,50.1669944 69.8516262,45.9819947 69.9825955,42.0818864 C69.9825955,42.0818864 55.328402,35.3837828 54,35 C54,35 56.7799413,41.3130584 58.8645709,55.4221252 C59.66518,60.8413736 61.1493528,69.9633684 62.2271293,79.2734673 L62.2271293,79.2751506 C62.8101817,84.2996751 63.9036223,89.4171996 64.7351246,93.9464255 C64.8621777,94.6466607 64.9835745,95.3317467 65.0949636,96 L70,96 C69.8955727,95.3170182 69.7959317,94.6319322 69.697596,93.9464255" id="Fill-13" fill="#303B60" transform="translate(62.000000, 65.500000) rotate(-1.000000) translate(-62.000000, -65.500000) "></path>
                    <path d="M28.1236798,70.1378467 C27.9757728,65.3445195 28.0017565,62 28.0017565,62 C28.5569074,63.6423522 29.3239251,68.3352754 30,73 C27.7259299,72.0211683 28.1526616,71.105997 28.1236798,70.1378467 Z M45.7015279,78.283478 C46.2583664,73.0527879 46.7598147,67.8330074 46.5181124,64.9730375 C44.568968,41.97789 39.0538753,35.891223 38.253656,35 C37.6355527,35.2358132 35.2818926,36.1194835 34.5928732,36.3922212 C30.8208905,37.8792713 23.1321555,40.604131 22.0961087,41.3484952 C20.299287,42.6349781 13.2152274,75.6706506 13.0016398,77.8068164 C12.8585487,79.2510676 22.1036619,82.2688057 31.5355069,84.9626153 C31.4482255,87.548169 31.6928651,91.1957215 30.8334792,95.004399 C30.6832545,95.6799494 30.4608548,96.106679 30.4260261,97 L43.5740441,96.9483896 C43.6537723,96.2690629 43.7372771,95.5876381 43.8212015,94.9007587 C44.0712962,92.8459945 44.3331404,90.7412984 44.5928864,88.5044295 C48.5360749,89.5248882 51.2166206,90.1823959 51.2166206,90.1823959 C51.2166206,90.1823959 54.9202049,83.9211768 55.994857,81.3859746 C56.1786515,80.9533706 51.4113253,79.8078722 45.7015279,78.283478 L45.7015279,78.283478 Z" id="Fill-14" fill="#303B60" transform="translate(34.500000, 66.000000) rotate(-1.000000) translate(-34.500000, -66.000000) "></path>
                    <path d="M40,34.531465 C40,34.531465 41.4696045,31.8886433 41.0633198,24.3853421 C40.9513007,22.3066723 52.5375227,29.3151106 52.5375227,29.3151106 C52.5375227,29.3151106 52.4974543,30.0313702 52.4724654,30.9981362 C52.4595401,31.4007504 52.451785,31.841494 52.451785,32.2949474 C52.451785,32.4199956 52.4535084,32.5450438 52.4535084,32.6705019 C52.4556626,32.875499 52.4573859,33.078446 52.4612635,33.2818031 C52.4668645,33.5339494 52.4767739,33.7803558 52.4896991,34.0181524 C52.5030553,34.2883385 52.5220123,34.5437648 52.5491554,34.7778714 C52.5965481,35.2313248 52.8765959,36.0312232 52.9778439,36.25098 C53.5095038,37.4170031 44.3377243,37.4842421 40,34.531465" id="Fill-15" fill="#EEA987"></path>
                    <path d="M49.5407518,39 L52,42.0500809 C52,42.0500809 50.5589877,43.8309361 48,42.5159065 L49.5407518,39" id="Fill-16" fill="#D54A40" transform="translate(50.000000, 41.000000) rotate(8.000000) translate(-50.000000, -41.000000) "></path>
                    <path d="M50.7320595,42.0751973 C50.7320595,42.0751973 58.4085879,60.8107304 56.7708045,84.6089848 L54.3496415,89 L51.6194388,85.2604131 C51.6194388,85.2604131 51.1789199,53.6538911 49,42 L50.7320595,42.0751973" id="Fill-17" fill="#D54A40"></path>
                    <path d="M52,36.7018628 L49.7560198,39 C49.7560198,39 46.1540637,38.3892855 45.0967794,36.7425771 C44.0390722,35.0958688 52,36.7018628 52,36.7018628" id="Fill-18" fill="#EEA987"></path>
                    <path d="M52.2818475,34 C52.2818475,34 51.9719259,36.0978577 49,39.1602068 L52.2441135,43 L54,35.0340803 L52.2818475,34" id="Fill-19" fill="#C4C1CC" transform="translate(51.500000, 38.500000) rotate(2.000000) translate(-51.500000, -38.500000) "></path>
                    <path d="M40.2706792,33 C40.2706792,33 45.9959423,37.6022615 50,38.7273028 L48.1379179,42 L39,34.8367414 L40.2706792,33" id="Fill-20" fill="#C4C1CC" transform="translate(44.500000, 37.500000) rotate(3.000000) translate(-44.500000, -37.500000) "></path>
                    <path d="M93.9013791,85 C93.9013791,85 87.0172796,78.1896056 82.5021425,77.0571891 C80.4149287,76.5330813 77.6656688,73.5937815 75.0532823,70.1385364 C74.192454,69.0009646 73.3476294,67.8066862 72.5440773,66.624866 C72.5419716,66.6227181 72.5419716,66.6201405 72.5419716,66.6201405 C69.3366075,61.8993038 66.8252967,57.3747927 66.8252967,57.3747927 C66.8252967,57.3747927 57.3511316,46.049768 64.9537111,41.0011492 C64.9537111,41.0011492 68.2117188,40.9294066 69.9990747,41.9196266 C71.8365472,42.9373409 75.7561798,51.2818246 76.4207527,52.7596368 C77.0853257,54.235301 84.2848657,67.9604818 84.76666,68.2689321 C85.2492966,68.5769528 86.0524275,69.705503 88.9330858,71.2877072 C92.4597865,73.2247581 98,78.8937144 98,78.8937144 L93.9013791,85" id="Fill-21" fill="#303B60"></path>
                    <path d="M60.8680353,92 C60.8680353,92 59.9421111,91.96332 59.5456339,91.752809 C59.5456339,91.752809 58.8532177,91.3162378 58.3420135,91.0351577 C58.1794497,90.9458499 58.0355342,90.8720913 57.9378337,90.8342153 C57.5291947,90.6747372 56.5838114,90.4450888 55.7122103,89.7912287 C54.8406091,89.138166 52,86.5243204 52,86.5243204 L53.836038,83.7486046 L54.6837209,81 C54.6837209,81 61.3066737,81.6478797 62.1900313,82.1641899 C62.2759753,82.2148242 62.3590814,82.2682494 62.4332689,82.3240667 C63.1382523,82.832403 63.4455424,83.5026096 63.7848588,83.810801 C63.9085046,83.9248278 65.0618559,85.1392534 64.9973979,85.6316419 C64.9086162,86.3154041 64.5652459,86.7539688 64.1339047,86.961689 C64.1339047,86.961689 63.9003966,88.2925335 63.2006833,88.8877854 C63.2006833,88.8877854 63.0251469,90.1229431 61.9407129,90.6189199 C61.9407129,90.6189199 61.6200447,91.8520841 60.8680353,92" id="Fill-22" fill="#EFAA88"></path>
                    <path d="M49.8503817,4.22607152 C49.8503817,4.22607152 62.2502027,1.2535657 59.6386311,16.8656941 C57.0262196,32.4782401 54.0522446,33.7452509 46.4984658,30.6328477 C38.944687,27.5200269 39.469605,17.5338606 39.0198553,12.6474753 C38.5696857,7.76150763 45.883682,4.45408334 49.8503817,4.22607152" id="Fill-23" fill="#EEA886"></path>
                    <path d="M57,81.1961361 L51.844523,90 C51.844523,90 38.1866531,86.5044099 35,85.6115078 L42.2845638,77 C42.2845638,77 53.0251408,79.4372113 57,81.1961361" id="Fill-26" fill="#303B60"></path>
                    <path d="M52,34 L51.9983622,34 C45.5135799,33.2981821 43,28 43,28 C47.0784769,32.290867 51.9639689,32.1735352 51.9639689,32.1735352 C51.9639689,32.3060766 51.9656067,32.4386181 51.9656067,32.5715941 C51.9676539,32.7888752 51.9692917,33.0039835 51.9729767,33.2195263 C51.9782994,33.4867821 51.9877167,33.7479539 52,34" id="Fill-27" fill="#A77860"></path>
                    <path d="M66,73.241735 C73.7528556,81.1015756 83.995815,91 83.995815,91 L88,83.5136848 C88,83.5136848 78.9019984,73.0092175 72.7341767,66 C70.8437926,66.913016 67.3730203,69.0909439 66,73.241735" id="Fill-29" fill="#EEA886"></path>
                    <path d="M61.9546891,84 C61.9546891,84 64.0461524,85.0818915 64.5920827,85.5634873 C65.1384362,86.0459892 67.3509353,87.8192402 67.8875552,88.2365024 C68.4233286,88.6537646 67.0783933,89.8403115 63.1223028,88.0058982 C59.165366,86.1710319 61.9546891,84 61.9546891,84" id="Fill-30" fill="#EEA886"></path>
                    <polyline id="Fill-31" fill="#F8BE00" points="62.6012591 61 59 95 106.398741 95 110 61 62.6012591 61"></polyline>
                    <path d="M60.4165142,92.6279564 L107.981589,92.6279564 L111.583909,59.3712038 L64.0184105,59.3712038 L60.4165142,92.6279564 Z M108.317338,93 L60,93 L63.6822392,59 L112,59 L108.317338,93 L108.317338,93 Z" id="Fill-32" fill="#FFC955"></path>
                    <polygon id="Fill-33" fill="#F8BE00" points="54 95 62 95 62 92 54 92"></polygon>
                    <polygon id="Fill-61" fill="#7CB7FF" points="30 97 32 97 32 95 30 95"></polygon>
                    <polygon id="Fill-62" fill="#7BB6FF" points="32 97 34 97 34 95 32 95"></polygon>
                    <polygon id="Fill-63" fill="#7AB5FF" points="34 97 36 97 36 95 34 95"></polygon>
                    <polygon id="Fill-64" fill="#79B4FF" points="36 97 38 97 38 95 36 95"></polygon>
                    <polygon id="Fill-65" fill="#78B4FF" points="38 97 40 97 40 95 38 95"></polygon>
                    <polygon id="Fill-66" fill="#77B3FF" points="40 97 42 97 42 95 40 95"></polygon>
                    <polygon id="Fill-67" fill="#76B2FF" points="42 97 44 97 44 95 42 95"></polygon>
                    <polygon id="Fill-68" fill="#74B1FF" points="44 97 46 97 46 95 44 95"></polygon>
                    <polygon id="Fill-69" fill="#73B0FF" points="46 97 48 97 48 95 46 95"></polygon>
                    <polygon id="Fill-70" fill="#72B0FF" points="48 97 50 97 50 95 48 95"></polygon>
                    <polygon id="Fill-71" fill="#71AFFF" points="50 97 52 97 52 95 50 95"></polygon>
                    <polygon id="Fill-72" fill="#70AEFF" points="52 97 54 97 54 95 52 95"></polygon>
                    <polygon id="Fill-73" fill="#6FADFF" points="54 97 56 97 56 95 54 95"></polygon>
                    <polygon id="Fill-74" fill="#6EADFF" points="56 97 58 97 58 95 56 95"></polygon>
                    <polygon id="Fill-75" fill="#6DACFF" points="58 97 60 97 60 95 58 95"></polygon>
                    <polygon id="Fill-76" fill="#6CABFF" points="60 97 62 97 62 95 60 95"></polygon>
                    <polygon id="Fill-77" fill="#6BAAFF" points="62 97 64 97 64 95 62 95"></polygon>
                    <polygon id="Fill-78" fill="#6AA9FF" points="64 97 66 97 66 95 64 95"></polygon>
                    <polygon id="Fill-79" fill="#69A9FF" points="66 97 68 97 68 95 66 95"></polygon>
                    <polygon id="Fill-80" fill="#68A8FF" points="68 97 70 97 70 95 68 95"></polygon>
                    <polygon id="Fill-81" fill="#67A7FF" points="70 97 72 97 72 95 70 95"></polygon>
                    <polygon id="Fill-82" fill="#66A6FF" points="72 97 74 97 74 95 72 95"></polygon>
                    <polygon id="Fill-83" fill="#65A6FF" points="74 97 76 97 76 95 74 95"></polygon>
                    <polygon id="Fill-84" fill="#64A5FF" points="76 97 78 97 78 95 76 95"></polygon>
                    <polygon id="Fill-85" fill="#63A4FF" points="78 97 80 97 80 95 78 95"></polygon>
                    <polygon id="Fill-86" fill="#62A3FF" points="80 97 82 97 82 95 80 95"></polygon>
                    <polygon id="Fill-87" fill="#61A2FF" points="82 97 84 97 84 95 82 95"></polygon>
                    <polygon id="Fill-88" fill="#60A2FF" points="84 97 86 97 86 95 84 95"></polygon>
                    <polygon id="Fill-89" fill="#5FA1FF" points="86 97 88 97 88 95 86 95"></polygon>
                    <polygon id="Fill-90" fill="#5EA0FF" points="88 97 90 97 90 95 88 95"></polygon>
                    <polygon id="Fill-91" fill="#5D9FFF" points="90 97 92 97 92 95 90 95"></polygon>
                    <polygon id="Fill-92" fill="#5C9EFF" points="92 97 94 97 94 95 92 95"></polygon>
                    <polygon id="Fill-93" fill="#5B9EFF" points="94 97 96 97 96 95 94 95"></polygon>
                    <polygon id="Fill-94" fill="#5A9DFF" points="96 97 98 97 98 95 96 95"></polygon>
                    <polygon id="Fill-95" fill="#599CFF" points="98 97 100 97 100 95 98 95"></polygon>
                    <polygon id="Fill-96" fill="#589BFF" points="100 97 102 97 102 95 100 95"></polygon>
                    <polygon id="Fill-97" fill="#579BFF" points="101 97 108 97 108 95 101 95"></polygon>
                    <path d="M81.0822251,77.949746 C80.7323685,79.8579773 81.5311629,81.6519201 82.8664552,81.9558331 C84.2017475,82.2601741 85.5677626,80.9593409 85.9176192,79.0506816 C86.2678598,77.1420223 85.4690655,75.3480795 84.1337732,75.0441665 C82.7980968,74.7398255 81.4324657,76.0406587 81.0822251,77.949746" id="Fill-102" fill="#E0A100"></path>
                    <path d="M43.8659193,14.2252892 C43.6973711,12.7957282 41.1883882,12.3125331 41.0148374,14.4625337 C40.8412866,16.6129696 42.2285386,20.35882 43.1732553,19.9722639 C44.1179721,19.5857078 44.0991162,16.196377 43.8659193,14.2252892" id="Fill-24" fill="#EEA886"></path>
                    <path d="M39.7589063,21 C39.7589063,21 40.0106287,15.9083427 41.8357231,15.7221523 C43.6616694,15.5359619 43.9721697,17.5805921 43.9721697,17.5805921 L45.8228197,17.9075077 C45.8228197,17.9075077 45.1749857,13.4575577 46.9885801,12.65131 C48.8026004,11.8450624 58.8476474,14.9293277 60.2936673,13.598716 C61.7396873,12.2685373 60.9197791,3.23483992 58.2526283,2.03672648 C55.5859034,0.838613051 48.2293035,-1.82564136 42.9218353,1.94319829 C42.9218353,1.94319829 38.7362571,1.52102244 38.1659417,4.95861642 C37.5956264,8.3957774 38.5859051,18.4678109 39.7589063,21" id="Fill-25" fill="#16202E"></path>
                    <polygon id="Fill-52" fill="#85BEFF" points="12 97 14 97 14 95 12 95"></polygon>
                    <polygon id="Fill-53" fill="#84BDFF" points="14 97 16 97 16 95 14 95"></polygon>
                    <polygon id="Fill-54" fill="#83BCFF" points="16 97 18 97 18 95 16 95"></polygon>
                    <polygon id="Fill-55" fill="#82BBFF" points="18 97 20 97 20 95 18 95"></polygon>
                    <polygon id="Fill-56" fill="#81BBFF" points="20 97 22 97 22 95 20 95"></polygon>
                    <polygon id="Fill-57" fill="#80BAFF" points="22 97 24 97 24 95 22 95"></polygon>
                    <polygon id="Fill-58" fill="#7FB9FF" points="24 97 26 97 26 95 24 95"></polygon>
                    <polygon id="Fill-59" fill="#7EB8FF" points="26 97 28 97 28 95 26 95"></polygon>
                    <polygon id="Fill-60" fill="#7DB7FF" points="28 97 30 97 30 95 28 95"></polygon>
                </g>
                <polygon id="Path-2" fill="#FBCECA" points="255.313866 39.7052402 247.813866 47.2052402 255.313866 47.2052402"></polygon>
                <polygon id="Path-2-Copy" fill="#FBCECA" transform="translate(96.848716, 23.055240) rotate(-155.000000) translate(-96.848716, -23.055240) " points="99.8487161 20.0552399 93.8487161 26.0552399 99.8487161 26.0552399"></polygon>
                <polygon id="Path-2-Copy-2" fill="#F16E71" transform="translate(144.848716, 90.055240) rotate(-286.000000) translate(-144.848716, -90.055240) " points="147.848716 87.0552399 141.848716 93.0552399 147.848716 93.0552399"></polygon>
                <circle id="Oval" fill="#7ED9B1" cx="131" cy="85.2052402" r="4"></circle>
                <circle id="Oval-Copy" fill="#AFF1D6" transform="translate(252.000000, 19.205240) rotate(-360.000000) translate(-252.000000, -19.205240) " cx="252" cy="19.2052402" r="2"></circle>
                <circle id="Oval-Copy-2" fill="#FADCD9" transform="translate(77.000000, 26.205240) rotate(-360.000000) translate(-77.000000, -26.205240) " cx="77" cy="26.2052402" r="2"></circle>
                <polygon id="Path-3" fill="#FEF3C2" transform="translate(240.664640, 24.795664) rotate(35.000000) translate(-240.664640, -24.795664) " points="240.66464 21.2956642 237.16464 24.7956642 240.66464 28.2956642 244.16464 24.7956642"></polygon>
                <polygon id="Path-3-Copy-2" fill="#FBE151" transform="translate(239.377852, 94.205240) rotate(-6.000000) translate(-239.377852, -94.205240) " points="239.377852 91.2052402 236.377852 94.2052402 239.377852 97.2052402 242.377852 94.2052402"></polygon>
                <polygon id="Path-3-Copy-3" fill="#FEF3C2" transform="translate(71.377852, 16.205240) rotate(-6.000000) translate(-71.377852, -16.205240) " points="71.377852 13.2052402 68.377852 16.2052402 71.377852 19.2052402 74.377852 16.2052402"></polygon>
                <polygon id="Path-3-Copy" fill="#FBE151" transform="translate(115.377852, 94.205240) rotate(-31.000000) translate(-115.377852, -94.205240) " points="115.377852 90.2052402 111.377852 94.2052402 115.377852 98.2052402 119.377852 94.2052402"></polygon>
                <g id="Group-2" transform="translate(112.000000, 42.205240)">
                    <rect id="Rectangle" stroke="#65A6FF" fill="#07A7E5" x="0.5" y="0.5" width="13" height="15" rx="3"></rect>
                    <g id="Group" transform="translate(2.000000, 2.000000)">
                        <path d="M5.36111111,2.16666667 L8.21031746,2.16666667 C8.40975362,2.16666667 8.57142857,2.32834162 8.57142857,2.52777778 C8.57142857,2.72721394 8.40975362,2.88888889 8.21031746,2.88888889 L5.36111111,2.88888889 C5.16167495,2.88888889 5,2.72721394 5,2.52777778 C5,2.32834162 5.16167495,2.16666667 5.36111111,2.16666667 Z" id="Rectangle" fill="#FFFFFF"></path>
                        <path d="M0.361111111,5.05555556 L8.21031746,5.05555556 C8.40975362,5.05555556 8.57142857,5.21723051 8.57142857,5.41666667 C8.57142857,5.61610283 8.40975362,5.77777778 8.21031746,5.77777778 L0.361111111,5.77777778 C0.161674951,5.77777778 2.44238855e-17,5.61610283 0,5.41666667 C-2.44238855e-17,5.21723051 0.161674951,5.05555556 0.361111111,5.05555556 Z" id="Rectangle-Copy" fill="#FFFFFF"></path>
                        <path d="M0.361111111,6.5 L8.21031746,6.5 C8.40975362,6.5 8.57142857,6.66167495 8.57142857,6.86111111 C8.57142857,7.06054727 8.40975362,7.22222222 8.21031746,7.22222222 L0.361111111,7.22222222 C0.161674951,7.22222222 2.44238855e-17,7.06054727 0,6.86111111 C-2.44238855e-17,6.66167495 0.161674951,6.5 0.361111111,6.5 Z" id="Rectangle-Copy-3" fill="#FFFFFF"></path>
                        <path d="M5.36111111,0.722222222 L9.63888889,0.722222222 C9.83832505,0.722222222 10,0.883897174 10,1.08333333 C10,1.28276949 9.83832505,1.44444444 9.63888889,1.44444444 L5.36111111,1.44444444 C5.16167495,1.44444444 5,1.28276949 5,1.08333333 C5,0.883897174 5.16167495,0.722222222 5.36111111,0.722222222 Z" id="Rectangle-Copy-2" fill="#FFFFFF"></path>
                        <g id="user-circle" transform="translate(0.066964, 0.067708)">
                            <mask id="mask-5" fill="white">
                                <use xlink:href="#path-4"></use>
                            </mask>
                            <g fill-rule="nonzero"></g>
                            <g id="🎨-color" mask="url(#mask-5)" fill="#FFFFFF">
                                <g transform="translate(-0.066964, -0.067708)" id="Rectangle-14">
                                    <rect x="0" y="0" width="4.28571429" height="4.33333333"></rect>
                                </g>
                            </g>
                        </g>
                        <g id="check-circle" transform="translate(4.031250, 8.864583)">
                            <mask id="mask-7" fill="white">
                                <use xlink:href="#path-6"></use>
                            </mask>
                            <g fill-rule="nonzero"></g>
                            <g id="🎨-color" mask="url(#mask-7)" fill="#FFFFFF">
                                <g transform="translate(-0.031250, -0.031250)" id="Rectangle-14">
                                    <rect x="0" y="0" width="2" height="2"></rect>
                                </g>
                            </g>
                        </g>
                    </g>
                </g>
                <g id="check-circle" transform="translate(225.156250, 62.361490)">
                    <mask id="mask-9" fill="white">
                        <use xlink:href="#path-8"></use>
                    </mask>
                    <g fill-rule="nonzero"></g>
                    <g id="🎨-color" mask="url(#mask-9)" fill="#07A7E5">
                        <g transform="translate(-0.156250, -0.156250)" id="Rectangle-14">
                            <rect x="0" y="0" width="10" height="10"></rect>
                        </g>
                    </g>
                </g>
            </g>
        </g>
    </g>
</svg>