<?xml version="1.0" encoding="UTF-8"?>
<svg width="48px" height="48px" viewBox="0 0 48 48" version="1.1" xmlns="http://www.w3.org/2000/svg" xmlns:xlink="http://www.w3.org/1999/xlink">
    <!-- Generator: Sketch 42 (36781) - http://www.bohemiancoding.com/sketch -->
    <title>suitelogo_symbol</title>
    <desc>Created with Sketch.</desc>
    <defs></defs>
    <g id="Page-1" stroke="none" stroke-width="1" fill="none" fill-rule="evenodd">
        <g id="suitelogo_symbol">
            <g id="Page-1">
                <g id="suitelogo_symbol">
                    <g id="Symbols">
                        <g id="global_header">
                            <g id="Header-Opt1">
                                <g id="logo">
                                    <rect id="Rectangle" x="0" y="0" width="48" height="48"></rect>
                                    <g id="suite_symbol" transform="translate(8.000000, 8.000000)" fill-rule="nonzero">
                                        <path d="M0.8590987,18.6007186 L2.1793195,18.7150674 C2.1793195,18.7150674 2.3869688,8.3998814 12.056839,6.358486 C12.056839,6.358486 21.3773065,4.8381837 22.840813,13.6023698 L24.2460857,13.5739744 C24.2460857,13.5739744 23.0162805,3.5987651 12.0851896,5.0645791 C12.0851896,5.0645791 1.54794286,6.4168116 0.8590987,18.6007186" id="Fill-47" fill="#CC6699"></path>
                                        <path d="M6.9919571,29.2047698 L8.0072169,28.350607 C8.0072169,28.350607 0.87128182,20.9079558 6.2671,12.6180488 C6.2671,12.6180488 11.7839831,4.9413279 19.0072688,10.1023744 L19.9803857,9.0862814 C19.9803857,9.0862814 12.0682558,2.9037698 5.3744377,11.6825372 C5.3744377,11.6825372 -1.12245844,20.100607 6.9919571,29.2047698" id="Fill-49" fill="#666699"></path>
                                        <path d="M18.7016948,32.3974814 L18.8166299,31.076714 C18.8166299,31.076714 8.5161494,30.8672023 6.4779675,21.1843884 C6.4779675,21.1843884 4.9608247,11.8476907 13.7104481,10.3826442 L13.6820974,8.9736209 C13.6820974,8.9736209 3.7233571,10.2061326 5.1868636,21.1544581 C5.1868636,21.1544581 6.5362013,31.7083186 18.7016948,32.3974814" id="Fill-51" fill="#6699CC"></path>
                                        <path d="M29.2620818,26.2826581 L28.4100299,25.2657977 C28.4100299,25.2657977 20.9790948,32.4137512 12.7014714,27.0086581 C12.7014714,27.0086581 5.0376013,21.4823093 10.1897571,14.2484023 L9.1760299,13.2737512 C9.1760299,13.2737512 3.0047831,21.1975884 11.7681987,27.9027279 C11.7681987,27.9027279 20.1722506,34.4098674 29.2620818,26.2826581" id="Fill-53" fill="#66CCCC"></path>
                                        <path d="M32.3831818,14.4877674 L31.062961,14.3726512 C31.062961,14.3726512 30.8545455,24.6886047 21.1862078,26.73 C21.1862078,26.73 11.864974,28.2503023 10.4022338,19.4861163 L8.9954286,19.5145116 C8.9954286,19.5145116 10.2252338,29.4897209 21.1570909,28.0223721 C21.1570909,28.0223721 31.6935714,26.6716744 32.3831818,14.4877674" id="Fill-55" fill="#FFCC00"></path>
                                        <path d="M26.3378273,3.9301465 L25.3241,4.7827744 C25.3241,4.7827744 32.4600351,12.226193 27.0642169,20.5168674 C27.0642169,20.5168674 21.5458013,28.1928209 14.3232818,23.0317744 L13.3501649,24.0486349 C13.3501649,24.0486349 21.2622948,30.2303791 27.956113,21.4516116 C27.956113,21.4516116 34.4530091,13.0335419 26.3378273,3.9301465" id="Fill-57" fill="#FF9933"></path>
                                        <path d="M14.5697026,0.77350465 L14.4547675,2.0950395 C14.4547675,2.0950395 24.7552481,2.3037837 26.7918974,11.9873651 C26.7918974,11.9873651 28.3098065,21.3232953 19.5594169,22.7883419 L19.5885338,24.1965977 C19.5885338,24.1965977 29.5480403,22.9648535 28.0830013,12.0165279 C28.0830013,12.0165279 26.7344299,1.46266744 14.5697026,0.77350465" id="Fill-59" fill="#FF3333"></path>
                                        <path d="M4.0272455,6.828314 L4.8800636,7.8436395 C4.8800636,7.8436395 12.3109987,0.69722093 20.5878558,6.102314 C20.5878558,6.102314 28.2524922,11.6286628 23.0995701,18.8610349 L24.1140636,19.8364535 C24.1140636,19.8364535 30.2860766,11.9126163 21.5218948,5.2074767 C21.5218948,5.2074767 13.1163104,-1.29966279 4.0272455,6.828314" id="Fill-61" fill="#993333"></path>
                                    </g>
                                </g>
                            </g>
                        </g>
                    </g>
                </g>
            </g>
        </g>
    </g>
</svg>