<?xml version="1.0" encoding="UTF-8"?>
<svg id="Layer_2" data-name="Layer 2" xmlns="http://www.w3.org/2000/svg" viewBox="0 0 219.81 50.16">
  <defs>
    <style>
      .cls-1 {
        isolation: isolate;
      }

      .cls-2 {
        fill: #092f87;
      }

      .cls-2, .cls-3, .cls-4, .cls-5, .cls-6, .cls-7, .cls-8, .cls-9, .cls-10 {
        stroke-width: 0px;
      }

      .cls-3 {
        fill: #c69;
      }

      .cls-4 {
        fill: #669;
      }

      .cls-5 {
        fill: #933;
      }

      .cls-6 {
        fill: #fc0;
      }

      .cls-7 {
        fill: #f33;
      }

      .cls-8 {
        fill: #f93;
      }

      .cls-9 {
        fill: #6cc;
      }

      .cls-10 {
        fill: #69c;
      }
    </style>
  </defs>
  <g id="Layer_1-2" data-name="Layer 1">
    <g id="Ship-Express">
      <g id="Group-2">
        <g id="Ship-Express-2" data-name="Ship-Express" class="cls-1">
          <g class="cls-1">
            <path class="cls-2" d="m69.25,29.69c0-2.05-1.54-2.82-4.8-3.68-2.85-.77-5.98-1.98-5.98-5.86,0-3.36,2.72-5.63,6.69-5.63,2.3,0,4.38.58,6.3,1.76l-.96,2.37c-1.54-1.02-3.52-1.66-5.31-1.66-2.88,0-4.06,1.31-4.06,2.98,0,2.02,1.7,2.72,4.86,3.58,2.91.77,5.89,2.18,5.89,5.95,0,3.46-2.85,5.98-7.04,5.98-2.34,0-4.77-.67-6.69-1.89l.9-2.46c1.7,1.12,3.52,1.92,5.86,1.92,2.53,0,4.35-1.38,4.35-3.36Z"/>
            <path class="cls-2" d="m85.06,35v-9.21c0-2.53-.96-3.39-2.88-3.39-1.7,0-3.17.8-4,1.6v11.01h-2.62V13.43l2.62-.42v8.99c1.34-1.34,3.07-2.14,4.93-2.14,2.82,0,4.58,1.89,4.58,5.06v10.08h-2.62Z"/>
            <path class="cls-2" d="m93.42,17.11c-1.18,0-1.73-.9-1.73-1.89s.54-1.89,1.73-1.89,1.73.9,1.73,1.89-.54,1.89-1.73,1.89Zm-1.31,17.89v-14.72l2.62-.42v15.13h-2.62Z"/>
            <path class="cls-2" d="m105.99,19.87c4.13,0,6.53,3.33,6.53,7.74s-3.07,7.87-7.46,7.87c-.86,0-2.24-.13-3.17-.38v7.36h-2.62v-22.17l2.62-.42v1.82c1.06-.99,2.37-1.82,4.1-1.82Zm-4.1,12.19c.86.7,1.98,1.06,3.26,1.06,2.98,0,4.64-2.43,4.64-5.44,0-3.23-1.63-5.38-4.35-5.38-1.38,0-2.56.54-3.55,1.41,0-.16,0,8.35,0,8.35Z"/>
            <path class="cls-2" d="m123.65,35V15h12.67v2.53h-9.95v6.18h8.29v2.53h-8.29v6.24h9.95v2.53h-12.67Z"/>
            <path class="cls-2" d="m148.13,35l-3.65-5.73-3.58,5.73h-3.01l5.02-7.49-4.74-7.17h2.94l3.36,5.28,3.2-5.28h3.01l-4.64,7.1,5.02,7.55h-2.94Z"/>
            <path class="cls-2" d="m160.1,19.87c4.13,0,6.53,3.33,6.53,7.74s-3.07,7.87-7.46,7.87c-.86,0-2.24-.13-3.17-.38v7.36h-2.62v-22.17l2.62-.42v1.82c1.06-.99,2.37-1.82,4.1-1.82Zm-4.1,12.19c.86.7,1.98,1.06,3.26,1.06,2.98,0,4.64-2.43,4.64-5.44,0-3.23-1.63-5.38-4.35-5.38-1.38,0-2.56.54-3.55,1.41,0-.16,0,8.35,0,8.35Z"/>
            <path class="cls-2" d="m172.84,35h-2.62v-14.72l2.62-.42v2.59c1.02-1.63,2.24-2.59,4.1-2.59.99,0,1.98.26,2.75.74l-.67,2.46c-.8-.48-1.6-.67-2.34-.67-1.41,0-2.75,1.02-3.84,3.04v9.57Z"/>
            <path class="cls-2" d="m183.78,28.12c.1,2.88,2.02,4.93,4.83,4.93,1.54,0,3.2-.42,4.38-1.22l.48,2.43c-1.31.8-3.07,1.22-4.93,1.22-4.42,0-7.42-3.17-7.42-7.65,0-4.74,3.14-7.97,7.23-7.97,3.55,0,5.6,2.24,5.6,5.73,0,.8-.13,1.7-.32,2.34-.03,0-9.86.06-9.86.06v.13Zm7.65-2.11v-.22c0-2.18-1.02-3.62-3.33-3.62-2.5,0-3.97,1.98-4.19,3.9l7.52-.06Z"/>
            <path class="cls-2" d="m201.29,35.51c-1.79,0-3.78-.54-5.12-1.38l.67-2.4c1.22.83,3.01,1.38,4.51,1.38,1.66,0,2.91-.77,2.91-2.08,0-1.47-1.73-1.95-3.46-2.43-2.08-.58-4.35-1.6-4.35-4.29s2.3-4.45,5.25-4.45c1.7,0,3.39.42,4.74,1.09l-.67,2.4c-1.22-.67-2.98-1.09-4.19-1.09-1.57,0-2.59.64-2.59,1.82,0,1.41,1.57,1.89,3.39,2.37,2.14.58,4.45,1.6,4.45,4.38s-2.33,4.67-5.54,4.67Z"/>
            <path class="cls-2" d="m214.28,35.51c-1.79,0-3.78-.54-5.12-1.38l.67-2.4c1.22.83,3.01,1.38,4.51,1.38,1.66,0,2.91-.77,2.91-2.08,0-1.47-1.73-1.95-3.46-2.43-2.08-.58-4.35-1.6-4.35-4.29s2.3-4.45,5.25-4.45c1.7,0,3.39.42,4.74,1.09l-.67,2.4c-1.21-.67-2.98-1.09-4.19-1.09-1.57,0-2.59.64-2.59,1.82,0,1.41,1.57,1.89,3.39,2.37,2.14.58,4.45,1.6,4.45,4.38s-2.34,4.67-5.54,4.67Z"/>
          </g>
        </g>
        <path id="Fill-47" class="cls-3" d="m0,28.28l2.09.18s.33-16.36,15.67-19.6c0,0,14.78-2.41,17.1,11.49l2.23-.05s-1.95-15.82-19.29-13.5c0,0-16.71,2.14-17.81,21.47"/>
        <path id="Fill-49" class="cls-4" d="m9.73,45.09l1.61-1.35S.02,31.94,8.58,18.79c0,0,8.75-12.18,20.21-3.99l1.54-1.61S17.78,3.38,7.16,17.3c0,0-10.3,13.35,2.57,27.79"/>
        <path id="Fill-51" class="cls-10" d="m28.3,50.16l.18-2.09s-16.34-.33-19.57-15.69c0,0-2.41-14.81,11.47-17.13l-.04-2.23s-15.8,1.95-13.47,19.32c0,0,2.14,16.74,21.44,17.83"/>
        <path id="Fill-53" class="cls-9" d="m45.05,40.46l-1.35-1.61s-11.79,11.34-24.92,2.76c0,0-12.16-8.77-3.98-20.24l-1.61-1.55s-9.79,12.57,4.11,23.2c0,0,13.33,10.32,27.75-2.57"/>
        <path id="Fill-55" class="cls-6" d="m50,21.75l-2.09-.18s-.33,16.36-15.67,19.6c0,0-14.78,2.41-17.1-11.49l-2.23.05s1.95,15.82,19.29,13.49c0,0,16.71-2.14,17.81-21.47"/>
        <path id="Fill-57" class="cls-8" d="m40.41,5.01l-1.61,1.35s11.32,11.81,2.76,24.96c0,0-8.75,12.17-20.21,3.99l-1.54,1.61s12.55,9.8,23.17-4.12c0,0,10.3-13.35-2.57-27.79"/>
        <path id="Fill-59" class="cls-7" d="m21.75,0l-.18,2.1s16.34.33,19.57,15.69c0,0,2.41,14.81-11.47,17.13l.05,2.23s15.8-1.95,13.47-19.32c0,0-2.14-16.74-21.43-17.83"/>
        <path id="Fill-61" class="cls-5" d="m5.02,9.6l1.35,1.61S18.16-.12,31.29,8.45c0,0,12.16,8.77,3.98,20.24l1.61,1.55s9.79-12.57-4.11-23.2c0,0-13.33-10.32-27.75,2.57"/>
      </g>
    </g>
  </g>
</svg>