<svg id="Layer_1" data-name="Layer 1" xmlns="http://www.w3.org/2000/svg" viewBox="0 0 2000 2000"><defs><style>.cls-1{fill:#fff;}.cls-2{fill:#cc6799;}.cls-3{fill:#676798;}.cls-4{fill:#6899cb;}.cls-5{fill:#6bc9ca;}.cls-6{fill:#ffcd05;}.cls-7{fill:#f8993a;}.cls-8{fill:#ef3e3a;}.cls-9{fill:#9a3435;}</style></defs><title>productivity suite_logo</title><g id="suite_symbol" data-name="suite symbol"><path class="cls-1" d="M261,1146.24l-31.86-2.71L129.83,1135l1.65-29.08c8.62-152.74,46.62-287.22,112.92-399.7C297.73,615.72,369.26,539.41,457,479.39c148.45-101.55,291-121.12,298.07-122C944.16,332,1101,366.22,1221.24,459c42.64,32.91,80.47,73.26,112.45,119.94a627.71,627.71,0,0,1,64.76,122.3c29.92,75.06,37.27,132.71,37.56,135.12l4.07,33-134,2.7-4.27-25.58C1285.16,746.77,1247,666,1188.3,606.4c-46.88-47.62-107.27-82.34-179.5-103.19-121.37-35-236.71-19.09-246-17.72-111.33,23.63-206.75,70.88-283.59,140.45-61.8,55.95-112.07,126.58-149.42,209.93-64.42,143.74-68.07,277.07-68.1,278.4Zm-67.59-66,10.4.89c4.76-50.69,20.24-155.15,70.33-267.77,40.66-91.4,95.77-169.12,163.82-231,85.18-77.45,190.58-129.85,313.27-155.75l1.36-.25c5.34-.87,132.23-20.85,270.83,18.62,82.68,23.55,152.24,63.39,206.75,118.43,62.78,63.39,105.11,146.61,126,247.66l13.9-.28A607.72,607.72,0,0,0,1342,721.6a565.67,565.67,0,0,0-58.63-110c-28.37-41.15-61.76-76.64-99.25-105.49C1077,423.76,935.35,393.71,763,416.83l-.17,0c-.3,0-34.49,4.64-85.29,21-46.58,15-117.14,43.19-188.73,92.55-79.91,55.11-145,125-193.51,207.72C238.55,834.83,204.34,949.81,193.42,1080.23Z"/><path id="Fill-47" class="cls-2" d="M161.43,1107.58l70.29,6.06s11-549,525.71-657.67c0,0,496.1-80.89,574,385.6l74.84-1.5s-65.5-531-647.28-453c0,0-560.9,72-597.53,720.49"/><path class="cls-1" d="M484.89,1713.75,465.49,1692c-101.75-114.14-169.82-236.16-202.35-362.66C237,1227.58,233.69,1123,253.36,1018.43,286.64,841.58,373.57,726.86,378,721.13c116-152,251.18-239,401.91-258.4,53.32-6.86,108.5-5.08,164,5.3a624.92,624.92,0,0,1,132,40.62c74.05,31.87,119.88,67.38,121.79,68.88L1223.75,598l-92.63,96.83L1110,679.67c-82.19-58.73-166.23-88.8-249.77-89.38h-2.49c-66,0-132.31,18.23-197.29,54.2C549.84,705.68,479.55,798.7,474,806.21c-62.05,95.55-96.15,196.53-101.37,300.16-4.2,83.34,10.12,168.89,42.56,254.3,55.94,147.28,147.49,244.17,148.4,245.13l22.06,23.11-24.41,20.59ZM844.25,518.64a444.54,444.54,0,0,0-57.32,3.68c-134,17.45-255.58,96.6-361.29,235.26l-.11.14c-.18.24-21.12,27.71-45.52,75.22-22.38,43.57-52.37,113.48-68.15,199.09-17.61,95.56-14.31,191.1,9.8,284,28.2,108.56,85.18,214.09,169.52,314.06l8-6.77C466.79,1584.05,404,1499.18,359.88,1384c-35.79-93.43-51.69-187.41-47.25-279.34C318.17,989.62,355.7,878,424.15,772.78l.78-1.14c3.16-4.39,78.76-108.38,204.61-178.65,74.55-41.61,151.3-62.71,228.16-62.71h1.67c89.14.35,177.83,29.2,264,85.81L1133,606A604.89,604.89,0,0,0,1050.25,563a563.63,563.63,0,0,0-118.89-36.23A481.28,481.28,0,0,0,844.25,518.64Z"/><path id="Fill-49" class="cls-3" d="M487.88,1672l54-45.47s-379.84-396.16-92.62-837.4c0,0,293.63-408.6,678.12-133.89l51.75-54.09S758.06,272.09,401.78,739.39c0,0-345.86,448,86.1,932.63"/><path class="cls-1" d="M1138.44,1873.51l-29-1.64c-152.53-8.63-286.81-46.67-399.12-113.08-90.32-53.41-166.5-125-226.41-212.91C382.58,1397.36,363,1254.75,362.07,1247.42,336.7,1057.68,371,900.38,464,779.89c32.86-42.57,73.12-80.35,119.66-112.28a626,626,0,0,1,121.93-64.67c74.83-29.89,132.26-37.23,134.67-37.53l33-4.08L876,695.45l-25.57,4.29c-99.55,16.67-180.19,54.92-239.67,113.68-47.55,47-82.21,107.49-103,179.87-35,121.61-19.06,237.18-17.69,246.49,23.6,111.49,70.78,207,140.25,284,55.86,61.88,126.39,112.23,209.61,149.63,143.52,64.51,276.64,68.19,278,68.22l32,.72-2.75,31.88ZM814.67,631.32A606.27,606.27,0,0,0,726,659.41,565,565,0,0,0,616.35,718c-41,28.33-76.43,61.67-105.24,99.1-82.58,107.3-112.71,249.45-89.56,422.49l0,.17c0,.3,4.63,34.56,20.92,85.43,14.95,46.67,43.1,117.34,92.38,189,55,80,124.77,145.24,207.36,193.8,96.56,56.77,211.34,91,341.53,102l.91-10.44c-50.65-4.78-154.94-20.32-267.36-70.46C726,1688.3,648.43,1633.11,586.65,1565c-77.33-85.3-129.65-190.82-155.5-313.64l-.26-1.37c-.86-5.34-20.8-132.43,18.6-271.25C473,895.89,512.76,826.22,567.7,771.62,631,708.73,714.08,666.32,815,645.35Z"/><path id="Fill-51" class="cls-4" d="M1111.08,1841.92l6.14-70.32S569,1760.49,460.51,1245.15c0,0-80.75-497,385-575l-1.53-75s-530.09,65.57-452.13,648.33c0,0,71.8,561.78,719.27,598.4"/><path class="cls-1" d="M1154.73,1764a722.45,722.45,0,0,1-134.12-12.68C844.08,1718,729.55,1630.93,723.75,1626.45,572.05,1510.36,485.3,1375,465.89,1224.12c-6.87-53.41-5.1-108.67,5.24-164.26a628.2,628.2,0,0,1,40.54-132.2c31.82-74.2,67.28-120.1,68.78-122l20.46-26.27,96.57,92.89-15,21.08c-58.64,82.33-88.66,166.5-89.24,250.2-.46,66.89,17.75,134.23,54.12,200.14,61.09,110.74,153.92,181.14,161.47,186.75,95.39,62.15,196.21,96.3,299.67,101.53,83.18,4.2,168.6-10.14,253.86-42.63,147-56,243.78-147.74,244.74-148.66l23.17-22.2,20.61,24.6,63.94,76.43-21.64,19.35c-114,101.89-235.79,170.07-362.1,202.64A704.25,704.25,0,0,1,1154.73,1764ZM609,870.36A607.83,607.83,0,0,0,566,953.18a566.1,566.1,0,0,0-36.18,119.16c-9,49.14-10.46,97.84-4.36,144.76,17.46,134.18,96.46,255.89,234.79,361.75l.14.1c.24.19,27.66,21.16,75.09,45.59C879,1647,948.79,1677,1034.25,1692.78c95.39,17.64,190.75,14.34,283.43-9.8,108.41-28.24,213.78-85.32,313.61-169.81l-6.75-8.06c-39.21,32.5-123.9,95.36-238.76,139.49-83.12,31.94-166.7,48.07-248.86,48.07q-15.11,0-30.12-.72c-114.93-5.56-226.45-43.15-331.48-111.73l-1.14-.78c-4.38-3.16-108.21-78.89-178.36-204.94-41.84-75.19-62.9-152.62-62.59-230.12.35-89.29,29.17-178.13,85.71-264.42Z"/><path id="Fill-53" class="cls-5" d="M1673.17,1516.48l-45.31-54.17s-395.53,380.5-836.13,92.79c0,0-407.94-294.13-133.7-679.16l-53.91-51.87S275.64,1245.78,742,1602.67c0,0,447.32,346.39,931.13-86.19"/><path class="cls-1" d="M1129.09,1647c-137.8,0-255.06-36.74-349.65-109.75C736.82,1504.29,699,1464,667,1417.28A627.22,627.22,0,0,1,602.29,1295c-29.9-75.06-37.24-132.69-37.54-135.11l-4.06-33,134-2.69,4.27,25.57c16.66,99.73,54.85,180.52,113.52,240.1,46.89,47.62,107.28,82.34,179.52,103.19,121.34,35,236.66,19.1,246,17.72,111.76-23.73,207.45-71.27,284.46-141.3,61.85-56.25,112.1-127.25,149.36-211,63.9-143.67,67.26-275.24,67.28-276.55l.65-32.08,131.2,11.49-1.65,29c-8.64,152.74-46.64,287.21-112.94,399.68-53.33,90.47-124.84,166.76-212.56,226.77-148.34,101.47-290.76,121.06-298,122A878.74,878.74,0,0,1,1129.09,1647ZM630.64,1185.51a606.2,606.2,0,0,0,28.14,89.16,565.72,565.72,0,0,0,58.61,109.95c28.35,41.14,61.73,76.62,99.21,105.46,107,82.39,248.78,112.42,421.24,89.27l.17,0c.3,0,34.49-4.64,85.27-21,46.58-15,117.12-43.16,188.7-92.51,79.9-55.1,145-125,193.48-207.69,56.71-96.75,90.92-211.74,101.86-342.17l-10.38-.91c-4.77,50.72-20.27,155.17-70.35,267.77-40.65,91.41-95.77,169.14-163.81,231-85.18,77.46-190.57,129.88-313.24,155.79l-1.38.25c-5.33.87-132.22,20.84-270.82-18.63-82.68-23.54-152.24-63.38-206.75-118.42-62.78-63.38-105.12-146.6-126.05-247.64Z"/><path id="Fill-55" class="cls-6" d="M1839.3,888.69l-70.25-6.15s-11.07,549.09-525.71,657.77c0,0-496.08,80.87-574-385.59l-74.82,1.51s65.41,531,647.3,452.85c0,0,560.79-71.91,597.47-720.39"/><path class="cls-1" d="M1161.14,1540.07a541.78,541.78,0,0,1-99.59-9.38,625.59,625.59,0,0,1-132-40.6c-74.06-31.87-119.89-67.37-121.81-68.86l-26.13-20.42,92.73-96.92L895.51,1319c82.19,58.74,166.22,88.82,249.76,89.4h2.5c66,0,132.3-18.22,197.29-54.19,110.58-61.2,180.88-154.2,186.47-161.74,62-95.56,96.14-196.54,101.35-300.18,4.2-83.34-10.12-168.9-42.56-254.31-55.93-147.29-147.48-244.19-148.39-245.16l-22.08-23.11,24.45-20.59L1520.55,285l19.39,21.75c101.75,114.12,169.83,236.12,202.36,362.61,26.16,101.73,29.45,206.32,9.79,310.87-33.2,176.56-119.9,291.2-124.57,297.28-116,152-251.21,239-402,258.42A504.27,504.27,0,0,1,1161.14,1540.07ZM872.4,1392.72a604.84,604.84,0,0,0,82.75,43A563.76,563.76,0,0,0,1074.06,1472c49,9,97.64,10.49,144.46,4.39,134-17.46,255.6-96.61,361.32-235.26l.11-.14c.18-.23,21.12-27.7,45.51-75.21,22.38-43.58,52.36-113.49,68.13-199.1,17.61-95.56,14.31-191.08-9.81-283.92-28.21-108.56-85.19-214.08-169.54-314l-7.93,6.67c32.42,39.23,95.22,124.1,139.31,239.22C1681.41,708.05,1697.3,802,1692.87,894c-5.54,115.09-43.06,226.76-111.5,331.93l-.79,1.14c-3.15,4.4-78.77,108.4-204.64,178.66-74.55,41.62-151.3,62.71-228.15,62.71h-1.69c-89.15-.36-177.83-29.22-264-85.84Z"/><path id="Fill-57" class="cls-7" d="M1517.55,326.75l-54,45.34s379.81,396.18,92.62,837.44c0,0-293.7,408.64-678.15,133.88l-51.84,54.18s421.16,329,777.47-138.28c0,0,345.81-448-86.15-932.56"/><path class="cls-1" d="M1129,1439.36l-2.7-134.2,25.57-4.28c100-16.74,180.89-55.23,240.45-114.41,47.55-47.25,82.14-108.1,102.79-180.87,34.49-121.53,18.53-235.46,17.16-244.62-23.58-111.51-70.75-207.08-140.22-284-55.85-61.89-126.36-112.24-209.57-149.64-143.51-64.52-276.63-68.19-278-68.22l-32-.71,2.74-31.88,8.63-99.39,29.07,1.65c152.51,8.65,286.78,46.72,399.08,113.14,90.33,53.42,166.5,125.05,226.41,212.92,101.3,148.58,120.86,291.21,121.8,298.46,25.35,189.71-9,347-102,467.48-32.86,42.57-73.12,80.35-119.67,112.29a626.72,626.72,0,0,1-121.94,64.7c-74.84,29.89-132.28,37.24-134.69,37.54Zm58.32-84.09.29,14.08a604.91,604.91,0,0,0,88.72-28.1,565,565,0,0,0,109.62-58.56c41-28.33,76.44-61.68,105.25-99.12,82.57-107.3,112.71-249.43,89.57-422.44l0-.17c0-.3-4.63-34.55-20.92-85.42-15-46.66-43.1-117.34-92.38-189-55-80-124.78-145.25-207.36-193.81-96.55-56.79-211.32-91.05-341.49-102l-.91,10.5C968.29,206,1072.59,221.5,1185,271.65c91.27,40.73,168.87,95.93,230.64,164.08C1493,521,1545.26,626.57,1571.1,749.41l.25,1.36c.87,5.34,20.82,132.41-18.57,271.21-23.5,82.8-63.27,152.46-118.22,207C1371.27,1291.91,1288.18,1334.31,1187.27,1355.27Z"/><path id="Fill-59" class="cls-8" d="M891.22,158.69l-6.11,70.39s548.24,11.09,656.63,526.51c0,0,80.8,496.91-385,574.88l1.51,75s530.1-65.64,452.18-648.33c0,0-71.82-561.73-719.24-598.47"/><path class="cls-1" d="M1402.45,1218l-96.7-92.85,15-21.1c58.88-82.65,88.91-167.18,89.24-251.22.26-67.09-18.25-134.61-55-200.7C1293.6,541.81,1201.9,472.55,1194.45,467c-95.4-62.14-196.22-96.31-299.68-101.54-83.19-4.21-168.6,10.12-253.85,42.59-147,56-243.77,147.67-244.73,148.58l-23.13,22.15-20.61-24.5L288.37,478,310,458.64c114-101.92,235.78-170.12,362.09-202.7,101.6-26.21,206.06-29.5,310.47-9.8,176.71,33.34,291.31,120.5,296.91,124.82,151.72,116.1,238.5,251.47,257.92,402.35,6.87,53.4,5.11,108.67-5.23,164.25a628.26,628.26,0,0,1-40.53,132.19c-31.82,74.19-67.28,120.09-68.77,122Zm-18.13-100.58,10,9.64a607.18,607.18,0,0,0,43-82.83,566.92,566.92,0,0,0,36.17-119.15c9-49.14,10.46-97.84,4.35-144.75-17.47-134.2-96.49-255.92-234.86-361.79l-.14-.1c-.24-.18-27.67-21.15-75.1-45.59-43.51-22.41-113.31-52.44-198.77-68.23C873.57,287,778.2,290.3,685.52,314.45,577.14,342.7,471.77,399.79,372,484.27l6.72,8c39.19-32.48,123.9-95.34,238.8-139.47,93.3-35.84,187.16-51.75,279-47.3,114.92,5.56,226.44,43.16,331.46,111.73l1.15.79c4.38,3.16,108.21,78.9,178.36,205,41.84,75.18,62.9,152.6,62.6,230.11C1469.68,942.35,1440.86,1031.16,1384.32,1117.43Z"/><path id="Fill-61" class="cls-9" d="M330,481l45.38,54s395.51-380.35,836.1-92.67c0,0,408,294.17,133.7,679.12l54,51.86s328.47-421.71-138-778.6c0,0-447.39-346.39-931.16,86.27"/></g></svg>